SplineFontDB: 3.2
FontName: Montserrat-Regular
FullName: Montserrat Regular
FamilyName: Montserrat
Weight: Book
Copyright: Copyright 2011 The Montserrat Project Authors (https://github.com/JulietaUla/Montserrat)
Version: 9.000
ItalicAngle: 0
UnderlinePosition: -125
UnderlineWidth: 50
Ascent: 800
Descent: 200
InvalidEm: 0
sfntRevision: 0x00090000
LayerCount: 2
Layer: 0 1 "Back" 1
Layer: 1 1 "Fore" 0
XUID: [1021 598 623987363 1205007]
StyleMap: 0x0040
FSType: 0
OS2Version: 4
OS2_WeightWidthSlopeOnly: 0
OS2_UseTypoMetrics: 1
CreationTime: 1624264748
ModificationTime: 1775135658
PfmFamily: 81
TTFWeight: 400
TTFWidth: 5
LineGap: 0
VLineGap: 0
Panose: 0 0 0 0 0 0 0 0 0 0
OS2TypoAscent: 968
OS2TypoAOffset: 0
OS2TypoDescent: -251
OS2TypoDOffset: 0
OS2TypoLinegap: 0
OS2WinAscent: 1109
OS2WinAOffset: 0
OS2WinDescent: 453
OS2WinDOffset: 0
HheadAscent: 968
HheadAOffset: 0
HheadDescent: -251
HheadDOffset: 0
OS2SubXSize: 650
OS2SubYSize: 600
OS2SubXOff: 0
OS2SubYOff: 75
OS2SupXSize: 650
OS2SupYSize: 600
OS2SupXOff: 0
OS2SupYOff: 350
OS2StrikeYSize: 50
OS2StrikeYPos: 315
OS2CapHeight: 700
OS2XHeight: 525
OS2Vendor: 'ULA '
OS2CodePages: 20000197.00000000
OS2UnicodeRanges: a00002ff.4000247b.00000000.00000000
Lookup: 1 0 0 "'aalt' Access All Alternates lookup 0" { "'aalt' Access All Alternates lookup 0 subtable"  } ['aalt' ('DFLT' <'NAV ' 'dflt' > 'cyrl' <'BGR ' 'BSH ' 'CHU ' 'MKD ' 'SRB ' 'dflt' > 'latn' <'AZE ' 'CAT ' 'CRT ' 'KAZ ' 'MOL ' 'NAV ' 'NLD ' 'NSM ' 'ROM ' 'TAT ' 'TOD0' 'TRK ' 'VIT ' 'XPE ' 'dflt' > ) ]
Lookup: 3 0 0 "'aalt' Access All Alternates lookup 1" { "'aalt' Access All Alternates lookup 1 subtable"  } ['aalt' ('DFLT' <'NAV ' 'dflt' > 'cyrl' <'BGR ' 'BSH ' 'CHU ' 'MKD ' 'SRB ' 'dflt' > 'latn' <'AZE ' 'CAT ' 'CRT ' 'KAZ ' 'MOL ' 'NAV ' 'NLD ' 'NSM ' 'ROM ' 'TAT ' 'TOD0' 'TRK ' 'VIT ' 'XPE ' 'dflt' > ) ]

StartChar: .notdef
Encoding: 65536 -1 0
Width: 587
GlyphClass: 1
Flags: W
LayerCount: 2
Fore
SplineSet
40 0 m 1,0,-1
 40 700 l 1,1,-1
 547 700 l 1,2,-1
 547 0 l 1,3,-1
 40 0 l 1,0,-1
120 70 m 1,4,-1
 467 70 l 1,5,-1
 467 630 l 1,6,-1
 120 630 l 1,7,-1
 120 70 l 1,4,-1
EndSplineSet
Validated: 1
EndChar

StartChar: exclam
Encoding: 33 33 6
Width: 260
GlyphClass: 1
Flags: W
LayerCount: 2
Fore
SplineSet
102 210 m 1,0,-1
 88 700 l 1,1,-1
 172 700 l 1,2,-1
 157 210 l 1,3,-1
 102 210 l 1,0,-1
130 -5 m 0,4,5
 108 -5 108 -5 92.5 10.5 c 128,-1,6
 77 26 77 26 77 47 c 0,7,8
 77 69 77 69 92.5 83.5 c 128,-1,9
 108 98 108 98 130 98 c 0,10,11
 153 98 153 98 167.5 83.5 c 128,-1,12
 182 69 182 69 182 47 c 0,13,14
 182 26 182 26 167.5 10.5 c 128,-1,15
 153 -5 153 -5 130 -5 c 0,4,5
EndSplineSet
Validated: 1
Substitution2: "'smcp' Lowercase to Small Capitals lookup 46 subtable" exclam.sc
Substitution2: "'c2sc' Capitals to Small Capitals lookup 45 subtable" exclam.sc
Substitution2: "'aalt' Access All Alternates lookup 0 subtable" exclam.sc
EndChar

StartChar: numbersign
Encoding: 35 35 8
Width: 696
GlyphClass: 1
Flags: W
LayerCount: 2
Fore
SplineSet
148 0 m 1,0,-1
 234 700 l 1,1,-1
 289 700 l 1,2,-1
 202 0 l 1,3,-1
 148 0 l 1,0,-1
29 190 m 1,4,-1
 29 245 l 1,5,-1
 634 245 l 1,6,-1
 634 190 l 1,7,-1
 29 190 l 1,4,-1
408 0 m 1,8,-1
 494 700 l 1,9,-1
 548 700 l 1,10,-1
 462 0 l 1,11,-1
 408 0 l 1,8,-1
61 455 m 1,12,-1
 61 510 l 1,13,-1
 666 510 l 1,14,-1
 666 455 l 1,15,-1
 61 455 l 1,12,-1
EndSplineSet
Validated: 5
EndChar

StartChar: dollar
Encoding: 36 36 9
Width: 615
GlyphClass: 1
Flags: W
LayerCount: 2
Fore
SplineSet
307 -6 m 0,0,1
 229 -6 229 -6 157.5 19.5 c 128,-1,2
 86 45 86 45 47 85 c 1,3,-1
 76 142 l 1,4,5
 113 106 113 106 175.5 81.5 c 128,-1,6
 238 57 238 57 307 57 c 0,7,8
 373 57 373 57 414.5 73.5 c 128,-1,9
 456 90 456 90 475.5 118 c 128,-1,10
 495 146 495 146 495 180 c 0,11,12
 495 221 495 221 471.5 246 c 128,-1,13
 448 271 448 271 410 285.5 c 128,-1,14
 372 300 372 300 326 311 c 128,-1,15
 280 322 280 322 234 334.5 c 128,-1,16
 188 347 188 347 149.5 368 c 128,-1,17
 111 389 111 389 87.5 423.5 c 128,-1,18
 64 458 64 458 64 514 c 0,19,20
 64 566 64 566 91.5 609.5 c 128,-1,21
 119 653 119 653 176 679.5 c 128,-1,22
 233 706 233 706 322 706 c 0,23,24
 381 706 381 706 439 689.5 c 128,-1,25
 497 673 497 673 539 644 c 1,26,-1
 514 585 l 1,27,28
 469 615 469 615 418.5 629 c 128,-1,29
 368 643 368 643 321 643 c 0,30,31
 258 643 258 643 217 626 c 128,-1,32
 176 609 176 609 156.5 580.5 c 128,-1,33
 137 552 137 552 137 516 c 0,34,35
 137 475 137 475 160.5 450 c 128,-1,36
 184 425 184 425 222.5 411 c 128,-1,37
 261 397 261 397 307 386 c 128,-1,38
 353 375 353 375 398.5 362 c 128,-1,39
 444 349 444 349 482.5 328.5 c 128,-1,40
 521 308 521 308 544.5 274 c 128,-1,41
 568 240 568 240 568 185 c 0,42,43
 568 134 568 134 540 90.5 c 128,-1,44
 512 47 512 47 454.5 20.5 c 128,-1,45
 397 -6 397 -6 307 -6 c 0,0,1
286 -120 m 1,46,-1
 286 820 l 1,47,-1
 336 820 l 1,48,-1
 336 -120 l 1,49,-1
 286 -120 l 1,46,-1
EndSplineSet
Validated: 5
EndChar

StartChar: percent
Encoding: 37 37 10
Width: 829
GlyphClass: 1
Flags: W
LayerCount: 2
Fore
SplineSet
146 0 m 1,0,-1
 624 700 l 1,1,-1
 683 700 l 1,2,-1
 205 0 l 1,3,-1
 146 0 l 1,0,-1
200 325 m 256,4,5
 153 325 153 325 117 348.5 c 128,-1,6
 81 372 81 372 61.5 415 c 128,-1,7
 42 458 42 458 42 515 c 256,8,9
 42 572 42 572 61.5 615 c 128,-1,10
 81 658 81 658 117 681.5 c 128,-1,11
 153 705 153 705 200 705 c 256,12,13
 247 705 247 705 282.5 681.5 c 128,-1,14
 318 658 318 658 338 615.5 c 128,-1,15
 358 573 358 573 358 515 c 0,16,17
 358 458 358 458 338 415 c 128,-1,18
 318 372 318 372 282.5 348.5 c 128,-1,19
 247 325 247 325 200 325 c 256,4,5
200 370 m 0,20,21
 249 370 249 370 278.5 408.5 c 128,-1,22
 308 447 308 447 308 515 c 256,23,24
 308 583 308 583 278.5 621.5 c 128,-1,25
 249 660 249 660 200 660 c 0,26,27
 150 660 150 660 121 621.5 c 128,-1,28
 92 583 92 583 92 515 c 256,29,30
 92 447 92 447 121 408.5 c 128,-1,31
 150 370 150 370 200 370 c 0,20,21
629 -5 m 0,32,33
 583 -5 583 -5 547 18.5 c 128,-1,34
 511 42 511 42 491 85 c 128,-1,35
 471 128 471 128 471 185 c 256,36,37
 471 242 471 242 491 285 c 128,-1,38
 511 328 511 328 547 351.5 c 128,-1,39
 583 375 583 375 629 375 c 0,40,41
 677 375 677 375 712.5 351.5 c 128,-1,42
 748 328 748 328 767.5 285 c 128,-1,43
 787 242 787 242 787 185 c 256,44,45
 787 128 787 128 767.5 85 c 128,-1,46
 748 42 748 42 712.5 18.5 c 128,-1,47
 677 -5 677 -5 629 -5 c 0,32,33
629 40 m 256,48,49
 678 40 678 40 707.5 78.5 c 128,-1,50
 737 117 737 117 737 185 c 256,51,52
 737 253 737 253 707.5 291.5 c 128,-1,53
 678 330 678 330 629 330 c 256,54,55
 580 330 580 330 550.5 291.5 c 128,-1,56
 521 253 521 253 521 185 c 256,57,58
 521 117 521 117 550.5 78.5 c 128,-1,59
 580 40 580 40 629 40 c 256,48,49
EndSplineSet
Validated: 1
EndChar

StartChar: ampersand
Encoding: 38 38 11
Width: 669
GlyphClass: 1
Flags: W
LayerCount: 2
Fore
SplineSet
615 -11 m 1,0,-1
 229 386 l 2,1,2
 194 423 194 423 173.5 450.5 c 128,-1,3
 153 478 153 478 145 503 c 128,-1,4
 137 528 137 528 137 556 c 0,5,6
 137 601 137 601 158.5 634.5 c 128,-1,7
 180 668 180 668 220 686.5 c 128,-1,8
 260 705 260 705 314 705 c 0,9,10
 363 705 363 705 399.5 688.5 c 128,-1,11
 436 672 436 672 456.5 641 c 128,-1,12
 477 610 477 610 477 566 c 0,13,14
 477 528 477 528 458.5 495 c 128,-1,15
 440 462 440 462 398 430.5 c 128,-1,16
 356 399 356 399 284 360 c 0,17,18
 221 325 221 325 184.5 296 c 128,-1,19
 148 267 148 267 133 239.5 c 128,-1,20
 118 212 118 212 118 179 c 0,21,22
 118 141 118 141 139.5 112.5 c 128,-1,23
 161 84 161 84 199.5 68.5 c 128,-1,24
 238 53 238 53 288 53 c 0,25,26
 358 53 358 53 413 82 c 128,-1,27
 468 111 468 111 505.5 170 c 128,-1,28
 543 229 543 229 560 318 c 1,29,-1
 617 300 l 1,30,31
 598 200 598 200 552 132 c 128,-1,32
 506 64 506 64 438 29 c 128,-1,33
 370 -6 370 -6 284 -6 c 0,34,35
 216 -6 216 -6 163 16.5 c 128,-1,36
 110 39 110 39 79.5 79 c 128,-1,37
 49 119 49 119 49 172 c 0,38,39
 49 217 49 217 69 254.5 c 128,-1,40
 89 292 89 292 133.5 328.5 c 128,-1,41
 178 365 178 365 252 405 c 0,42,43
 315 440 315 440 350.5 465.5 c 128,-1,44
 386 491 386 491 401 514.5 c 128,-1,45
 416 538 416 538 416 565 c 0,46,47
 416 604 416 604 389.5 628 c 128,-1,48
 363 652 363 652 314 652 c 0,49,50
 261 652 261 652 232 625.5 c 128,-1,51
 203 599 203 599 203 557 c 0,52,53
 203 536 203 536 209.5 517 c 128,-1,54
 216 498 216 498 234.5 475 c 128,-1,55
 253 452 253 452 286 417 c 2,56,-1
 656 36 l 1,57,-1
 615 -11 l 1,0,-1
EndSplineSet
Validated: 5
Substitution2: "'smcp' Lowercase to Small Capitals lookup 46 subtable" ampersand.sc
Substitution2: "'c2sc' Capitals to Small Capitals lookup 45 subtable" ampersand.sc
Substitution2: "'aalt' Access All Alternates lookup 0 subtable" ampersand.sc
EndChar

StartChar: quotesingle
Encoding: 39 39 12
Width: 202
GlyphClass: 1
Flags: W
LayerCount: 2
Fore
SplineSet
74 436 m 1,0,-1
 69 700 l 1,1,-1
 132 700 l 1,2,-1
 127 436 l 1,3,-1
 74 436 l 1,0,-1
EndSplineSet
Validated: 1
Substitution2: "'smcp' Lowercase to Small Capitals lookup 46 subtable" quotesingle.sc
Substitution2: "'c2sc' Capitals to Small Capitals lookup 45 subtable" quotesingle.sc
Substitution2: "'aalt' Access All Alternates lookup 0 subtable" quotesingle.sc
EndChar

StartChar: parenleft
Encoding: 40 40 13
Width: 329
GlyphClass: 1
Flags: W
LayerCount: 2
Fore
SplineSet
220 -194 m 1,0,1
 165 -103 165 -103 134.5 16.5 c 128,-1,2
 104 136 104 136 104 274 c 256,3,4
 104 412 104 412 134.5 532.5 c 128,-1,5
 165 653 165 653 220 742 c 1,6,-1
 288 742 l 1,7,8
 229 639 229 639 201.5 523.5 c 128,-1,9
 174 408 174 408 174 274 c 256,10,11
 174 140 174 140 201.5 24.5 c 128,-1,12
 229 -91 229 -91 288 -194 c 1,13,-1
 220 -194 l 1,0,1
EndSplineSet
Validated: 1
Substitution2: "'case' Case-Sensitive Forms lookup 47 subtable" parenleft.case
Substitution2: "'aalt' Access All Alternates lookup 0 subtable" parenleft.case
EndChar

StartChar: parenright
Encoding: 41 41 14
Width: 329
GlyphClass: 1
Flags: W
LayerCount: 2
Fore
SplineSet
40 -194 m 1,0,1
 100 -91 100 -91 127.5 24.5 c 128,-1,2
 155 140 155 140 155 274 c 256,3,4
 155 408 155 408 127.5 523.5 c 128,-1,5
 100 639 100 639 40 742 c 1,6,-1
 108 742 l 1,7,8
 165 653 165 653 195 532.5 c 128,-1,9
 225 412 225 412 225 274 c 256,10,11
 225 136 225 136 195 16.5 c 128,-1,12
 165 -103 165 -103 108 -194 c 1,13,-1
 40 -194 l 1,0,1
EndSplineSet
Validated: 1
Substitution2: "'case' Case-Sensitive Forms lookup 47 subtable" parenright.case
Substitution2: "'aalt' Access All Alternates lookup 0 subtable" parenright.case
EndChar

StartChar: asterisk
Encoding: 42 42 15
Width: 386
GlyphClass: 1
Flags: W
LayerCount: 2
Fore
SplineSet
170 380 m 1,0,-1
 171 533 l 1,1,-1
 181 528 l 1,2,-1
 46 449 l 1,3,-1
 22 491 l 1,4,-1
 161 569 l 1,5,-1
 161 553 l 1,6,-1
 22 631 l 1,7,-1
 46 673 l 1,8,-1
 181 594 l 1,9,-1
 171 589 l 1,10,-1
 170 742 l 1,11,-1
 216 742 l 1,12,-1
 216 589 l 1,13,-1
 205 594 l 1,14,-1
 341 673 l 1,15,-1
 364 631 l 1,16,-1
 226 553 l 1,17,-1
 226 569 l 1,18,-1
 364 491 l 1,19,-1
 341 449 l 1,20,-1
 205 528 l 1,21,-1
 216 533 l 1,22,-1
 216 380 l 1,23,-1
 170 380 l 1,0,-1
EndSplineSet
Validated: 5
EndChar

StartChar: plus
Encoding: 43 43 16
Width: 575
GlyphClass: 1
Flags: W
LayerCount: 2
Fore
SplineSet
256 138 m 1,0,-1
 256 562 l 1,1,-1
 319 562 l 1,2,-1
 319 138 l 1,3,-1
 256 138 l 1,0,-1
70 320 m 1,4,-1
 70 379 l 1,5,-1
 505 379 l 1,6,-1
 505 320 l 1,7,-1
 70 320 l 1,4,-1
EndSplineSet
Validated: 5
EndChar

StartChar: comma
Encoding: 44 44 17
Width: 212
GlyphClass: 1
Flags: W
LayerCount: 2
Fore
SplineSet
56 -146 m 1,0,-1
 100 39 l 1,1,-1
 108 -4 l 1,2,3
 85 -4 85 -4 69.5 11 c 128,-1,4
 54 26 54 26 54 50 c 256,5,6
 54 74 54 74 69.5 89 c 128,-1,7
 85 104 85 104 107 104 c 0,8,9
 130 104 130 104 144.5 88 c 128,-1,10
 159 72 159 72 159 50 c 0,11,12
 159 42 159 42 158 34 c 128,-1,13
 157 26 157 26 154 16 c 128,-1,14
 151 6 151 6 146 -8 c 2,15,-1
 104 -146 l 1,16,-1
 56 -146 l 1,0,-1
EndSplineSet
Validated: 5
EndChar

StartChar: hyphen
Encoding: 45 45 18
Width: 382
GlyphClass: 1
Flags: W
LayerCount: 2
Fore
SplineSet
60 240 m 1,0,-1
 60 302 l 1,1,-1
 322 302 l 1,2,-1
 322 240 l 1,3,-1
 60 240 l 1,0,-1
EndSplineSet
Validated: 1
Substitution2: "'case' Case-Sensitive Forms lookup 47 subtable" hyphen.case
Substitution2: "'aalt' Access All Alternates lookup 0 subtable" hyphen.case
EndChar

StartChar: period
Encoding: 46 46 19
Width: 212
GlyphClass: 1
Flags: W
LayerCount: 2
Fore
SplineSet
106 -5 m 256,0,1
 84 -5 84 -5 68.5 11 c 128,-1,2
 53 27 53 27 53 50 c 0,3,4
 53 74 53 74 68.5 89 c 128,-1,5
 84 104 84 104 106 104 c 256,6,7
 128 104 128 104 143.5 89 c 128,-1,8
 159 74 159 74 159 50 c 0,9,10
 159 27 159 27 143.5 11 c 128,-1,11
 128 -5 128 -5 106 -5 c 256,0,1
EndSplineSet
Validated: 1
Substitution2: "'smcp' Lowercase to Small Capitals lookup 46 subtable" period.sc
Substitution2: "'c2sc' Capitals to Small Capitals lookup 45 subtable" period.sc
Substitution2: "'aalt' Access All Alternates lookup 0 subtable" period.sc
EndChar

StartChar: slash
Encoding: 47 47 20
Width: 335
GlyphClass: 1
Flags: W
LayerCount: 2
Fore
SplineSet
-25 -100 m 1,0,-1
 305 842 l 1,1,-1
 370 842 l 1,2,-1
 40 -100 l 1,3,-1
 -25 -100 l 1,0,-1
EndSplineSet
Validated: 1
Substitution2: "'case' Case-Sensitive Forms lookup 47 subtable" slash.case
Substitution2: "'frac' Diagonal Fractions lookup 34 subtable" fraction
AlternateSubs2: "'aalt' Access All Alternates lookup 1 subtable" fraction slash.case
EndChar

StartChar: zero
Encoding: 48 48 21
Width: 662
GlyphClass: 1
Flags: W
LayerCount: 2
Fore
SplineSet
331 -6 m 256,0,1
 250 -6 250 -6 187 36.5 c 128,-1,2
 124 79 124 79 88 158.5 c 128,-1,3
 52 238 52 238 52 350 c 256,4,5
 52 462 52 462 88 541.5 c 128,-1,6
 124 621 124 621 187 663.5 c 128,-1,7
 250 706 250 706 331 706 c 256,8,9
 412 706 412 706 475 663.5 c 128,-1,10
 538 621 538 621 574.5 541.5 c 128,-1,11
 611 462 611 462 611 350 c 256,12,13
 611 238 611 238 574.5 158.5 c 128,-1,14
 538 79 538 79 475 36.5 c 128,-1,15
 412 -6 412 -6 331 -6 c 256,0,1
331 60 m 0,16,17
 393 60 393 60 439 93.5 c 128,-1,18
 485 127 485 127 511 191.5 c 128,-1,19
 537 256 537 256 537 350 c 256,20,21
 537 444 537 444 511 508.5 c 128,-1,22
 485 573 485 573 439 606.5 c 128,-1,23
 393 640 393 640 331 640 c 0,24,25
 271 640 271 640 224 606.5 c 128,-1,26
 177 573 177 573 151 508.5 c 128,-1,27
 125 444 125 444 125 350 c 256,28,29
 125 256 125 256 151 191.5 c 128,-1,30
 177 127 177 127 224 93.5 c 128,-1,31
 271 60 271 60 331 60 c 0,16,17
EndSplineSet
Validated: 1
Substitution2: "'onum' Oldstyle Figures lookup 44 subtable" zero.osf
Substitution2: "'tnum' Tabular Numbers lookup 43 subtable" zero.tf
Substitution2: "'frac' Diagonal Fractions lookup 35 subtable" zero.numr
Substitution2: "'dnom' Denominators lookup 33 subtable" zero.dnom
Substitution2: "'numr' Numerators lookup 32 subtable" zero.numr
Substitution2: "'sups' Superscript lookup 31 subtable" zero.sups
Substitution2: "'sinf' Scientific Inferiors lookup 30 subtable" zero.sinf
Substitution2: "'subs' Subscript lookup 29 subtable" zero.subs
AlternateSubs2: "'aalt' Access All Alternates lookup 1 subtable" zero.subs zero.sinf zero.sups zero.numr zero.dnom zero.tf zero.osf
EndChar

StartChar: one
Encoding: 49 49 22
Width: 361
GlyphClass: 1
Flags: W
LayerCount: 2
Fore
SplineSet
174 0 m 1,0,-1
 174 670 l 1,1,-1
 206 636 l 1,2,-1
 9 636 l 1,3,-1
 9 700 l 1,4,-1
 246 700 l 1,5,-1
 246 0 l 1,6,-1
 174 0 l 1,0,-1
EndSplineSet
Substitution2: "'onum' Oldstyle Figures lookup 44 subtable" one.osf
Substitution2: "'tnum' Tabular Numbers lookup 43 subtable" one.tf
Substitution2: "'frac' Diagonal Fractions lookup 35 subtable" one.numr
Substitution2: "'dnom' Denominators lookup 33 subtable" one.dnom
Substitution2: "'numr' Numerators lookup 32 subtable" one.numr
Substitution2: "'sups' Superscript lookup 31 subtable" one.sups
Substitution2: "'sinf' Scientific Inferiors lookup 30 subtable" one.sinf
Substitution2: "'subs' Subscript lookup 29 subtable" one.subs
AlternateSubs2: "'aalt' Access All Alternates lookup 1 subtable" one.subs one.sinf one.sups one.numr one.dnom one.tf one.osf
EndChar

StartChar: two
Encoding: 50 50 23
Width: 568
GlyphClass: 1
Flags: W
LayerCount: 2
Fore
SplineSet
39 0 m 1,0,-1
 39 51 l 1,1,-1
 330 336 l 2,2,3
 370 375 370 375 390 404.5 c 128,-1,4
 410 434 410 434 417 460 c 128,-1,5
 424 486 424 486 424 509 c 0,6,7
 424 570 424 570 382.5 605 c 128,-1,8
 341 640 341 640 260 640 c 0,9,10
 198 640 198 640 150.5 621 c 128,-1,11
 103 602 103 602 69 562 c 1,12,-1
 18 606 l 1,13,14
 59 654 59 654 123 680 c 128,-1,15
 187 706 187 706 266 706 c 0,16,17
 337 706 337 706 389 683.5 c 128,-1,18
 441 661 441 661 469.5 618 c 128,-1,19
 498 575 498 575 498 517 c 0,20,21
 498 483 498 483 488.5 450 c 128,-1,22
 479 417 479 417 454.5 380.5 c 128,-1,23
 430 344 430 344 383 298 c 2,24,-1
 116 36 l 1,25,-1
 96 64 l 1,26,-1
 530 64 l 1,27,-1
 530 0 l 1,28,-1
 39 0 l 1,0,-1
EndSplineSet
Validated: 5
Substitution2: "'onum' Oldstyle Figures lookup 44 subtable" two.osf
Substitution2: "'tnum' Tabular Numbers lookup 43 subtable" two.tf
Substitution2: "'frac' Diagonal Fractions lookup 35 subtable" two.numr
Substitution2: "'dnom' Denominators lookup 33 subtable" two.dnom
Substitution2: "'numr' Numerators lookup 32 subtable" two.numr
Substitution2: "'sups' Superscript lookup 31 subtable" two.sups
Substitution2: "'sinf' Scientific Inferiors lookup 30 subtable" two.sinf
Substitution2: "'subs' Subscript lookup 29 subtable" two.subs
AlternateSubs2: "'aalt' Access All Alternates lookup 1 subtable" two.subs two.sinf two.sups two.numr two.dnom two.tf two.osf
EndChar

StartChar: three
Encoding: 51 51 24
Width: 564
GlyphClass: 1
Flags: W
LayerCount: 2
Fore
SplineSet
261 -6 m 0,0,1
 185 -6 185 -6 117.5 18.5 c 128,-1,2
 50 43 50 43 9 84 c 1,3,-1
 44 141 l 1,4,5
 78 106 78 106 135.5 83 c 128,-1,6
 193 60 193 60 261 60 c 0,7,8
 348 60 348 60 394.5 98 c 128,-1,9
 441 136 441 136 441 200 c 256,10,11
 441 264 441 264 395.5 302 c 128,-1,12
 350 340 350 340 252 340 c 2,13,-1
 202 340 l 1,14,-1
 202 393 l 1,15,-1
 418 664 l 1,16,-1
 428 636 l 1,17,-1
 38 636 l 1,18,-1
 38 700 l 1,19,-1
 488 700 l 1,20,-1
 488 649 l 1,21,-1
 272 378 l 1,22,-1
 237 401 l 1,23,-1
 264 401 l 2,24,25
 390 401 390 401 452.5 345 c 128,-1,26
 515 289 515 289 515 201 c 0,27,28
 515 142 515 142 487 95 c 128,-1,29
 459 48 459 48 402.5 21 c 128,-1,30
 346 -6 346 -6 261 -6 c 0,0,1
EndSplineSet
Validated: 5
Substitution2: "'onum' Oldstyle Figures lookup 44 subtable" three.osf
Substitution2: "'tnum' Tabular Numbers lookup 43 subtable" three.tf
Substitution2: "'frac' Diagonal Fractions lookup 35 subtable" three.numr
Substitution2: "'dnom' Denominators lookup 33 subtable" three.dnom
Substitution2: "'numr' Numerators lookup 32 subtable" three.numr
Substitution2: "'sups' Superscript lookup 31 subtable" three.sups
Substitution2: "'sinf' Scientific Inferiors lookup 30 subtable" three.sinf
Substitution2: "'subs' Subscript lookup 29 subtable" three.subs
AlternateSubs2: "'aalt' Access All Alternates lookup 1 subtable" three.subs three.sinf three.sups three.numr three.dnom three.tf three.osf
EndChar

StartChar: four
Encoding: 52 52 25
Width: 661
GlyphClass: 1
Flags: W
LayerCount: 2
Fore
SplineSet
40 184 m 1,0,-1
 40 236 l 1,1,-1
 411 700 l 1,2,-1
 491 700 l 1,3,-1
 123 236 l 1,4,-1
 84 248 l 1,5,-1
 647 248 l 1,6,-1
 647 184 l 1,7,-1
 40 184 l 1,0,-1
435 0 m 1,8,-1
 435 184 l 1,9,-1
 437 248 l 1,10,-1
 437 410 l 1,11,-1
 507 410 l 1,12,-1
 507 0 l 1,13,-1
 435 0 l 1,8,-1
EndSplineSet
Validated: 5
Substitution2: "'onum' Oldstyle Figures lookup 44 subtable" four.osf
Substitution2: "'tnum' Tabular Numbers lookup 43 subtable" four.tf
Substitution2: "'frac' Diagonal Fractions lookup 35 subtable" four.numr
Substitution2: "'dnom' Denominators lookup 33 subtable" four.dnom
Substitution2: "'numr' Numerators lookup 32 subtable" four.numr
Substitution2: "'sups' Superscript lookup 31 subtable" four.sups
Substitution2: "'sinf' Scientific Inferiors lookup 30 subtable" four.sinf
Substitution2: "'subs' Subscript lookup 29 subtable" four.subs
AlternateSubs2: "'aalt' Access All Alternates lookup 1 subtable" four.subs four.sinf four.sups four.numr four.dnom four.tf four.osf
EndChar

StartChar: five
Encoding: 53 53 26
Width: 566
GlyphClass: 1
Flags: W
LayerCount: 2
Fore
SplineSet
273 -6 m 0,0,1
 198 -6 198 -6 130 18.5 c 128,-1,2
 62 43 62 43 22 84 c 1,3,-1
 57 141 l 1,4,5
 90 106 90 106 147.5 83 c 128,-1,6
 205 60 205 60 272 60 c 0,7,8
 361 60 361 60 407.5 99.5 c 128,-1,9
 454 139 454 139 454 203 c 0,10,11
 454 248 454 248 432.5 280.5 c 128,-1,12
 411 313 411 313 360 331 c 128,-1,13
 309 349 309 349 220 349 c 2,14,-1
 71 349 l 1,15,-1
 107 700 l 1,16,-1
 490 700 l 1,17,-1
 490 636 l 1,18,-1
 136 636 l 1,19,-1
 173 671 l 1,20,-1
 142 377 l 1,21,-1
 105 413 l 1,22,-1
 236 413 l 2,23,24
 342 413 342 413 406 387 c 128,-1,25
 470 361 470 361 498.5 314.5 c 128,-1,26
 527 268 527 268 527 206 c 0,27,28
 527 147 527 147 499 98.5 c 128,-1,29
 471 50 471 50 415 22 c 128,-1,30
 359 -6 359 -6 273 -6 c 0,0,1
EndSplineSet
Validated: 5
Substitution2: "'onum' Oldstyle Figures lookup 44 subtable" five.osf
Substitution2: "'tnum' Tabular Numbers lookup 43 subtable" five.tf
Substitution2: "'frac' Diagonal Fractions lookup 35 subtable" five.numr
Substitution2: "'dnom' Denominators lookup 33 subtable" five.dnom
Substitution2: "'numr' Numerators lookup 32 subtable" five.numr
Substitution2: "'sups' Superscript lookup 31 subtable" five.sups
Substitution2: "'sinf' Scientific Inferiors lookup 30 subtable" five.sinf
Substitution2: "'subs' Subscript lookup 29 subtable" five.subs
AlternateSubs2: "'aalt' Access All Alternates lookup 1 subtable" five.subs five.sinf five.sups five.numr five.dnom five.tf five.osf
EndChar

StartChar: six
Encoding: 54 54 27
Width: 609
GlyphClass: 1
Flags: W
LayerCount: 2
Fore
SplineSet
339 -6 m 0,0,1
 246 -6 246 -6 182 35.5 c 128,-1,2
 118 77 118 77 85 155.5 c 128,-1,3
 52 234 52 234 52 344 c 0,4,5
 52 463 52 463 92.5 543.5 c 128,-1,6
 133 624 133 624 205 665 c 128,-1,7
 277 706 277 706 372 706 c 0,8,9
 419 706 419 706 462 697 c 128,-1,10
 505 688 505 688 538 668 c 1,11,-1
 509 610 l 1,12,13
 482 628 482 628 447 635.5 c 128,-1,14
 412 643 412 643 373 643 c 0,15,16
 260 643 260 643 192.5 571 c 128,-1,17
 125 499 125 499 125 356 c 0,18,19
 125 334 125 334 127.5 301.5 c 128,-1,20
 130 269 130 269 139 237 c 1,21,-1
 114 256 l 1,22,23
 125 308 125 308 157 344.5 c 128,-1,24
 189 381 189 381 237 400 c 128,-1,25
 285 419 285 419 342 419 c 0,26,27
 412 419 412 419 465 393 c 128,-1,28
 518 367 518 367 548 320 c 128,-1,29
 578 273 578 273 578 209 c 0,30,31
 578 144 578 144 547 95.5 c 128,-1,32
 516 47 516 47 461.5 20.5 c 128,-1,33
 407 -6 407 -6 339 -6 c 0,0,1
336 55 m 0,34,35
 386 55 386 55 424.5 73.5 c 128,-1,36
 463 92 463 92 485 126.5 c 128,-1,37
 507 161 507 161 507 207 c 0,38,39
 507 276 507 276 459.5 317 c 128,-1,40
 412 358 412 358 331 358 c 0,41,42
 277 358 277 358 237 338 c 128,-1,43
 197 318 197 318 174 283.5 c 128,-1,44
 151 249 151 249 151 205 c 0,45,46
 151 167 151 167 172 132.5 c 128,-1,47
 193 98 193 98 234.5 76.5 c 128,-1,48
 276 55 276 55 336 55 c 0,34,35
EndSplineSet
Validated: 9
Substitution2: "'onum' Oldstyle Figures lookup 44 subtable" six.osf
Substitution2: "'tnum' Tabular Numbers lookup 43 subtable" six.tf
Substitution2: "'frac' Diagonal Fractions lookup 35 subtable" six.numr
Substitution2: "'dnom' Denominators lookup 33 subtable" six.dnom
Substitution2: "'numr' Numerators lookup 32 subtable" six.numr
Substitution2: "'sups' Superscript lookup 31 subtable" six.sups
Substitution2: "'sinf' Scientific Inferiors lookup 30 subtable" six.sinf
Substitution2: "'subs' Subscript lookup 29 subtable" six.subs
AlternateSubs2: "'aalt' Access All Alternates lookup 1 subtable" six.subs six.sinf six.sups six.numr six.dnom six.tf six.osf
EndChar

StartChar: seven
Encoding: 55 55 28
Width: 589
GlyphClass: 1
Flags: W
LayerCount: 2
Fore
SplineSet
175 0 m 1,0,-1
 477 668 l 1,1,-1
 499 636 l 1,2,-1
 66 636 l 1,3,-1
 103 671 l 1,4,-1
 103 505 l 1,5,-1
 32 505 l 1,6,-1
 32 700 l 1,7,-1
 546 700 l 1,8,-1
 546 649 l 1,9,-1
 253 0 l 1,10,-1
 175 0 l 1,0,-1
EndSplineSet
Validated: 5
Substitution2: "'onum' Oldstyle Figures lookup 44 subtable" seven.osf
Substitution2: "'tnum' Tabular Numbers lookup 43 subtable" seven.tf
Substitution2: "'frac' Diagonal Fractions lookup 35 subtable" seven.numr
Substitution2: "'dnom' Denominators lookup 33 subtable" seven.dnom
Substitution2: "'numr' Numerators lookup 32 subtable" seven.numr
Substitution2: "'sups' Superscript lookup 31 subtable" seven.sups
Substitution2: "'sinf' Scientific Inferiors lookup 30 subtable" seven.sinf
Substitution2: "'subs' Subscript lookup 29 subtable" seven.subs
AlternateSubs2: "'aalt' Access All Alternates lookup 1 subtable" seven.subs seven.sinf seven.sups seven.numr seven.dnom seven.tf seven.osf
EndChar

StartChar: eight
Encoding: 56 56 29
Width: 638
GlyphClass: 1
Flags: W
LayerCount: 2
Fore
SplineSet
318 -6 m 256,0,1
 234 -6 234 -6 173.5 18 c 128,-1,2
 113 42 113 42 80.5 87.5 c 128,-1,3
 48 133 48 133 48 195 c 0,4,5
 48 255 48 255 79.5 297.5 c 128,-1,6
 111 340 111 340 171.5 363 c 128,-1,7
 232 386 232 386 318 386 c 0,8,9
 403 386 403 386 464 363 c 128,-1,10
 525 340 525 340 557.5 297.5 c 128,-1,11
 590 255 590 255 590 195 c 0,12,13
 590 133 590 133 557 87.5 c 128,-1,14
 524 42 524 42 463 18 c 128,-1,15
 402 -6 402 -6 318 -6 c 256,0,1
318 55 m 256,16,17
 411 55 411 55 463.5 93 c 128,-1,18
 516 131 516 131 516 196 c 256,19,20
 516 261 516 261 463.5 298.5 c 128,-1,21
 411 336 411 336 318 336 c 256,22,23
 225 336 225 336 173 298.5 c 128,-1,24
 121 261 121 261 121 196 c 256,25,26
 121 131 121 131 173 93 c 128,-1,27
 225 55 225 55 318 55 c 256,16,17
318 393 m 256,28,29
 400 393 400 393 446 427 c 128,-1,30
 492 461 492 461 492 518 c 0,31,32
 492 578 492 578 444.5 611.5 c 128,-1,33
 397 645 397 645 318 645 c 256,34,35
 239 645 239 645 192 611.5 c 128,-1,36
 145 578 145 578 145 519 c 0,37,38
 145 461 145 461 190.5 427 c 128,-1,39
 236 393 236 393 318 393 c 256,28,29
318 345 m 256,40,41
 240 345 240 345 185.5 366 c 128,-1,42
 131 387 131 387 102 426.5 c 128,-1,43
 73 466 73 466 73 521 c 0,44,45
 73 579 73 579 103.5 620.5 c 128,-1,46
 134 662 134 662 189 684 c 128,-1,47
 244 706 244 706 318 706 c 256,48,49
 392 706 392 706 447.5 684 c 128,-1,50
 503 662 503 662 534 620.5 c 128,-1,51
 565 579 565 579 565 521 c 0,52,53
 565 466 565 466 536 426.5 c 128,-1,54
 507 387 507 387 451.5 366 c 128,-1,55
 396 345 396 345 318 345 c 256,40,41
EndSplineSet
Validated: 9
Substitution2: "'onum' Oldstyle Figures lookup 44 subtable" eight.osf
Substitution2: "'tnum' Tabular Numbers lookup 43 subtable" eight.tf
Substitution2: "'frac' Diagonal Fractions lookup 35 subtable" eight.numr
Substitution2: "'dnom' Denominators lookup 33 subtable" eight.dnom
Substitution2: "'numr' Numerators lookup 32 subtable" eight.numr
Substitution2: "'sups' Superscript lookup 31 subtable" eight.sups
Substitution2: "'sinf' Scientific Inferiors lookup 30 subtable" eight.sinf
Substitution2: "'subs' Subscript lookup 29 subtable" eight.subs
AlternateSubs2: "'aalt' Access All Alternates lookup 1 subtable" eight.subs eight.sinf eight.sups eight.numr eight.dnom eight.tf eight.osf
EndChar

StartChar: nine
Encoding: 57 57 30
Width: 609
GlyphClass: 1
Flags: W
LayerCount: 2
Fore
SplineSet
237 -6 m 0,0,1
 190 -6 190 -6 147.5 3 c 128,-1,2
 105 12 105 12 71 32 c 1,3,-1
 100 90 l 1,4,5
 127 72 127 72 162.5 64.5 c 128,-1,6
 198 57 198 57 236 57 c 0,7,8
 349 57 349 57 416.5 129 c 128,-1,9
 484 201 484 201 484 344 c 0,10,11
 484 367 484 367 481.5 399 c 128,-1,12
 479 431 479 431 470 463 c 1,13,-1
 495 444 l 1,14,15
 485 392 485 392 452.5 355.5 c 128,-1,16
 420 319 420 319 372.5 300 c 128,-1,17
 325 281 325 281 267 281 c 0,18,19
 198 281 198 281 144.5 307 c 128,-1,20
 91 333 91 333 61 380 c 128,-1,21
 31 427 31 427 31 491 c 0,22,23
 31 557 31 557 62 605 c 128,-1,24
 93 653 93 653 147.5 679.5 c 128,-1,25
 202 706 202 706 270 706 c 0,26,27
 363 706 363 706 427 664.5 c 128,-1,28
 491 623 491 623 524 545 c 128,-1,29
 557 467 557 467 557 356 c 0,30,31
 557 238 557 238 516.5 157 c 128,-1,32
 476 76 476 76 404 35 c 128,-1,33
 332 -6 332 -6 237 -6 c 0,0,1
278 342 m 0,34,35
 332 342 332 342 372.5 362 c 128,-1,36
 413 382 413 382 435.5 417 c 128,-1,37
 458 452 458 452 458 495 c 0,38,39
 458 534 458 534 437 568 c 128,-1,40
 416 602 416 602 375 623.5 c 128,-1,41
 334 645 334 645 273 645 c 0,42,43
 223 645 223 645 184.5 626.5 c 128,-1,44
 146 608 146 608 124 574 c 128,-1,45
 102 540 102 540 102 493 c 0,46,47
 102 424 102 424 149.5 383 c 128,-1,48
 197 342 197 342 278 342 c 0,34,35
EndSplineSet
Validated: 9
Substitution2: "'onum' Oldstyle Figures lookup 44 subtable" nine.osf
Substitution2: "'tnum' Tabular Numbers lookup 43 subtable" nine.tf
Substitution2: "'frac' Diagonal Fractions lookup 35 subtable" nine.numr
Substitution2: "'dnom' Denominators lookup 33 subtable" nine.dnom
Substitution2: "'numr' Numerators lookup 32 subtable" nine.numr
Substitution2: "'sups' Superscript lookup 31 subtable" nine.sups
Substitution2: "'sinf' Scientific Inferiors lookup 30 subtable" nine.sinf
Substitution2: "'subs' Subscript lookup 29 subtable" nine.subs
AlternateSubs2: "'aalt' Access All Alternates lookup 1 subtable" nine.subs nine.sinf nine.sups nine.numr nine.dnom nine.tf nine.osf
EndChar

StartChar: less
Encoding: 60 60 33
Width: 575
GlyphClass: 1
Flags: W
LayerCount: 2
Fore
SplineSet
505 143 m 1,0,-1
 70 317 l 1,1,-1
 70 383 l 1,2,-1
 505 557 l 1,3,-1
 505 495 l 1,4,-1
 96 334 l 1,5,-1
 96 366 l 1,6,-1
 505 205 l 1,7,-1
 505 143 l 1,0,-1
EndSplineSet
Validated: 5
EndChar

StartChar: equal
Encoding: 61 61 34
Width: 575
GlyphClass: 1
Flags: W
LayerCount: 2
Fore
SplineSet
70 436 m 1,0,-1
 70 495 l 1,1,-1
 505 495 l 1,2,-1
 505 436 l 1,3,-1
 70 436 l 1,0,-1
70 205 m 1,4,-1
 70 264 l 1,5,-1
 505 264 l 1,6,-1
 505 205 l 1,7,-1
 70 205 l 1,4,-1
EndSplineSet
Validated: 1
EndChar

StartChar: greater
Encoding: 62 62 35
Width: 575
GlyphClass: 1
Flags: W
LayerCount: 2
Fore
SplineSet
70 143 m 1,0,-1
 70 205 l 1,1,-1
 479 366 l 1,2,-1
 479 334 l 1,3,-1
 70 495 l 1,4,-1
 70 557 l 1,5,-1
 505 383 l 1,6,-1
 505 317 l 1,7,-1
 70 143 l 1,0,-1
EndSplineSet
Validated: 5
EndChar

StartChar: question
Encoding: 63 63 36
Width: 567
GlyphClass: 1
Flags: W
LayerCount: 2
Fore
SplineSet
235 210 m 1,0,1
 235 252 235 252 248.5 282 c 128,-1,2
 262 312 262 312 282.5 335 c 128,-1,3
 303 358 303 358 326.5 378 c 128,-1,4
 350 398 350 398 371 418.5 c 128,-1,5
 392 439 392 439 405 463.5 c 128,-1,6
 418 488 418 488 418 521 c 0,7,8
 418 575 418 575 376 609 c 128,-1,9
 334 643 334 643 257 643 c 0,10,11
 193 643 193 643 146 622.5 c 128,-1,12
 99 602 99 602 66 562 c 1,13,-1
 13 602 l 1,14,15
 53 652 53 652 116 679 c 128,-1,16
 179 706 179 706 262 706 c 0,17,18
 332 706 332 706 383.5 685 c 128,-1,19
 435 664 435 664 463.5 625 c 128,-1,20
 492 586 492 586 492 532 c 0,21,22
 492 489 492 489 478.5 458.5 c 128,-1,23
 465 428 465 428 444.5 404.5 c 128,-1,24
 424 381 424 381 400.5 360.5 c 128,-1,25
 377 340 377 340 356 319 c 128,-1,26
 335 298 335 298 322 272 c 128,-1,27
 309 246 309 246 309 210 c 1,28,-1
 235 210 l 1,0,1
272 -5 m 0,29,30
 251 -5 251 -5 235.5 10.5 c 128,-1,31
 220 26 220 26 220 47 c 0,32,33
 220 69 220 69 235.5 83.5 c 128,-1,34
 251 98 251 98 272 98 c 0,35,36
 295 98 295 98 310 83.5 c 128,-1,37
 325 69 325 69 325 47 c 0,38,39
 325 26 325 26 310 10.5 c 128,-1,40
 295 -5 295 -5 272 -5 c 0,29,30
EndSplineSet
Validated: 1
Substitution2: "'smcp' Lowercase to Small Capitals lookup 46 subtable" question.sc
Substitution2: "'c2sc' Capitals to Small Capitals lookup 45 subtable" question.sc
Substitution2: "'aalt' Access All Alternates lookup 0 subtable" question.sc
EndChar

StartChar: at
Encoding: 64 64 37
Width: 1033
GlyphClass: 1
Flags: W
LayerCount: 2
Fore
SplineSet
515 -200 m 0,0,1
 412 -200 412 -200 327 -166.5 c 128,-1,2
 242 -133 242 -133 180.5 -72.5 c 128,-1,3
 119 -12 119 -12 85.5 71.5 c 128,-1,4
 52 155 52 155 52 254 c 0,5,6
 52 354 52 354 85.5 436.5 c 128,-1,7
 119 519 119 519 181.5 579.5 c 128,-1,8
 244 640 244 640 330 673 c 128,-1,9
 416 706 416 706 519 706 c 0,10,11
 621 706 621 706 705.5 674 c 128,-1,12
 790 642 790 642 852 583.5 c 128,-1,13
 914 525 914 525 947.5 444 c 128,-1,14
 981 363 981 363 981 265 c 0,15,16
 981 181 981 181 961.5 120.5 c 128,-1,17
 942 60 942 60 905 27.5 c 128,-1,18
 868 -5 868 -5 816 -5 c 0,19,20
 765 -5 765 -5 734 26 c 128,-1,21
 703 57 703 57 703 113 c 2,22,-1
 703 192 l 1,23,-1
 711 256 l 1,24,-1
 701 356 l 1,25,-1
 701 507 l 1,26,-1
 766 507 l 1,27,-1
 766 128 l 2,28,29
 766 86 766 86 784 69 c 128,-1,30
 802 52 802 52 828 52 c 0,31,32
 859 52 859 52 882 77 c 128,-1,33
 905 102 905 102 917.5 149.5 c 128,-1,34
 930 197 930 197 930 264 c 0,35,36
 930 352 930 352 900 424 c 128,-1,37
 870 496 870 496 815 548 c 128,-1,38
 760 600 760 600 685 627.5 c 128,-1,39
 610 655 610 655 519 655 c 256,40,41
 428 655 428 655 352 626 c 128,-1,42
 276 597 276 597 221.5 543.5 c 128,-1,43
 167 490 167 490 137 416.5 c 128,-1,44
 107 343 107 343 107 254 c 256,45,46
 107 165 107 165 136.5 91 c 128,-1,47
 166 17 166 17 220 -36.5 c 128,-1,48
 274 -90 274 -90 349 -119.5 c 128,-1,49
 424 -149 424 -149 515 -149 c 0,50,51
 560 -149 560 -149 611.5 -138 c 128,-1,52
 663 -127 663 -127 707 -105 c 1,53,-1
 724 -154 l 1,54,55
 679 -177 679 -177 622 -188.5 c 128,-1,56
 565 -200 565 -200 515 -200 c 0,0,1
503 -5 m 0,57,58
 432 -5 432 -5 376 28.5 c 128,-1,59
 320 62 320 62 287.5 120.5 c 128,-1,60
 255 179 255 179 255 254 c 256,61,62
 255 329 255 329 287.5 387 c 128,-1,63
 320 445 320 445 376 478 c 128,-1,64
 432 511 432 511 503 511 c 0,65,66
 572 511 572 511 625.5 480 c 128,-1,67
 679 449 679 449 709.5 391.5 c 128,-1,68
 740 334 740 334 740 254 c 256,69,70
 740 174 740 174 709.5 116 c 128,-1,71
 679 58 679 58 626 26.5 c 128,-1,72
 573 -5 573 -5 503 -5 c 0,57,58
512 53 m 0,73,74
 566 53 566 53 609.5 78 c 128,-1,75
 653 103 653 103 677.5 148.5 c 128,-1,76
 702 194 702 194 702 254 c 0,77,78
 702 315 702 315 677.5 359.5 c 128,-1,79
 653 404 653 404 609.5 428.5 c 128,-1,80
 566 453 566 453 512 453 c 0,81,82
 456 453 456 453 413 428.5 c 128,-1,83
 370 404 370 404 345.5 359 c 128,-1,84
 321 314 321 314 321 254 c 256,85,86
 321 194 321 194 345.5 149 c 128,-1,87
 370 104 370 104 413 78.5 c 128,-1,88
 456 53 456 53 512 53 c 0,73,74
EndSplineSet
Validated: 5
Substitution2: "'case' Case-Sensitive Forms lookup 47 subtable" at.case
Substitution2: "'aalt' Access All Alternates lookup 0 subtable" at.case
EndChar

StartChar: A
Encoding: 65 65 38
Width: 717
GlyphClass: 2
Flags: W
AnchorPoint: "Anchor-3" 359 700 basechar 0
AnchorPoint: "Anchor-2" 715 0 basechar 0
AnchorPoint: "Anchor-0" 359 0 basechar 0
LayerCount: 2
Fore
SplineSet
2 0 m 1,0,-1
 322 700 l 1,1,-1
 395 700 l 1,2,-1
 715 0 l 1,3,-1
 637 0 l 1,4,-1
 343 657 l 1,5,-1
 373 657 l 1,6,-1
 79 0 l 1,7,-1
 2 0 l 1,0,-1
128 187 m 1,8,-1
 150 247 l 1,9,-1
 557 247 l 1,10,-1
 579 187 l 1,11,-1
 128 187 l 1,8,-1
EndSplineSet
Validated: 5
Substitution2: "'ss01' Style Set 1 lookup 50 subtable" A.ss01
Substitution2: "'c2sc' Capitals to Small Capitals lookup 45 subtable" a.sc
Substitution2: "Single Substitution lookup 39 subtable" ordfeminine
AlternateSubs2: "'aalt' Access All Alternates lookup 1 subtable" ordfeminine a.sc A.ss01
EndChar

StartChar: B
Encoding: 66 66 39
Width: 754
GlyphClass: 2
Flags: W
AnchorPoint: "Anchor-3" 378 700 basechar 0
AnchorPoint: "Anchor-0" 378 0 basechar 0
LayerCount: 2
Fore
SplineSet
114 0 m 1,0,-1
 114 700 l 1,1,-1
 416 700 l 2,2,3
 533 700 533 700 597.5 653 c 128,-1,4
 662 606 662 606 662 520 c 0,5,6
 662 463 662 463 635.5 424 c 128,-1,7
 609 385 609 385 563.5 365 c 128,-1,8
 518 345 518 345 464 345 c 1,9,-1
 481 369 l 1,10,11
 548 369 548 369 596.5 348.5 c 128,-1,12
 645 328 645 328 672 287.5 c 128,-1,13
 699 247 699 247 699 187 c 0,14,15
 699 98 699 98 633.5 49 c 128,-1,16
 568 0 568 0 436 0 c 2,17,-1
 114 0 l 1,0,-1
188 61 m 1,18,-1
 435 61 l 2,19,20
 527 61 527 61 576 92.5 c 128,-1,21
 625 124 625 124 625 193 c 0,22,23
 625 261 625 261 576 292.5 c 128,-1,24
 527 324 527 324 435 324 c 2,25,-1
 180 324 l 1,26,-1
 180 385 l 1,27,-1
 411 385 l 2,28,29
 495 385 495 385 541.5 417 c 128,-1,30
 588 449 588 449 588 512 c 0,31,32
 588 576 588 576 541.5 607.5 c 128,-1,33
 495 639 495 639 411 639 c 2,34,-1
 188 639 l 1,35,-1
 188 61 l 1,18,-1
EndSplineSet
Validated: 5
Substitution2: "'c2sc' Capitals to Small Capitals lookup 45 subtable" b.sc
Substitution2: "'aalt' Access All Alternates lookup 0 subtable" b.sc
EndChar

StartChar: C
Encoding: 67 67 40
Width: 709
GlyphClass: 2
Flags: W
AnchorPoint: "Anchor-3" 412 700 basechar 0
AnchorPoint: "Anchor-1" 146 357 basechar 0
AnchorPoint: "Anchor-0" 412 0 basechar 0
LayerCount: 2
Fore
SplineSet
418 -6 m 0,0,1
 339 -6 339 -6 272 20.5 c 128,-1,2
 205 47 205 47 156 95 c 128,-1,3
 107 143 107 143 79.5 208 c 128,-1,4
 52 273 52 273 52 350 c 256,5,6
 52 427 52 427 79.5 492 c 128,-1,7
 107 557 107 557 156.5 605 c 128,-1,8
 206 653 206 653 273 679.5 c 128,-1,9
 340 706 340 706 419 706 c 0,10,11
 495 706 495 706 562 680.5 c 128,-1,12
 629 655 629 655 675 604 c 1,13,-1
 628 557 l 1,14,15
 585 601 585 601 533 620.5 c 128,-1,16
 481 640 481 640 421 640 c 0,17,18
 358 640 358 640 304 618.5 c 128,-1,19
 250 597 250 597 210 557.5 c 128,-1,20
 170 518 170 518 147.5 465.5 c 128,-1,21
 125 413 125 413 125 350 c 256,22,23
 125 287 125 287 147.5 234.5 c 128,-1,24
 170 182 170 182 210 142.5 c 128,-1,25
 250 103 250 103 304 81.5 c 128,-1,26
 358 60 358 60 421 60 c 0,27,28
 481 60 481 60 533 80 c 128,-1,29
 585 100 585 100 628 144 c 1,30,-1
 675 97 l 1,31,32
 629 46 629 46 562 20 c 128,-1,33
 495 -6 495 -6 418 -6 c 0,0,1
EndSplineSet
Validated: 1
Substitution2: "'c2sc' Capitals to Small Capitals lookup 45 subtable" c.sc
Substitution2: "'aalt' Access All Alternates lookup 0 subtable" c.sc
EndChar

StartChar: D
Encoding: 68 68 41
Width: 826
GlyphClass: 2
Flags: W
AnchorPoint: "Anchor-3" 383 700 basechar 0
AnchorPoint: "Anchor-1" 202 358 basechar 0
AnchorPoint: "Anchor-0" 387 0 basechar 0
LayerCount: 2
Fore
SplineSet
114 0 m 1,0,-1
 114 700 l 1,1,-1
 399 700 l 2,2,3
 511 700 511 700 595.5 655.5 c 128,-1,4
 680 611 680 611 727 532 c 128,-1,5
 774 453 774 453 774 350 c 256,6,7
 774 247 774 247 727 168 c 128,-1,8
 680 89 680 89 595.5 44.5 c 128,-1,9
 511 0 511 0 399 0 c 2,10,-1
 114 0 l 1,0,-1
188 64 m 1,11,-1
 395 64 l 2,12,13
 488 64 488 64 556.5 100.5 c 128,-1,14
 625 137 625 137 663 201.5 c 128,-1,15
 701 266 701 266 701 350 c 0,16,17
 701 435 701 435 663 499 c 128,-1,18
 625 563 625 563 556.5 599.5 c 128,-1,19
 488 636 488 636 395 636 c 2,20,-1
 188 636 l 1,21,-1
 188 64 l 1,11,-1
EndSplineSet
Validated: 1
Substitution2: "'c2sc' Capitals to Small Capitals lookup 45 subtable" d.sc
Substitution2: "'aalt' Access All Alternates lookup 0 subtable" d.sc
EndChar

StartChar: E
Encoding: 69 69 42
Width: 669
GlyphClass: 2
Flags: W
AnchorPoint: "Anchor-3" 354 700 basechar 0
AnchorPoint: "Anchor-2" 609 0 basechar 0
AnchorPoint: "Anchor-0" 354 0 basechar 0
LayerCount: 2
Fore
SplineSet
114 0 m 1,0,-1
 114 700 l 1,1,-1
 594 700 l 1,2,-1
 594 636 l 1,3,-1
 188 636 l 1,4,-1
 188 64 l 1,5,-1
 609 64 l 1,6,-1
 609 0 l 1,7,-1
 114 0 l 1,0,-1
180 324 m 1,8,-1
 180 387 l 1,9,-1
 550 387 l 1,10,-1
 550 324 l 1,11,-1
 180 324 l 1,8,-1
EndSplineSet
Validated: 5
Substitution2: "'ss01' Style Set 1 lookup 50 subtable" E.ss01
Substitution2: "'c2sc' Capitals to Small Capitals lookup 45 subtable" e.sc
AlternateSubs2: "'aalt' Access All Alternates lookup 1 subtable" e.sc E.ss01
EndChar

StartChar: F
Encoding: 70 70 43
Width: 633
GlyphClass: 2
Flags: W
AnchorPoint: "Anchor-3" 352 700 basechar 0
AnchorPoint: "Anchor-0" 352 0 basechar 0
LayerCount: 2
Fore
SplineSet
114 0 m 1,0,-1
 114 700 l 1,1,-1
 594 700 l 1,2,-1
 594 636 l 1,3,-1
 188 636 l 1,4,-1
 188 0 l 1,5,-1
 114 0 l 1,0,-1
180 297 m 1,6,-1
 180 361 l 1,7,-1
 550 361 l 1,8,-1
 550 297 l 1,9,-1
 180 297 l 1,6,-1
EndSplineSet
Validated: 5
Substitution2: "'ss01' Style Set 1 lookup 50 subtable" F.ss01
Substitution2: "'c2sc' Capitals to Small Capitals lookup 45 subtable" f.sc
AlternateSubs2: "'aalt' Access All Alternates lookup 1 subtable" f.sc F.ss01
EndChar

StartChar: G
Encoding: 71 71 44
Width: 773
GlyphClass: 2
Flags: W
AnchorPoint: "Anchor-3" 408 700 basechar 0
AnchorPoint: "Anchor-0" 404 0 basechar 0
LayerCount: 2
Fore
SplineSet
421 -6 m 0,0,1
 341 -6 341 -6 273.5 20.5 c 128,-1,2
 206 47 206 47 156.5 95 c 128,-1,3
 107 143 107 143 79.5 208 c 128,-1,4
 52 273 52 273 52 350 c 256,5,6
 52 427 52 427 79.5 492 c 128,-1,7
 107 557 107 557 157 605 c 128,-1,8
 207 653 207 653 274.5 679.5 c 128,-1,9
 342 706 342 706 422 706 c 256,10,11
 502 706 502 706 568.5 681 c 128,-1,12
 635 656 635 656 682 605 c 1,13,-1
 636 558 l 1,14,15
 592 602 592 602 539 621 c 128,-1,16
 486 640 486 640 425 640 c 0,17,18
 360 640 360 640 305.5 618.5 c 128,-1,19
 251 597 251 597 210.5 557.5 c 128,-1,20
 170 518 170 518 147.5 465.5 c 128,-1,21
 125 413 125 413 125 350 c 0,22,23
 125 288 125 288 147.5 235 c 128,-1,24
 170 182 170 182 210.5 142.5 c 128,-1,25
 251 103 251 103 305.5 81.5 c 128,-1,26
 360 60 360 60 424 60 c 0,27,28
 484 60 484 60 537.5 78 c 128,-1,29
 591 96 591 96 636 139 c 1,30,-1
 678 83 l 1,31,32
 628 39 628 39 561 16.5 c 128,-1,33
 494 -6 494 -6 421 -6 c 0,0,1
678 83 m 1,34,-1
 607 92 l 1,35,-1
 607 350 l 1,36,-1
 678 350 l 1,37,-1
 678 83 l 1,34,-1
EndSplineSet
Validated: 5
Substitution2: "'ss01' Style Set 1 lookup 50 subtable" G.ss01
Substitution2: "'c2sc' Capitals to Small Capitals lookup 45 subtable" g.sc
AlternateSubs2: "'aalt' Access All Alternates lookup 1 subtable" g.sc G.ss01
EndChar

StartChar: H
Encoding: 72 72 45
Width: 813
GlyphClass: 2
Flags: W
AnchorPoint: "Anchor-3" 406 700 basechar 0
AnchorPoint: "Anchor-1" 407 543 basechar 0
AnchorPoint: "Anchor-0" 406 0 basechar 0
LayerCount: 2
Fore
SplineSet
626 0 m 1,0,-1
 626 700 l 1,1,-1
 699 700 l 1,2,-1
 699 0 l 1,3,-1
 626 0 l 1,0,-1
114 0 m 1,4,-1
 114 700 l 1,5,-1
 188 700 l 1,6,-1
 188 0 l 1,7,-1
 114 0 l 1,4,-1
180 323 m 1,8,-1
 180 388 l 1,9,-1
 633 388 l 1,10,-1
 633 323 l 1,11,-1
 180 323 l 1,8,-1
EndSplineSet
Validated: 5
Substitution2: "'c2sc' Capitals to Small Capitals lookup 45 subtable" h.sc
Substitution2: "'aalt' Access All Alternates lookup 0 subtable" h.sc
EndChar

StartChar: I
Encoding: 73 73 46
Width: 298
GlyphClass: 2
Flags: W
AnchorPoint: "Anchor-3" 147 700 basechar 0
AnchorPoint: "Anchor-2" 184 0 basechar 0
AnchorPoint: "Anchor-1" 147 350 basechar 0
AnchorPoint: "Anchor-0" 147 0 basechar 0
LayerCount: 2
Fore
SplineSet
36 59 m 1,0,-1
 258 59 l 1,1,-1
 258 0 l 1,2,-1
 36 0 l 1,3,-1
 36 59 l 1,0,-1
32 691.5 m 1,4,-1
 254 691.5 l 1,5,-1
 254 632.5 l 1,6,-1
 32 632.5 l 1,7,-1
 32 691.5 l 1,4,-1
110 10 m 1,8,-1
 110 690 l 1,9,-1
 184 690 l 1,10,-1
 184 10 l 1,11,-1
 110 10 l 1,8,-1
EndSplineSet
Validated: 5
Substitution2: "'ss01' Style Set 1 lookup 50 subtable" I.ss01
Substitution2: "'c2sc' Capitals to Small Capitals lookup 45 subtable" i.sc
AlternateSubs2: "'aalt' Access All Alternates lookup 1 subtable" i.sc I.ss01
EndChar

StartChar: J
Encoding: 74 74 47
Width: 501
GlyphClass: 2
Flags: W
AnchorPoint: "Anchor-3" 229 700 basechar 0
LayerCount: 2
Fore
SplineSet
189 -6 m 0,0,1
 130 -6 130 -6 78.5 20 c 128,-1,2
 27 46 27 46 -4 94 c 1,3,-1
 39 144 l 1,4,5
 68 102 68 102 106 80 c 128,-1,6
 144 58 144 58 190 58 c 0,7,8
 320 58 320 58 320 212 c 2,9,-1
 320 636 l 1,10,-1
 64 636 l 1,11,-1
 64 700 l 1,12,-1
 393 700 l 1,13,-1
 393 215 l 2,14,15
 393 104 393 104 341.5 49 c 128,-1,16
 290 -6 290 -6 189 -6 c 0,0,1
EndSplineSet
Validated: 1
Substitution2: "'ss01' Style Set 1 lookup 50 subtable" J.ss01
Substitution2: "'c2sc' Capitals to Small Capitals lookup 45 subtable" j.sc
AlternateSubs2: "'aalt' Access All Alternates lookup 1 subtable" j.sc J.ss01
EndChar

StartChar: K
Encoding: 75 75 48
Width: 711
GlyphClass: 2
Flags: W
AnchorPoint: "Anchor-3" 373 700 basechar 0
AnchorPoint: "Anchor-0" 373 0 basechar 0
LayerCount: 2
Fore
SplineSet
178 174 m 1,0,-1
 175 264 l 1,1,-1
 599 700 l 1,2,-1
 684 700 l 1,3,-1
 375 376 l 1,4,-1
 333 331 l 1,5,-1
 178 174 l 1,0,-1
114 0 m 1,6,-1
 114 700 l 1,7,-1
 188 700 l 1,8,-1
 188 0 l 1,9,-1
 114 0 l 1,6,-1
617 0 m 1,10,-1
 315 348 l 1,11,-1
 365 402 l 1,12,-1
 705 0 l 1,13,-1
 617 0 l 1,10,-1
EndSplineSet
Validated: 5
Substitution2: "'c2sc' Capitals to Small Capitals lookup 45 subtable" k.sc
Substitution2: "'aalt' Access All Alternates lookup 0 subtable" k.sc
EndChar

StartChar: L
Encoding: 76 76 49
Width: 589
GlyphClass: 2
Flags: W
AnchorPoint: "Anchor-4" 440 700 basechar 0
AnchorPoint: "Anchor-3" 151 700 basechar 0
AnchorPoint: "Anchor-1" 151 357 basechar 0
AnchorPoint: "Anchor-0" 347 0 basechar 0
LayerCount: 2
Fore
SplineSet
114 0 m 1,0,-1
 114 700 l 1,1,-1
 188 700 l 1,2,-1
 188 64 l 1,3,-1
 580 64 l 1,4,-1
 580 0 l 1,5,-1
 114 0 l 1,0,-1
EndSplineSet
Validated: 1
Substitution2: "'c2sc' Capitals to Small Capitals lookup 45 subtable" l.sc
Substitution2: "'aalt' Access All Alternates lookup 0 subtable" l.sc
EndChar

StartChar: M
Encoding: 77 77 50
Width: 955
GlyphClass: 2
Flags: W
AnchorPoint: "Anchor-3" 477 700 basechar 0
AnchorPoint: "Anchor-0" 477 0 basechar 0
LayerCount: 2
Fore
SplineSet
114 0 m 1,0,-1
 114 700 l 1,1,-1
 175 700 l 1,2,-1
 495 154 l 1,3,-1
 463 154 l 1,4,-1
 780 700 l 1,5,-1
 841 700 l 1,6,-1
 841 0 l 1,7,-1
 770 0 l 1,8,-1
 770 589 l 1,9,-1
 787 589 l 1,10,-1
 495 89 l 1,11,-1
 460 89 l 1,12,-1
 166 589 l 1,13,-1
 185 589 l 1,14,-1
 185 0 l 1,15,-1
 114 0 l 1,0,-1
EndSplineSet
Validated: 5
Substitution2: "'ss01' Style Set 1 lookup 50 subtable" M.ss01
Substitution2: "'c2sc' Capitals to Small Capitals lookup 45 subtable" m.sc
AlternateSubs2: "'aalt' Access All Alternates lookup 1 subtable" m.sc M.ss01
EndChar

StartChar: N
Encoding: 78 78 51
Width: 813
GlyphClass: 2
Flags: W
AnchorPoint: "Anchor-3" 406 700 basechar 0
AnchorPoint: "Anchor-0" 406 0 basechar 0
LayerCount: 2
Fore
SplineSet
114 0 m 1,0,-1
 114 700 l 1,1,-1
 175 700 l 1,2,-1
 658 92 l 1,3,-1
 626 92 l 1,4,-1
 626 700 l 1,5,-1
 699 700 l 1,6,-1
 699 0 l 1,7,-1
 638 0 l 1,8,-1
 156 608 l 1,9,-1
 188 608 l 1,10,-1
 188 0 l 1,11,-1
 114 0 l 1,0,-1
EndSplineSet
Validated: 5
Substitution2: "'ss01' Style Set 1 lookup 50 subtable" N.ss01
Substitution2: "'c2sc' Capitals to Small Capitals lookup 45 subtable" n.sc
AlternateSubs2: "'aalt' Access All Alternates lookup 1 subtable" n.sc N.ss01
EndChar

StartChar: O
Encoding: 79 79 52
Width: 839
GlyphClass: 2
Flags: W
AnchorPoint: "Anchor-4" 648 700 basechar 0
AnchorPoint: "Anchor-3" 420 700 basechar 0
AnchorPoint: "Anchor-2" 488 0 basechar 0
AnchorPoint: "Anchor-1" 420 350 basechar 0
AnchorPoint: "Anchor-0" 420 0 basechar 0
LayerCount: 2
Fore
SplineSet
420 -6 m 256,0,1
 341 -6 341 -6 273.5 20.5 c 128,-1,2
 206 47 206 47 156.5 95.5 c 128,-1,3
 107 144 107 144 79.5 208.5 c 128,-1,4
 52 273 52 273 52 350 c 256,5,6
 52 427 52 427 79.5 491.5 c 128,-1,7
 107 556 107 556 156.5 604.5 c 128,-1,8
 206 653 206 653 273 679.5 c 128,-1,9
 340 706 340 706 420 706 c 0,10,11
 499 706 499 706 566 679.5 c 128,-1,12
 633 653 633 653 682.5 605 c 128,-1,13
 732 557 732 557 759.5 492 c 128,-1,14
 787 427 787 427 787 350 c 256,15,16
 787 273 787 273 759.5 208 c 128,-1,17
 732 143 732 143 682.5 95 c 128,-1,18
 633 47 633 47 566 20.5 c 128,-1,19
 499 -6 499 -6 420 -6 c 256,0,1
420 60 m 256,20,21
 483 60 483 60 536.5 81.5 c 128,-1,22
 590 103 590 103 629.5 142.5 c 128,-1,23
 669 182 669 182 691 234.5 c 128,-1,24
 713 287 713 287 713 350 c 256,25,26
 713 413 713 413 691 465.5 c 128,-1,27
 669 518 669 518 629.5 557.5 c 128,-1,28
 590 597 590 597 536.5 618.5 c 128,-1,29
 483 640 483 640 420 640 c 256,30,31
 357 640 357 640 303 618.5 c 128,-1,32
 249 597 249 597 209.5 557.5 c 128,-1,33
 170 518 170 518 147.5 465.5 c 128,-1,34
 125 413 125 413 125 350 c 0,35,36
 125 288 125 288 147.5 235 c 128,-1,37
 170 182 170 182 209.5 142.5 c 128,-1,38
 249 103 249 103 303 81.5 c 128,-1,39
 357 60 357 60 420 60 c 256,20,21
EndSplineSet
Validated: 1
Substitution2: "'c2sc' Capitals to Small Capitals lookup 45 subtable" o.sc
Substitution2: "Single Substitution lookup 39 subtable" ordmasculine
AlternateSubs2: "'aalt' Access All Alternates lookup 1 subtable" ordmasculine o.sc
EndChar

StartChar: P
Encoding: 80 80 53
Width: 718
GlyphClass: 2
Flags: W
AnchorPoint: "Anchor-3" 359 700 basechar 0
AnchorPoint: "Anchor-0" 359 0 basechar 0
LayerCount: 2
Fore
SplineSet
114 0 m 1,0,-1
 114 700 l 1,1,-1
 376 700 l 2,2,3
 465 700 465 700 529 671.5 c 128,-1,4
 593 643 593 643 627.5 589.5 c 128,-1,5
 662 536 662 536 662 460 c 0,6,7
 662 386 662 386 627.5 332.5 c 128,-1,8
 593 279 593 279 529 250 c 128,-1,9
 465 221 465 221 376 221 c 2,10,-1
 155 221 l 1,11,-1
 188 256 l 1,12,-1
 188 0 l 1,13,-1
 114 0 l 1,0,-1
188 250 m 1,14,-1
 155 286 l 1,15,-1
 374 286 l 2,16,17
 479 286 479 286 533.5 331.5 c 128,-1,18
 588 377 588 377 588 460 c 0,19,20
 588 544 588 544 533.5 590 c 128,-1,21
 479 636 479 636 374 636 c 2,22,-1
 155 636 l 1,23,-1
 188 671 l 1,24,-1
 188 250 l 1,14,-1
EndSplineSet
Validated: 5
Substitution2: "'c2sc' Capitals to Small Capitals lookup 45 subtable" p.sc
Substitution2: "'aalt' Access All Alternates lookup 0 subtable" p.sc
EndChar

StartChar: Q
Encoding: 81 81 54
Width: 839
GlyphClass: 2
Flags: W
AnchorPoint: "Anchor-3" 420 700 basechar 0
LayerCount: 2
Fore
SplineSet
420 -6 m 256,0,1
 341 -6 341 -6 273.5 20.5 c 128,-1,2
 206 47 206 47 156.5 95.5 c 128,-1,3
 107 144 107 144 79.5 208.5 c 128,-1,4
 52 273 52 273 52 350 c 256,5,6
 52 427 52 427 79.5 491.5 c 128,-1,7
 107 556 107 556 156.5 604.5 c 128,-1,8
 206 653 206 653 273 679.5 c 128,-1,9
 340 706 340 706 420 706 c 0,10,11
 499 706 499 706 566 679.5 c 128,-1,12
 633 653 633 653 682.5 605 c 128,-1,13
 732 557 732 557 759.5 492 c 128,-1,14
 787 427 787 427 787 350 c 256,15,16
 787 273 787 273 759.5 208 c 128,-1,17
 732 143 732 143 682.5 95 c 128,-1,18
 633 47 633 47 566 20.5 c 128,-1,19
 499 -6 499 -6 420 -6 c 256,0,1
649 -139 m 0,20,21
 617 -139 617 -139 587 -131 c 128,-1,22
 557 -123 557 -123 526.5 -105.5 c 128,-1,23
 496 -88 496 -88 464 -60 c 128,-1,24
 432 -32 432 -32 394 8 c 1,25,-1
 475 28 l 1,26,27
 506 -9 506 -9 535.5 -33 c 128,-1,28
 565 -57 565 -57 593.5 -68.5 c 128,-1,29
 622 -80 622 -80 650 -80 c 0,30,31
 728 -80 728 -80 783 -16 c 1,32,-1
 819 -59 l 1,33,34
 753 -139 753 -139 649 -139 c 0,20,21
420 60 m 256,35,36
 483 60 483 60 536.5 81.5 c 128,-1,37
 590 103 590 103 629.5 143 c 128,-1,38
 669 183 669 183 691 235.5 c 128,-1,39
 713 288 713 288 713 350 c 0,40,41
 713 413 713 413 691 465.5 c 128,-1,42
 669 518 669 518 629.5 557.5 c 128,-1,43
 590 597 590 597 536.5 618.5 c 128,-1,44
 483 640 483 640 420 640 c 256,45,46
 357 640 357 640 303 618.5 c 128,-1,47
 249 597 249 597 209.5 557.5 c 128,-1,48
 170 518 170 518 147.5 465.5 c 128,-1,49
 125 413 125 413 125 350 c 0,50,51
 125 288 125 288 147.5 235.5 c 128,-1,52
 170 183 170 183 209.5 143 c 128,-1,53
 249 103 249 103 303 81.5 c 128,-1,54
 357 60 357 60 420 60 c 256,35,36
EndSplineSet
Validated: 5
Substitution2: "'ss01' Style Set 1 lookup 50 subtable" Q.ss01
Substitution2: "'c2sc' Capitals to Small Capitals lookup 45 subtable" q.sc
AlternateSubs2: "'aalt' Access All Alternates lookup 1 subtable" q.sc Q.ss01
EndChar

StartChar: R
Encoding: 82 82 55
Width: 723
GlyphClass: 2
Flags: W
AnchorPoint: "Anchor-3" 367 700 basechar 0
AnchorPoint: "Anchor-0" 367 0 basechar 0
LayerCount: 2
Fore
SplineSet
114 0 m 1,0,-1
 114 700 l 1,1,-1
 376 700 l 2,2,3
 509 700 509 700 585.5 636.5 c 128,-1,4
 662 573 662 573 662 460 c 0,5,6
 662 386 662 386 627.5 332.5 c 128,-1,7
 593 279 593 279 529 250.5 c 128,-1,8
 465 222 465 222 376 222 c 2,9,-1
 155 222 l 1,10,-1
 188 256 l 1,11,-1
 188 0 l 1,12,-1
 114 0 l 1,0,-1
592 0 m 1,13,-1
 412 254 l 1,14,-1
 492 254 l 1,15,-1
 673 0 l 1,16,-1
 592 0 l 1,13,-1
188 250 m 1,17,-1
 155 285 l 1,18,-1
 374 285 l 2,19,20
 479 285 479 285 533.5 331 c 128,-1,21
 588 377 588 377 588 460 c 0,22,23
 588 544 588 544 533.5 590 c 128,-1,24
 479 636 479 636 374 636 c 2,25,-1
 155 636 l 1,26,-1
 188 671 l 1,27,-1
 188 250 l 1,17,-1
EndSplineSet
Validated: 5
Substitution2: "'c2sc' Capitals to Small Capitals lookup 45 subtable" r.sc
Substitution2: "'aalt' Access All Alternates lookup 0 subtable" r.sc
EndChar

StartChar: S
Encoding: 83 83 56
Width: 615
GlyphClass: 2
Flags: W
AnchorPoint: "Anchor-3" 321 700 basechar 0
AnchorPoint: "Anchor-1" 321 350 basechar 0
AnchorPoint: "Anchor-0" 321 0 basechar 0
LayerCount: 2
Fore
SplineSet
307 -6 m 0,0,1
 229 -6 229 -6 157.5 19.5 c 128,-1,2
 86 45 86 45 47 85 c 1,3,-1
 76 142 l 1,4,5
 113 106 113 106 175.5 81.5 c 128,-1,6
 238 57 238 57 307 57 c 0,7,8
 373 57 373 57 414.5 73.5 c 128,-1,9
 456 90 456 90 475.5 118 c 128,-1,10
 495 146 495 146 495 180 c 0,11,12
 495 221 495 221 471.5 246 c 128,-1,13
 448 271 448 271 410 285.5 c 128,-1,14
 372 300 372 300 326 311 c 128,-1,15
 280 322 280 322 234 334.5 c 128,-1,16
 188 347 188 347 149.5 368 c 128,-1,17
 111 389 111 389 87.5 423.5 c 128,-1,18
 64 458 64 458 64 514 c 0,19,20
 64 566 64 566 91.5 609.5 c 128,-1,21
 119 653 119 653 176 679.5 c 128,-1,22
 233 706 233 706 322 706 c 0,23,24
 381 706 381 706 439 689.5 c 128,-1,25
 497 673 497 673 539 644 c 1,26,-1
 514 585 l 1,27,28
 469 615 469 615 418.5 629 c 128,-1,29
 368 643 368 643 321 643 c 0,30,31
 258 643 258 643 217 626 c 128,-1,32
 176 609 176 609 156.5 580.5 c 128,-1,33
 137 552 137 552 137 516 c 0,34,35
 137 475 137 475 160.5 450 c 128,-1,36
 184 425 184 425 222.5 411 c 128,-1,37
 261 397 261 397 307 386 c 128,-1,38
 353 375 353 375 398.5 362 c 128,-1,39
 444 349 444 349 482.5 328.5 c 128,-1,40
 521 308 521 308 544.5 274 c 128,-1,41
 568 240 568 240 568 185 c 0,42,43
 568 134 568 134 540 90.5 c 128,-1,44
 512 47 512 47 454.5 20.5 c 128,-1,45
 397 -6 397 -6 307 -6 c 0,0,1
EndSplineSet
Validated: 1
Substitution2: "'c2sc' Capitals to Small Capitals lookup 45 subtable" s.sc
Substitution2: "'aalt' Access All Alternates lookup 0 subtable" s.sc
EndChar

StartChar: T
Encoding: 84 84 57
Width: 574
GlyphClass: 2
Flags: W
AnchorPoint: "Anchor-3" 287 700 basechar 0
AnchorPoint: "Anchor-1" 287 357 basechar 0
AnchorPoint: "Anchor-0" 287 0 basechar 0
LayerCount: 2
Fore
SplineSet
250 0 m 1,0,-1
 250 636 l 1,1,-1
 4 636 l 1,2,-1
 4 700 l 1,3,-1
 570 700 l 1,4,-1
 570 636 l 1,5,-1
 324 636 l 1,6,-1
 324 0 l 1,7,-1
 250 0 l 1,0,-1
EndSplineSet
Validated: 1
Substitution2: "'ss01' Style Set 1 lookup 50 subtable" T.ss01
Substitution2: "'c2sc' Capitals to Small Capitals lookup 45 subtable" t.sc
AlternateSubs2: "'aalt' Access All Alternates lookup 1 subtable" t.sc T.ss01
EndChar

StartChar: U
Encoding: 85 85 58
Width: 792
GlyphClass: 2
Flags: W
AnchorPoint: "Anchor-4" 664 700 basechar 0
AnchorPoint: "Anchor-3" 396 700 basechar 0
AnchorPoint: "Anchor-2" 592 0 basechar 0
AnchorPoint: "Anchor-1" 396 357 basechar 0
AnchorPoint: "Anchor-0" 396 0 basechar 0
LayerCount: 2
Fore
SplineSet
396 -6 m 256,0,1
 262 -6 262 -6 185 71 c 128,-1,2
 108 148 108 148 108 299 c 2,3,-1
 108 700 l 1,4,-1
 182 700 l 1,5,-1
 182 302 l 2,6,7
 182 178 182 178 238 119 c 128,-1,8
 294 60 294 60 396 60 c 0,9,10
 499 60 499 60 555 119 c 128,-1,11
 611 178 611 178 611 302 c 2,12,-1
 611 700 l 1,13,-1
 683 700 l 1,14,-1
 683 299 l 2,15,16
 683 148 683 148 606.5 71 c 128,-1,17
 530 -6 530 -6 396 -6 c 256,0,1
EndSplineSet
Validated: 1
Substitution2: "'ss01' Style Set 1 lookup 50 subtable" U.ss01
Substitution2: "'c2sc' Capitals to Small Capitals lookup 45 subtable" u.sc
AlternateSubs2: "'aalt' Access All Alternates lookup 1 subtable" u.sc U.ss01
EndChar

StartChar: V
Encoding: 86 86 59
Width: 698
GlyphClass: 2
Flags: W
AnchorPoint: "Anchor-3" 349 700 basechar 0
AnchorPoint: "Anchor-2" 386 0 basechar 0
AnchorPoint: "Anchor-0" 349 0 basechar 0
LayerCount: 2
Fore
SplineSet
313 0 m 1,0,-1
 3 700 l 1,1,-1
 83 700 l 1,2,-1
 373 41 l 1,3,-1
 329 41 l 1,4,-1
 621 700 l 1,5,-1
 696 700 l 1,6,-1
 386 0 l 1,7,-1
 313 0 l 1,0,-1
EndSplineSet
Validated: 5
Substitution2: "'c2sc' Capitals to Small Capitals lookup 45 subtable" v.sc
Substitution2: "'aalt' Access All Alternates lookup 0 subtable" v.sc
EndChar

StartChar: W
Encoding: 87 87 60
Width: 1111
GlyphClass: 2
Flags: W
AnchorPoint: "Anchor-3" 556 700 basechar 0
AnchorPoint: "Anchor-0" 556 0 basechar 0
LayerCount: 2
Fore
SplineSet
273 0 m 1,0,-1
 37 700 l 1,1,-1
 113 700 l 1,2,-1
 334 41 l 1,3,-1
 296 41 l 1,4,-1
 524 700 l 1,5,-1
 592 700 l 1,6,-1
 817 41 l 1,7,-1
 781 41 l 1,8,-1
 1004 700 l 1,9,-1
 1075 700 l 1,10,-1
 839 0 l 1,11,-1
 761 0 l 1,12,-1
 546 625 l 1,13,-1
 566 625 l 1,14,-1
 350 0 l 1,15,-1
 273 0 l 1,0,-1
EndSplineSet
Validated: 5
Substitution2: "'ss01' Style Set 1 lookup 50 subtable" W.ss01
Substitution2: "'c2sc' Capitals to Small Capitals lookup 45 subtable" w.sc
AlternateSubs2: "'aalt' Access All Alternates lookup 1 subtable" w.sc W.ss01
EndChar

StartChar: X
Encoding: 88 88 61
Width: 656
GlyphClass: 2
Flags: W
AnchorPoint: "Anchor-3" 329 700 basechar 0
AnchorPoint: "Anchor-0" 329 0 basechar 0
LayerCount: 2
Fore
SplineSet
17 0 m 1,0,-1
 304 388 l 1,1,-1
 304 331 l 1,2,-1
 34 700 l 1,3,-1
 119 700 l 1,4,-1
 346 392 l 1,5,-1
 313 391 l 1,6,-1
 540 700 l 1,7,-1
 620 700 l 1,8,-1
 353 336 l 1,9,-1
 353 388 l 1,10,-1
 639 0 l 1,11,-1
 553 0 l 1,12,-1
 311 329 l 1,13,-1
 342 329 l 1,14,-1
 102 0 l 1,15,-1
 17 0 l 1,0,-1
EndSplineSet
Validated: 5
Substitution2: "'c2sc' Capitals to Small Capitals lookup 45 subtable" x.sc
Substitution2: "'aalt' Access All Alternates lookup 0 subtable" x.sc
EndChar

StartChar: Y
Encoding: 89 89 62
Width: 635
GlyphClass: 2
Flags: W
AnchorPoint: "Anchor-3" 317 700 basechar 0
AnchorPoint: "Anchor-2" 354 0 basechar 0
AnchorPoint: "Anchor-1" 316 246 basechar 0
AnchorPoint: "Anchor-0" 317 0 basechar 0
LayerCount: 2
Fore
SplineSet
281 0 m 1,0,-1
 281 260 l 1,1,-1
 298 214 l 1,2,-1
 1 700 l 1,3,-1
 80 700 l 1,4,-1
 341 273 l 1,5,-1
 299 273 l 1,6,-1
 560 700 l 1,7,-1
 634 700 l 1,8,-1
 337 214 l 1,9,-1
 354 260 l 1,10,-1
 354 0 l 1,11,-1
 281 0 l 1,0,-1
EndSplineSet
Validated: 5
Substitution2: "'ss01' Style Set 1 lookup 50 subtable" Y.ss01
Substitution2: "'c2sc' Capitals to Small Capitals lookup 45 subtable" y.sc
AlternateSubs2: "'aalt' Access All Alternates lookup 1 subtable" y.sc Y.ss01
EndChar

StartChar: Z
Encoding: 90 90 63
Width: 651
GlyphClass: 2
Flags: W
AnchorPoint: "Anchor-3" 332 700 basechar 0
AnchorPoint: "Anchor-2" 619 0 basechar 0
AnchorPoint: "Anchor-0" 340 0 basechar 0
LayerCount: 2
Fore
SplineSet
45 0 m 1,0,-1
 45 51 l 1,1,-1
 531 664 l 1,2,-1
 539 636 l 1,3,-1
 52 636 l 1,4,-1
 52 700 l 1,5,-1
 607 700 l 1,6,-1
 607 649 l 1,7,-1
 122 36 l 1,8,-1
 113 64 l 1,9,-1
 619 64 l 1,10,-1
 619 0 l 1,11,-1
 45 0 l 1,0,-1
EndSplineSet
Validated: 5
Substitution2: "'ss01' Style Set 1 lookup 50 subtable" Z.ss01
Substitution2: "'c2sc' Capitals to Small Capitals lookup 45 subtable" z.sc
AlternateSubs2: "'aalt' Access All Alternates lookup 1 subtable" z.sc Z.ss01
EndChar

StartChar: bracketleft
Encoding: 91 91 64
Width: 318
GlyphClass: 1
Flags: W
LayerCount: 2
Fore
SplineSet
114 -194 m 1,0,-1
 114 742 l 1,1,-1
 297 742 l 1,2,-1
 297 683 l 1,3,-1
 185 683 l 1,4,-1
 185 -135 l 1,5,-1
 297 -135 l 1,6,-1
 297 -194 l 1,7,-1
 114 -194 l 1,0,-1
EndSplineSet
Validated: 1
Substitution2: "'case' Case-Sensitive Forms lookup 47 subtable" bracketleft.case
Substitution2: "'aalt' Access All Alternates lookup 0 subtable" bracketleft.case
EndChar

StartChar: backslash
Encoding: 92 92 65
Width: 335
GlyphClass: 1
Flags: W
LayerCount: 2
Fore
SplineSet
295 -100 m 1,0,-1
 -35 842 l 1,1,-1
 30 842 l 1,2,-1
 360 -100 l 1,3,-1
 295 -100 l 1,0,-1
EndSplineSet
Validated: 1
Substitution2: "'case' Case-Sensitive Forms lookup 47 subtable" backslash.case
Substitution2: "'aalt' Access All Alternates lookup 0 subtable" backslash.case
EndChar

StartChar: bracketright
Encoding: 93 93 66
Width: 318
GlyphClass: 1
Flags: W
LayerCount: 2
Fore
SplineSet
21 -194 m 1,0,-1
 21 -135 l 1,1,-1
 133 -135 l 1,2,-1
 133 683 l 1,3,-1
 21 683 l 1,4,-1
 21 742 l 1,5,-1
 204 742 l 1,6,-1
 204 -194 l 1,7,-1
 21 -194 l 1,0,-1
EndSplineSet
Validated: 1
Substitution2: "'case' Case-Sensitive Forms lookup 47 subtable" bracketright.case
Substitution2: "'aalt' Access All Alternates lookup 0 subtable" bracketright.case
EndChar

StartChar: asciicircum
Encoding: 94 94 67
Width: 576
GlyphClass: 1
Flags: W
LayerCount: 2
Fore
SplineSet
83 143 m 1,0,-1
 258 557 l 1,1,-1
 319 557 l 1,2,-1
 493 143 l 1,3,-1
 434 143 l 1,4,-1
 273 532 l 1,5,-1
 303 532 l 1,6,-1
 142 143 l 1,7,-1
 83 143 l 1,0,-1
EndSplineSet
Validated: 5
EndChar

StartChar: underscore
Encoding: 95 95 68
Width: 500
GlyphClass: 1
Flags: W
LayerCount: 2
Fore
SplineSet
0 -48 m 1,0,-1
 0 0 l 1,1,-1
 500 0 l 1,2,-1
 500 -48 l 1,3,-1
 0 -48 l 1,0,-1
EndSplineSet
Validated: 1
EndChar

StartChar: a
Encoding: 97 97 70
Width: 590
GlyphClass: 2
Flags: W
AnchorPoint: "Anchor-3" 285 526 basechar 0
AnchorPoint: "Anchor-2" 496 0 basechar 0
AnchorPoint: "Anchor-0" 287 0 basechar 0
LayerCount: 2
Fore
SplineSet
428 0 m 1,0,-1
 428 116 l 1,1,-1
 425 135 l 1,2,-1
 425 329 l 2,3,4
 425 396 425 396 387.5 432 c 128,-1,5
 350 468 350 468 276 468 c 0,6,7
 225 468 225 468 179 451 c 128,-1,8
 133 434 133 434 101 406 c 1,9,-1
 69 459 l 1,10,11
 109 493 109 493 165 511.5 c 128,-1,12
 221 530 221 530 283 530 c 0,13,14
 385 530 385 530 440.5 479.5 c 128,-1,15
 496 429 496 429 496 326 c 2,16,-1
 496 0 l 1,17,-1
 428 0 l 1,0,-1
247 -5 m 0,18,19
 188 -5 188 -5 144.5 14.5 c 128,-1,20
 101 34 101 34 78 68.5 c 128,-1,21
 55 103 55 103 55 148 c 0,22,23
 55 189 55 189 74.5 222.5 c 128,-1,24
 94 256 94 256 138.5 276.5 c 128,-1,25
 183 297 183 297 258 297 c 2,26,-1
 439 297 l 1,27,-1
 439 244 l 1,28,-1
 260 244 l 2,29,30
 184 244 184 244 154.5 217 c 128,-1,31
 125 190 125 190 125 150 c 0,32,33
 125 105 125 105 160 78 c 128,-1,34
 195 51 195 51 258 51 c 0,35,36
 318 51 318 51 361.5 78.5 c 128,-1,37
 405 106 405 106 425 158 c 1,38,-1
 441 109 l 1,39,40
 421 57 421 57 371.5 26 c 128,-1,41
 322 -5 322 -5 247 -5 c 0,18,19
EndSplineSet
Validated: 5
Substitution2: "'ss01' Style Set 1 lookup 50 subtable" a.ss01
Substitution2: "'smcp' Lowercase to Small Capitals lookup 46 subtable" a.sc
Substitution2: "Single Substitution lookup 39 subtable" ordfeminine
AlternateSubs2: "'aalt' Access All Alternates lookup 1 subtable" ordfeminine a.sc a.ss01
EndChar

StartChar: b
Encoding: 98 98 71
Width: 678
GlyphClass: 2
Flags: W
AnchorPoint: "Anchor-3" 372 526 basechar 0
AnchorPoint: "Anchor-0" 372 0 basechar 0
LayerCount: 2
Fore
SplineSet
370 -5 m 0,0,1
 301 -5 301 -5 246 26.5 c 128,-1,2
 191 58 191 58 159 118 c 128,-1,3
 127 178 127 178 127 263 c 0,4,5
 127 349 127 349 159.5 408.5 c 128,-1,6
 192 468 192 468 247 499 c 128,-1,7
 302 530 302 530 370 530 c 0,8,9
 445 530 445 530 504.5 496.5 c 128,-1,10
 564 463 564 463 598 403 c 128,-1,11
 632 343 632 343 632 263 c 0,12,13
 632 184 632 184 598 123.5 c 128,-1,14
 564 63 564 63 504.5 29 c 128,-1,15
 445 -5 445 -5 370 -5 c 0,0,1
99 0 m 1,16,-1
 99 742 l 1,17,-1
 170 742 l 1,18,-1
 170 370 l 1,19,-1
 160 264 l 1,20,-1
 167 158 l 1,21,-1
 167 0 l 1,22,-1
 99 0 l 1,16,-1
365 58 m 256,23,24
 421 58 421 58 465 83.5 c 128,-1,25
 509 109 509 109 535 155.5 c 128,-1,26
 561 202 561 202 561 263 c 0,27,28
 561 325 561 325 535 371 c 128,-1,29
 509 417 509 417 465 442.5 c 128,-1,30
 421 468 421 468 365 468 c 256,31,32
 309 468 309 468 264.5 442.5 c 128,-1,33
 220 417 220 417 194.5 371 c 128,-1,34
 169 325 169 325 169 263 c 0,35,36
 169 202 169 202 194.5 155.5 c 128,-1,37
 220 109 220 109 264.5 83.5 c 128,-1,38
 309 58 309 58 365 58 c 256,23,24
EndSplineSet
Validated: 5
Substitution2: "'smcp' Lowercase to Small Capitals lookup 46 subtable" b.sc
Substitution2: "'aalt' Access All Alternates lookup 0 subtable" b.sc
EndChar

StartChar: c
Encoding: 99 99 72
Width: 563
GlyphClass: 2
Flags: W
AnchorPoint: "Anchor-3" 303 526 basechar 0
AnchorPoint: "Anchor-1" 126 263 basechar 0
AnchorPoint: "Anchor-0" 303 0 basechar 0
LayerCount: 2
Fore
SplineSet
317 -5 m 0,0,1
 239 -5 239 -5 177.5 29.5 c 128,-1,2
 116 64 116 64 81 124.5 c 128,-1,3
 46 185 46 185 46 263 c 0,4,5
 46 342 46 342 81 402 c 128,-1,6
 116 462 116 462 177.5 496 c 128,-1,7
 239 530 239 530 317 530 c 0,8,9
 384 530 384 530 438 504 c 128,-1,10
 492 478 492 478 523 426 c 1,11,-1
 470 390 l 1,12,13
 443 430 443 430 403 449 c 128,-1,14
 363 468 363 468 316 468 c 0,15,16
 260 468 260 468 215 442.5 c 128,-1,17
 170 417 170 417 144 371 c 128,-1,18
 118 325 118 325 118 263 c 256,19,20
 118 201 118 201 144 155 c 128,-1,21
 170 109 170 109 215 83.5 c 128,-1,22
 260 58 260 58 316 58 c 0,23,24
 363 58 363 58 403 77 c 128,-1,25
 443 96 443 96 470 135 c 1,26,-1
 523 99 l 1,27,28
 492 48 492 48 438 21.5 c 128,-1,29
 384 -5 384 -5 317 -5 c 0,0,1
EndSplineSet
Validated: 1
Substitution2: "'smcp' Lowercase to Small Capitals lookup 46 subtable" c.sc
Substitution2: "'aalt' Access All Alternates lookup 0 subtable" c.sc
EndChar

StartChar: d
Encoding: 100 100 73
Width: 678
GlyphClass: 2
Flags: W
AnchorPoint: "Anchor-4" 672 742 basechar 0
AnchorPoint: "Anchor-3" 308 526 basechar 0
AnchorPoint: "Anchor-1" 483 633 basechar 0
AnchorPoint: "Anchor-0" 340 0 basechar 0
LayerCount: 2
Fore
SplineSet
308 -5 m 0,0,1
 233 -5 233 -5 173.5 29 c 128,-1,2
 114 63 114 63 80 123.5 c 128,-1,3
 46 184 46 184 46 263 c 0,4,5
 46 343 46 343 80 403 c 128,-1,6
 114 463 114 463 173.5 496.5 c 128,-1,7
 233 530 233 530 308 530 c 0,8,9
 377 530 377 530 431.5 499 c 128,-1,10
 486 468 486 468 518.5 408.5 c 128,-1,11
 551 349 551 349 551 263 c 0,12,13
 551 178 551 178 519 118 c 128,-1,14
 487 58 487 58 432.5 26.5 c 128,-1,15
 378 -5 378 -5 308 -5 c 0,0,1
313 58 m 0,16,17
 369 58 369 58 413.5 83.5 c 128,-1,18
 458 109 458 109 483.5 155.5 c 128,-1,19
 509 202 509 202 509 263 c 0,20,21
 509 325 509 325 483.5 371 c 128,-1,22
 458 417 458 417 413.5 442.5 c 128,-1,23
 369 468 369 468 313 468 c 0,24,25
 258 468 258 468 214 442.5 c 128,-1,26
 170 417 170 417 144 371 c 128,-1,27
 118 325 118 325 118 263 c 0,28,29
 118 202 118 202 144 155.5 c 128,-1,30
 170 109 170 109 214 83.5 c 128,-1,31
 258 58 258 58 313 58 c 0,16,17
511 0 m 1,32,-1
 511 158 l 1,33,-1
 518 264 l 1,34,-1
 508 370 l 1,35,-1
 508 742 l 1,36,-1
 579 742 l 1,37,-1
 579 0 l 1,38,-1
 511 0 l 1,32,-1
EndSplineSet
Validated: 5
Substitution2: "'smcp' Lowercase to Small Capitals lookup 46 subtable" d.sc
Substitution2: "'aalt' Access All Alternates lookup 0 subtable" d.sc
EndChar

StartChar: e
Encoding: 101 101 74
Width: 604
GlyphClass: 2
Flags: W
AnchorPoint: "Anchor-3" 303 526 basechar 0
AnchorPoint: "Anchor-2" 511 0 basechar 0
AnchorPoint: "Anchor-0" 303 0 basechar 0
LayerCount: 2
Fore
SplineSet
322 -5 m 0,0,1
 240 -5 240 -5 178 29.5 c 128,-1,2
 116 64 116 64 81 124.5 c 128,-1,3
 46 185 46 185 46 263 c 256,4,5
 46 341 46 341 79.5 401 c 128,-1,6
 113 461 113 461 171.5 495.5 c 128,-1,7
 230 530 230 530 303 530 c 0,8,9
 372 530 372 530 435 495.5 c 128,-1,10
 498 461 498 461 528 403 c 0,11,12
 557 347 557 347 557 279 c 1,13,-1
 100 194.5 l 1,14,-1
 100 256.5 l 1,15,-1
 519 332 l 1,16,-1
 492 274.5 l 1,17,18
 490 325 490 325 467 372 c 0,19,20
 441 423 441 423 400 445 c 4,21,22
 353 469 353 469 303.5 469 c 128,-1,23
 254 469 254 469 207 444 c 0,24,25
 164 421 164 421 139.5 375 c 128,-1,26
 115 329 115 329 115 271 c 2,27,-1
 115 260 l 2,28,29
 115 200 115 200 141.5 154.5 c 128,-1,30
 168 109 168 109 215.5 83.5 c 128,-1,31
 263 58 263 58 324 58 c 0,32,33
 372 58 372 58 413.5 75 c 128,-1,34
 455 92 455 92 485 127 c 1,35,-1
 525 81 l 1,36,37
 490 39 490 39 437.5 17 c 128,-1,38
 385 -5 385 -5 322 -5 c 0,0,1
EndSplineSet
Validated: 5
Substitution2: "'ss01' Style Set 1 lookup 50 subtable" e.ss01
Substitution2: "'smcp' Lowercase to Small Capitals lookup 46 subtable" e.sc
AlternateSubs2: "'aalt' Access All Alternates lookup 1 subtable" e.sc e.ss01
EndChar

StartChar: f
Encoding: 102 102 75
Width: 339
GlyphClass: 2
Flags: W
AnchorPoint: "Anchor-3" 245 725 basechar 0
AnchorPoint: "Anchor-0" 147 0 basechar 0
LayerCount: 2
Fore
SplineSet
111 0 m 1,0,-1
 111 591 l 2,1,2
 111 661 111 661 152 704 c 128,-1,3
 193 747 193 747 270 747 c 0,4,5
 300 747 300 747 328 739 c 128,-1,6
 356 731 356 731 375 714 c 1,7,-1
 351 661 l 1,8,9
 336 674 336 674 316 680.5 c 128,-1,10
 296 687 296 687 273 687 c 0,11,12
 228 687 228 687 204 662 c 128,-1,13
 180 637 180 637 180 588 c 2,14,-1
 180 508 l 1,15,-1
 182 475 l 1,16,-1
 182 0 l 1,17,-1
 111 0 l 1,0,-1
17 466 m 1,18,-1
 17 525 l 1,19,-1
 342 525 l 1,20,-1
 342 466 l 1,21,-1
 17 466 l 1,18,-1
EndSplineSet
Validated: 5
Substitution2: "'ss01' Style Set 1 lookup 50 subtable" f.ss01
Substitution2: "'smcp' Lowercase to Small Capitals lookup 46 subtable" f.sc
AlternateSubs2: "'aalt' Access All Alternates lookup 1 subtable" f.sc f.ss01
EndChar

StartChar: g
Encoding: 103 103 76
Width: 685
GlyphClass: 2
Flags: W
AnchorPoint: "Anchor-3" 325 526 basechar 0
AnchorPoint: "Anchor-0" 325 -195 basechar 0
LayerCount: 2
Fore
SplineSet
323 -199 m 0,0,1
 251 -199 251 -199 185 -178 c 128,-1,2
 119 -157 119 -157 78 -118 c 1,3,-1
 114 -64 l 1,4,5
 151 -97 151 -97 205.5 -116.5 c 128,-1,6
 260 -136 260 -136 321 -136 c 0,7,8
 421 -136 421 -136 468 -89.5 c 128,-1,9
 515 -43 515 -43 515 55 c 2,10,-1
 515 186 l 1,11,-1
 525 276 l 1,12,-1
 518 366 l 1,13,-1
 518 525 l 1,14,-1
 586 525 l 1,15,-1
 586 64 l 2,16,17
 586 -72 586 -72 519.5 -135.5 c 128,-1,18
 453 -199 453 -199 323 -199 c 0,0,1
310 20 m 0,19,20
 235 20 235 20 175 52.5 c 128,-1,21
 115 85 115 85 80.5 143 c 128,-1,22
 46 201 46 201 46 276 c 256,23,24
 46 351 46 351 80.5 408.5 c 128,-1,25
 115 466 115 466 175 498 c 128,-1,26
 235 530 235 530 310 530 c 0,27,28
 380 530 380 530 436 501 c 128,-1,29
 492 472 492 472 525 415 c 128,-1,30
 558 358 558 358 558 276 c 256,31,32
 558 194 558 194 525 137 c 128,-1,33
 492 80 492 80 436 50 c 128,-1,34
 380 20 380 20 310 20 c 0,19,20
317 83 m 0,35,36
 375 83 375 83 420 107.5 c 128,-1,37
 465 132 465 132 491 175.5 c 128,-1,38
 517 219 517 219 517 276 c 256,39,40
 517 333 517 333 491 376 c 128,-1,41
 465 419 465 419 420 443.5 c 128,-1,42
 375 468 375 468 317 468 c 0,43,44
 260 468 260 468 214.5 443.5 c 128,-1,45
 169 419 169 419 143.5 376 c 128,-1,46
 118 333 118 333 118 276 c 256,47,48
 118 219 118 219 143.5 175.5 c 128,-1,49
 169 132 169 132 214.5 107.5 c 128,-1,50
 260 83 260 83 317 83 c 0,35,36
EndSplineSet
Validated: 5
Substitution2: "'smcp' Lowercase to Small Capitals lookup 46 subtable" g.sc
Substitution2: "'aalt' Access All Alternates lookup 0 subtable" g.sc
EndChar

StartChar: h
Encoding: 104 104 77
Width: 676
GlyphClass: 2
Flags: W
AnchorPoint: "Anchor-4" 248 526 basechar 0
AnchorPoint: "Anchor-3" 135 725 basechar 0
AnchorPoint: "Anchor-1" 195 633 basechar 0
AnchorPoint: "Anchor-0" 340 0 basechar 0
LayerCount: 2
Fore
SplineSet
99 0 m 1,0,-1
 99 742 l 1,1,-1
 170 742 l 1,2,-1
 170 381 l 1,3,-1
 156 408 l 1,4,5
 181 465 181 465 236 497.5 c 128,-1,6
 291 530 291 530 367 530 c 0,7,8
 431 530 431 530 479.5 505.5 c 128,-1,9
 528 481 528 481 555.5 431 c 128,-1,10
 583 381 583 381 583 305 c 2,11,-1
 583 0 l 1,12,-1
 512 0 l 1,13,-1
 512 298 l 2,14,15
 512 381 512 381 470.5 423.5 c 128,-1,16
 429 466 429 466 354 466 c 0,17,18
 298 466 298 466 256.5 443.5 c 128,-1,19
 215 421 215 421 192.5 378.5 c 128,-1,20
 170 336 170 336 170 276 c 2,21,-1
 170 0 l 1,22,-1
 99 0 l 1,0,-1
EndSplineSet
Validated: 5
Substitution2: "'smcp' Lowercase to Small Capitals lookup 46 subtable" h.sc
Substitution2: "'aalt' Access All Alternates lookup 0 subtable" h.sc
EndChar

StartChar: k
Encoding: 107 107 80
Width: 598
GlyphClass: 2
Flags: W
AnchorPoint: "Anchor-4" 243 526 basechar 0
AnchorPoint: "Anchor-3" 135 725 basechar 0
AnchorPoint: "Anchor-0" 311 0 basechar 0
LayerCount: 2
Fore
SplineSet
155 136 m 1,0,-1
 157 227 l 1,1,-1
 484 525 l 1,2,-1
 571 525 l 1,3,-1
 340 304 l 1,4,-1
 300 270 l 1,5,-1
 155 136 l 1,0,-1
99 0 m 1,6,-1
 99 742 l 1,7,-1
 170 742 l 1,8,-1
 170 0 l 1,9,-1
 99 0 l 1,6,-1
506 0 m 1,10,-1
 287 273 l 1,11,-1
 333 328 l 1,12,-1
 593 0 l 1,13,-1
 506 0 l 1,10,-1
EndSplineSet
Validated: 5
Substitution2: "'smcp' Lowercase to Small Capitals lookup 46 subtable" k.sc
Substitution2: "'aalt' Access All Alternates lookup 0 subtable" k.sc
EndChar

StartChar: l
Encoding: 108 108 81
Width: 272
GlyphClass: 2
Flags: W
AnchorPoint: "Anchor-4" 260 742 basechar 0
AnchorPoint: "Anchor-3" 133 725 basechar 0
AnchorPoint: "Anchor-1" 133 346 basechar 0
AnchorPoint: "Anchor-0" 133 0 basechar 0
LayerCount: 2
Fore
SplineSet
26 742 m 1,0,-1
 168 742 l 1,1,-1
 145 683 l 1,2,-1
 26 683 l 1,3,-1
 26 742 l 1,0,-1
97 0 m 1,4,-1
 97 715 l 1,5,-1
 168 742 l 1,6,-1
 168 0 l 1,7,-1
 97 0 l 1,4,-1
EndSplineSet
Substitution2: "'ss01' Style Set 1 lookup 50 subtable" l.ss01
Substitution2: "'smcp' Lowercase to Small Capitals lookup 46 subtable" l.sc
AlternateSubs2: "'aalt' Access All Alternates lookup 1 subtable" l.sc l.ss01
EndChar

StartChar: m
Encoding: 109 109 82
Width: 1041
GlyphClass: 2
Flags: W
AnchorPoint: "Anchor-3" 513 526 basechar 0
AnchorPoint: "Anchor-0" 512 0 basechar 0
LayerCount: 2
Fore
SplineSet
79 0 m 5,0,-1
 79 525 l 5,1,-1
 147 525 l 5,2,-1
 147 383 l 5,3,-1
 136 408 l 5,4,5
 160 465 160 465 213.5 497.5 c 132,-1,6
 267 530 267 530 340 530 c 4,7,8
 417 530 417 530 471 491.5 c 132,-1,9
 525 453 525 453 541 376 c 5,10,-1
 513 387 l 5,11,12
 536 451 536 451 594.5 490.5 c 132,-1,13
 653 530 653 530 735 530 c 4,14,15
 799 530 799 530 846.5 505.5 c 132,-1,16
 894 481 894 481 920.5 431 c 132,-1,17
 947 381 947 381 947 305 c 6,18,-1
 947 0 l 5,19,-1
 876 0 l 5,20,-1
 876 298 l 6,21,22
 876 381 876 381 836.5 423.5 c 132,-1,23
 797 466 797 466 725 466 c 4,24,25
 671 466 671 466 631.5 443.5 c 132,-1,26
 592 421 592 421 570.5 378.5 c 132,-1,27
 549 336 549 336 549 276 c 6,28,-1
 549 0 l 5,29,-1
 478 0 l 5,30,-1
 478 298 l 6,31,32
 478 381 478 381 438 423.5 c 132,-1,33
 398 466 398 466 326 466 c 4,34,35
 273 466 273 466 233 443.5 c 132,-1,36
 193 421 193 421 171.5 378.5 c 132,-1,37
 150 336 150 336 150 276 c 6,38,-1
 150 0 l 5,39,-1
 79 0 l 5,0,-1
EndSplineSet
Substitution2: "'smcp' Lowercase to Small Capitals lookup 46 subtable" m.sc
Substitution2: "'aalt' Access All Alternates lookup 0 subtable" m.sc
EndChar

StartChar: n
Encoding: 110 110 83
Width: 676
GlyphClass: 2
Flags: W
AnchorPoint: "Anchor-3" 340 526 basechar 0
AnchorPoint: "Anchor-0" 340 0 basechar 0
LayerCount: 2
Fore
SplineSet
99 0 m 1,0,-1
 99 525 l 1,1,-1
 167 525 l 1,2,-1
 167 381 l 1,3,-1
 156 408 l 1,4,5
 181 465 181 465 236 497.5 c 128,-1,6
 291 530 291 530 367 530 c 0,7,8
 431 530 431 530 479.5 505.5 c 128,-1,9
 528 481 528 481 555.5 431 c 128,-1,10
 583 381 583 381 583 305 c 2,11,-1
 583 0 l 1,12,-1
 512 0 l 1,13,-1
 512 298 l 2,14,15
 512 381 512 381 470.5 423.5 c 128,-1,16
 429 466 429 466 354 466 c 0,17,18
 298 466 298 466 256.5 443.5 c 128,-1,19
 215 421 215 421 192.5 378.5 c 128,-1,20
 170 336 170 336 170 276 c 2,21,-1
 170 0 l 1,22,-1
 99 0 l 1,0,-1
EndSplineSet
Validated: 5
Substitution2: "'smcp' Lowercase to Small Capitals lookup 46 subtable" n.sc
Substitution2: "'aalt' Access All Alternates lookup 0 subtable" n.sc
EndChar

StartChar: o
Encoding: 111 111 84
Width: 627
GlyphClass: 2
Flags: W
AnchorPoint: "Anchor-4" 458 526 basechar 0
AnchorPoint: "Anchor-3" 313 526 basechar 0
AnchorPoint: "Anchor-2" 408 0 basechar 0
AnchorPoint: "Anchor-1" 313 263 basechar 0
AnchorPoint: "Anchor-0" 313 0 basechar 0
LayerCount: 2
Fore
SplineSet
313 -5 m 0,0,1
 237 -5 237 -5 176.5 29.5 c 128,-1,2
 116 64 116 64 81 124.5 c 128,-1,3
 46 185 46 185 46 263 c 0,4,5
 46 342 46 342 81 402 c 128,-1,6
 116 462 116 462 176 496 c 128,-1,7
 236 530 236 530 313 530 c 0,8,9
 391 530 391 530 451.5 496 c 128,-1,10
 512 462 512 462 546.5 402 c 128,-1,11
 581 342 581 342 581 263 c 0,12,13
 581 185 581 185 546.5 124.5 c 128,-1,14
 512 64 512 64 451 29.5 c 128,-1,15
 390 -5 390 -5 313 -5 c 0,0,1
313 58 m 0,16,17
 370 58 370 58 414 83.5 c 128,-1,18
 458 109 458 109 483.5 155.5 c 128,-1,19
 509 202 509 202 509 263 c 0,20,21
 509 325 509 325 483.5 371 c 128,-1,22
 458 417 458 417 414 442.5 c 128,-1,23
 370 468 370 468 314 468 c 256,24,25
 258 468 258 468 214 442.5 c 128,-1,26
 170 417 170 417 144 371 c 128,-1,27
 118 325 118 325 118 263 c 0,28,29
 118 202 118 202 144 155.5 c 128,-1,30
 170 109 170 109 214 83.5 c 128,-1,31
 258 58 258 58 313 58 c 0,16,17
EndSplineSet
Validated: 1
Substitution2: "'smcp' Lowercase to Small Capitals lookup 46 subtable" o.sc
Substitution2: "Single Substitution lookup 39 subtable" ordmasculine
AlternateSubs2: "'aalt' Access All Alternates lookup 1 subtable" ordmasculine o.sc
EndChar

StartChar: p
Encoding: 112 112 85
Width: 678
GlyphClass: 2
Flags: W
AnchorPoint: "Anchor-3" 365 526 basechar 0
AnchorPoint: "Anchor-0" 378 -111 basechar 0
LayerCount: 2
Fore
SplineSet
370 -5 m 0,0,1
 302 -5 302 -5 247 26.5 c 128,-1,2
 192 58 192 58 159.5 117.5 c 128,-1,3
 127 177 127 177 127 263 c 256,4,5
 127 349 127 349 159 408.5 c 128,-1,6
 191 468 191 468 246 499 c 128,-1,7
 301 530 301 530 370 530 c 0,8,9
 445 530 445 530 504.5 496.5 c 128,-1,10
 564 463 564 463 598 402.5 c 128,-1,11
 632 342 632 342 632 263 c 0,12,13
 632 183 632 183 598 123 c 128,-1,14
 564 63 564 63 504.5 29 c 128,-1,15
 445 -5 445 -5 370 -5 c 0,0,1
99 -194 m 1,16,-1
 99 525 l 1,17,-1
 167 525 l 1,18,-1
 167 367 l 1,19,-1
 160 262 l 1,20,-1
 170 156 l 1,21,-1
 170 -194 l 1,22,-1
 99 -194 l 1,16,-1
365 58 m 256,23,24
 421 58 421 58 465 83.5 c 128,-1,25
 509 109 509 109 535 155.5 c 128,-1,26
 561 202 561 202 561 263 c 256,27,28
 561 324 561 324 535 370 c 128,-1,29
 509 416 509 416 465 442 c 128,-1,30
 421 468 421 468 365 468 c 256,31,32
 309 468 309 468 264.5 442 c 128,-1,33
 220 416 220 416 194.5 370 c 128,-1,34
 169 324 169 324 169 263 c 256,35,36
 169 202 169 202 194.5 155.5 c 128,-1,37
 220 109 220 109 264.5 83.5 c 128,-1,38
 309 58 309 58 365 58 c 256,23,24
EndSplineSet
Validated: 5
Substitution2: "'smcp' Lowercase to Small Capitals lookup 46 subtable" p.sc
Substitution2: "'aalt' Access All Alternates lookup 0 subtable" p.sc
EndChar

StartChar: q
Encoding: 113 113 86
Width: 678
GlyphClass: 2
Flags: W
AnchorPoint: "Anchor-3" 314 526 basechar 0
AnchorPoint: "Anchor-0" 301 0 basechar 0
LayerCount: 2
Fore
SplineSet
308 -5 m 0,0,1
 233 -5 233 -5 173.5 29 c 128,-1,2
 114 63 114 63 80 123 c 128,-1,3
 46 183 46 183 46 263 c 0,4,5
 46 342 46 342 80 402.5 c 128,-1,6
 114 463 114 463 173.5 496.5 c 128,-1,7
 233 530 233 530 308 530 c 0,8,9
 378 530 378 530 432.5 499 c 128,-1,10
 487 468 487 468 519 408.5 c 128,-1,11
 551 349 551 349 551 263 c 256,12,13
 551 177 551 177 518.5 117.5 c 128,-1,14
 486 58 486 58 431.5 26.5 c 128,-1,15
 377 -5 377 -5 308 -5 c 0,0,1
313 58 m 0,16,17
 369 58 369 58 413.5 83.5 c 128,-1,18
 458 109 458 109 483.5 155.5 c 128,-1,19
 509 202 509 202 509 263 c 256,20,21
 509 324 509 324 483.5 370 c 128,-1,22
 458 416 458 416 413.5 442 c 128,-1,23
 369 468 369 468 313 468 c 0,24,25
 258 468 258 468 214 442 c 128,-1,26
 170 416 170 416 144 370 c 128,-1,27
 118 324 118 324 118 263 c 256,28,29
 118 202 118 202 144 155.5 c 128,-1,30
 170 109 170 109 214 83.5 c 128,-1,31
 258 58 258 58 313 58 c 0,16,17
508 -194 m 1,32,-1
 508 156 l 1,33,-1
 518 262 l 1,34,-1
 511 367 l 1,35,-1
 511 525 l 1,36,-1
 579 525 l 1,37,-1
 579 -194 l 1,38,-1
 508 -194 l 1,32,-1
EndSplineSet
Validated: 5
Substitution2: "'smcp' Lowercase to Small Capitals lookup 46 subtable" q.sc
Substitution2: "'aalt' Access All Alternates lookup 0 subtable" q.sc
EndChar

StartChar: r
Encoding: 114 114 87
Width: 401
GlyphClass: 2
Flags: W
AnchorPoint: "Anchor-3" 232 526 basechar 0
AnchorPoint: "Anchor-0" 141 0 basechar 0
LayerCount: 2
Fore
SplineSet
99 0 m 1,0,-1
 99 525 l 1,1,-1
 167 525 l 1,2,-1
 167 382 l 1,3,-1
 160 407 l 1,4,5
 182 467 182 467 234 498.5 c 128,-1,6
 286 530 286 530 363 530 c 1,7,-1
 363 461 l 1,8,9
 359 461 359 461 355 461.5 c 128,-1,10
 351 462 351 462 347 462 c 0,11,12
 264 462 264 462 217 411.5 c 128,-1,13
 170 361 170 361 170 268 c 2,14,-1
 170 0 l 1,15,-1
 99 0 l 1,0,-1
EndSplineSet
Validated: 5
Substitution2: "'smcp' Lowercase to Small Capitals lookup 46 subtable" r.sc
Substitution2: "'aalt' Access All Alternates lookup 0 subtable" r.sc
EndChar

StartChar: s
Encoding: 115 115 88
Width: 488
GlyphClass: 2
Flags: W
AnchorPoint: "Anchor-3" 243 526 basechar 0
AnchorPoint: "Anchor-1" 243 263 basechar 0
AnchorPoint: "Anchor-0" 243 0 basechar 0
LayerCount: 2
Fore
SplineSet
240 -5 m 0,0,1
 175 -5 175 -5 117 13.5 c 128,-1,2
 59 32 59 32 26 60 c 1,3,-1
 58 116 l 1,4,5
 90 92 90 92 140 74.5 c 128,-1,6
 190 57 190 57 245 57 c 0,7,8
 320 57 320 57 353 80.5 c 128,-1,9
 386 104 386 104 386 143 c 0,10,11
 386 172 386 172 367.5 188.5 c 128,-1,12
 349 205 349 205 319 213.5 c 128,-1,13
 289 222 289 222 252 228 c 128,-1,14
 215 234 215 234 178.5 242 c 128,-1,15
 142 250 142 250 112 265.5 c 128,-1,16
 82 281 82 281 63.5 308 c 128,-1,17
 45 335 45 335 45 380 c 0,18,19
 45 423 45 423 69 457 c 128,-1,20
 93 491 93 491 139.5 510.5 c 128,-1,21
 186 530 186 530 253 530 c 0,22,23
 304 530 304 530 355 516.5 c 128,-1,24
 406 503 406 503 439 481 c 1,25,-1
 408 424 l 1,26,27
 373 448 373 448 333 458.5 c 128,-1,28
 293 469 293 469 253 469 c 0,29,30
 182 469 182 469 148.5 444.5 c 128,-1,31
 115 420 115 420 115 382 c 0,32,33
 115 352 115 352 133.5 335 c 128,-1,34
 152 318 152 318 182.5 308.5 c 128,-1,35
 213 299 213 299 249.5 293 c 128,-1,36
 286 287 286 287 322.5 278.5 c 128,-1,37
 359 270 359 270 389.5 255.5 c 128,-1,38
 420 241 420 241 438.5 214.5 c 128,-1,39
 457 188 457 188 457 145 c 0,40,41
 457 99 457 99 431.5 65.5 c 128,-1,42
 406 32 406 32 357.5 13.5 c 128,-1,43
 309 -5 309 -5 240 -5 c 0,0,1
EndSplineSet
Validated: 1
Substitution2: "'smcp' Lowercase to Small Capitals lookup 46 subtable" s.sc
Substitution2: "'aalt' Access All Alternates lookup 0 subtable" s.sc
EndChar

StartChar: t
Encoding: 116 116 89
Width: 406
GlyphClass: 2
Flags: W
AnchorPoint: "Anchor-4" 273 742 basechar 0
AnchorPoint: "Anchor-3" 147 641 basechar 0
AnchorPoint: "Anchor-1" 174 270 basechar 0
AnchorPoint: "Anchor-0" 249 0 basechar 0
LayerCount: 2
Fore
SplineSet
265 -5 m 0,0,1
 191 -5 191 -5 151 35 c 128,-1,2
 111 75 111 75 111 148 c 2,3,-1
 111 641 l 1,4,-1
 182 641 l 1,5,-1
 182 152 l 2,6,7
 182 106 182 106 205.5 81 c 128,-1,8
 229 56 229 56 273 56 c 0,9,10
 320 56 320 56 351 83 c 1,11,-1
 376 32 l 1,12,13
 355 13 355 13 325.5 4 c 128,-1,14
 296 -5 296 -5 265 -5 c 0,0,1
17 466 m 5,15,-1
 17 525 l 5,16,-1
 342 525 l 5,17,-1
 342 466 l 5,18,-1
 17 466 l 5,15,-1
EndSplineSet
Validated: 5
Substitution2: "'ss01' Style Set 1 lookup 50 subtable" t.ss01
Substitution2: "'smcp' Lowercase to Small Capitals lookup 46 subtable" t.sc
AlternateSubs2: "'aalt' Access All Alternates lookup 1 subtable" t.sc t.ss01
EndChar

StartChar: u
Encoding: 117 117 90
Width: 672
GlyphClass: 2
Flags: W
AnchorPoint: "Anchor-4" 539 526 basechar 0
AnchorPoint: "Anchor-3" 334 526 basechar 0
AnchorPoint: "Anchor-2" 573 0 basechar 0
AnchorPoint: "Anchor-1" 334 270 basechar 0
AnchorPoint: "Anchor-0" 334 0 basechar 0
LayerCount: 2
Fore
SplineSet
316 -5 m 0,0,1
 249 -5 249 -5 199 20 c 128,-1,2
 149 45 149 45 121.5 95 c 128,-1,3
 94 145 94 145 94 220 c 2,4,-1
 94 525 l 1,5,-1
 165 525 l 1,6,-1
 165 228 l 2,7,8
 165 144 165 144 206.5 101.5 c 128,-1,9
 248 59 248 59 323 59 c 0,10,11
 378 59 378 59 418.5 81.5 c 128,-1,12
 459 104 459 104 480.5 147 c 128,-1,13
 502 190 502 190 502 250 c 2,14,-1
 502 525 l 1,15,-1
 573 525 l 1,16,-1
 573 0 l 1,17,-1
 505 0 l 1,18,-1
 505 144 l 1,19,-1
 516 118 l 1,20,21
 491 60 491 60 438.5 27.5 c 128,-1,22
 386 -5 386 -5 316 -5 c 0,0,1
EndSplineSet
Validated: 5
Substitution2: "'smcp' Lowercase to Small Capitals lookup 46 subtable" u.sc
Substitution2: "'aalt' Access All Alternates lookup 0 subtable" u.sc
EndChar

StartChar: v
Encoding: 118 118 91
Width: 542
GlyphClass: 2
Flags: W
AnchorPoint: "Anchor-3" 271 526 basechar 0
AnchorPoint: "Anchor-2" 307 0 basechar 0
AnchorPoint: "Anchor-0" 271 0 basechar 0
LayerCount: 2
Fore
SplineSet
234 0 m 1,0,-1
 1 525 l 1,1,-1
 75 525 l 1,2,-1
 289 38 l 1,3,-1
 254 38 l 1,4,-1
 471 525 l 1,5,-1
 541 525 l 1,6,-1
 307 0 l 1,7,-1
 234 0 l 1,0,-1
EndSplineSet
Validated: 5
Substitution2: "'smcp' Lowercase to Small Capitals lookup 46 subtable" v.sc
Substitution2: "'aalt' Access All Alternates lookup 0 subtable" v.sc
EndChar

StartChar: w
Encoding: 119 119 92
Width: 987
GlyphClass: 2
Flags: W
AnchorPoint: "Anchor-3" 498 526 basechar 0
AnchorPoint: "Anchor-0" 498 0 basechar 0
LayerCount: 2
Fore
SplineSet
947 525 m 1,0,-1
 947 228 l 2,1,2
 947 -4 947 -4 712.5 -4.5 c 132,-1,3
 478 -5 478 -5 478 228 c 1,4,-1
 547 229 l 1,5,6
 547 -5 547 -5 315 -5 c 0,7,8
 79 -4 79 -4 79 230 c 2,9,-1
 79 498 l 1,10,-1
 150 525 l 1,11,-1
 150 237 l 2,12,13
 150 59 150 59 313 59 c 0,14,15
 477 59 477 59 477 239 c 2,16,-1
 477 525 l 1,17,-1
 548 525 l 1,18,-1
 548 227 l 2,19,20
 548 59 548 59 710 59 c 0,21,22
 876 59 876 59 876 249 c 2,23,-1
 876 525 l 1,24,-1
 947 525 l 1,0,-1
20 525 m 1,25,-1
 150 525 l 1,26,-1
 136 466 l 1,27,-1
 20 466 l 1,28,-1
 20 525 l 1,25,-1
EndSplineSet
Substitution2: "'ss01' Style Set 1 lookup 50 subtable" w.ss01
Substitution2: "'smcp' Lowercase to Small Capitals lookup 46 subtable" w.sc
AlternateSubs2: "'aalt' Access All Alternates lookup 1 subtable" w.sc w.ss01
EndChar

StartChar: x
Encoding: 120 120 93
Width: 534
GlyphClass: 2
Flags: W
AnchorPoint: "Anchor-3" 267 526 basechar 0
AnchorPoint: "Anchor-0" 267 0 basechar 0
LayerCount: 2
Fore
SplineSet
19 0 m 1,0,-1
 241 288 l 1,1,-1
 240 253 l 1,2,-1
 29 525 l 1,3,-1
 109 525 l 1,4,-1
 282 300 l 1,5,-1
 252 301 l 1,6,-1
 425 525 l 1,7,-1
 503 525 l 1,8,-1
 290 250 l 1,9,-1
 291 288 l 1,10,-1
 515 0 l 1,11,-1
 434 0 l 1,12,-1
 251 240 l 1,13,-1
 279 236 l 1,14,-1
 99 0 l 1,15,-1
 19 0 l 1,0,-1
EndSplineSet
Validated: 5
Substitution2: "'smcp' Lowercase to Small Capitals lookup 46 subtable" x.sc
Substitution2: "'aalt' Access All Alternates lookup 0 subtable" x.sc
EndChar

StartChar: y
Encoding: 121 121 94
Width: 542
GlyphClass: 2
Flags: W
AnchorPoint: "Anchor-3" 257 526 basechar 0
AnchorPoint: "Anchor-2" 139 -194 basechar 0
AnchorPoint: "Anchor-0" 388 0 basechar 0
LayerCount: 2
Fore
SplineSet
103 -199 m 0,0,1
 66 -199 66 -199 32.5 -187 c 128,-1,2
 -1 -175 -1 -175 -25 -151 c 1,3,-1
 8 -98 l 1,4,5
 28 -117 28 -117 51.5 -127.5 c 128,-1,6
 75 -138 75 -138 104 -138 c 0,7,8
 139 -138 139 -138 164.5 -118.5 c 128,-1,9
 190 -99 190 -99 213 -50 c 2,10,-1
 247 27 l 1,11,-1
 255 38 l 1,12,-1
 471 525 l 1,13,-1
 541 525 l 1,14,-1
 278 -63 l 2,15,16
 256 -114 256 -114 229.5 -144 c 128,-1,17
 203 -174 203 -174 172 -186.5 c 128,-1,18
 141 -199 141 -199 103 -199 c 0,0,1
243 -15 m 1,19,-1
 1 525 l 1,20,-1
 75 525 l 1,21,-1
 289 43 l 1,22,-1
 243 -15 l 1,19,-1
EndSplineSet
Validated: 5
Substitution2: "'ss01' Style Set 1 lookup 50 subtable" y.ss01
Substitution2: "'smcp' Lowercase to Small Capitals lookup 46 subtable" y.sc
AlternateSubs2: "'aalt' Access All Alternates lookup 1 subtable" y.sc y.ss01
EndChar

StartChar: z
Encoding: 122 122 95
Width: 511
GlyphClass: 2
Flags: W
AnchorPoint: "Anchor-4" 414 742 basechar 0
AnchorPoint: "Anchor-3" 256 526 basechar 0
AnchorPoint: "Anchor-2" 470 0 basechar 0
AnchorPoint: "Anchor-0" 264 0 basechar 0
LayerCount: 2
Fore
SplineSet
42 0 m 1,0,-1
 42 47 l 1,1,-1
 392 490 l 1,2,-1
 407 466 l 1,3,-1
 48 466 l 1,4,-1
 48 525 l 1,5,-1
 463 525 l 1,6,-1
 463 479 l 1,7,-1
 114 35 l 1,8,-1
 96 59 l 1,9,-1
 470 59 l 1,10,-1
 470 0 l 1,11,-1
 42 0 l 1,0,-1
EndSplineSet
Validated: 5
Substitution2: "'ss01' Style Set 1 lookup 50 subtable" z.ss01
Substitution2: "'smcp' Lowercase to Small Capitals lookup 46 subtable" z.sc
AlternateSubs2: "'aalt' Access All Alternates lookup 1 subtable" z.sc z.ss01
EndChar

StartChar: braceleft
Encoding: 123 123 96
Width: 334
GlyphClass: 1
Flags: W
LayerCount: 2
Fore
SplineSet
275 -194 m 2,0,1
 208 -194 208 -194 173.5 -160.5 c 128,-1,2
 139 -127 139 -127 139 -61 c 2,3,-1
 139 193 l 2,4,5
 139 220 139 220 127.5 232 c 128,-1,6
 116 244 116 244 94 244 c 2,7,-1
 60 244 l 1,8,-1
 60 304 l 1,9,-1
 94 304 l 2,10,11
 116 304 116 304 127.5 316 c 128,-1,12
 139 328 139 328 139 355 c 2,13,-1
 139 609 l 2,14,15
 139 676 139 676 173.5 709 c 128,-1,16
 208 742 208 742 275 742 c 2,17,-1
 313 742 l 1,18,-1
 313 683 l 1,19,-1
 286 683 l 2,20,21
 248 683 248 683 229 662 c 128,-1,22
 210 641 210 641 210 603 c 2,23,-1
 210 356 l 2,24,25
 210 326 210 326 203 309 c 128,-1,26
 196 292 196 292 181.5 283 c 128,-1,27
 167 274 167 274 144 269 c 1,28,-1
 144 279 l 1,29,30
 167 275 167 275 181.5 265.5 c 128,-1,31
 196 256 196 256 203 239 c 128,-1,32
 210 222 210 222 210 192 c 2,33,-1
 210 -55 l 2,34,35
 210 -93 210 -93 229 -114 c 128,-1,36
 248 -135 248 -135 286 -135 c 2,37,-1
 313 -135 l 1,38,-1
 313 -194 l 1,39,-1
 275 -194 l 2,0,1
EndSplineSet
Validated: 5
Substitution2: "'case' Case-Sensitive Forms lookup 47 subtable" braceleft.case
Substitution2: "'aalt' Access All Alternates lookup 0 subtable" braceleft.case
EndChar

StartChar: bar
Encoding: 124 124 97
Width: 294
GlyphClass: 1
Flags: W
LayerCount: 2
Fore
SplineSet
114 -194 m 1,0,-1
 114 742 l 1,1,-1
 180 742 l 1,2,-1
 180 -194 l 1,3,-1
 114 -194 l 1,0,-1
EndSplineSet
Validated: 1
EndChar

StartChar: braceright
Encoding: 125 125 98
Width: 334
GlyphClass: 1
Flags: W
LayerCount: 2
Fore
SplineSet
21 -194 m 1,0,-1
 21 -135 l 1,1,-1
 48 -135 l 2,2,3
 87 -135 87 -135 105.5 -114 c 128,-1,4
 124 -93 124 -93 124 -55 c 2,5,-1
 124 192 l 2,6,7
 124 222 124 222 131 239 c 128,-1,8
 138 256 138 256 153 265.5 c 128,-1,9
 168 275 168 275 190 279 c 1,10,-1
 190 269 l 1,11,12
 168 274 168 274 153 283 c 128,-1,13
 138 292 138 292 131 309 c 128,-1,14
 124 326 124 326 124 356 c 2,15,-1
 124 603 l 2,16,17
 124 641 124 641 105.5 662 c 128,-1,18
 87 683 87 683 48 683 c 2,19,-1
 21 683 l 1,20,-1
 21 742 l 1,21,-1
 58 742 l 2,22,23
 126 742 126 742 160.5 709 c 128,-1,24
 195 676 195 676 195 609 c 2,25,-1
 195 355 l 2,26,27
 195 328 195 328 207 316 c 128,-1,28
 219 304 219 304 240 304 c 2,29,-1
 274 304 l 1,30,-1
 274 244 l 1,31,-1
 240 244 l 2,32,33
 219 244 219 244 207 232 c 128,-1,34
 195 220 195 220 195 193 c 2,35,-1
 195 -61 l 2,36,37
 195 -127 195 -127 160.5 -160.5 c 128,-1,38
 126 -194 126 -194 58 -194 c 2,39,-1
 21 -194 l 1,0,-1
EndSplineSet
Validated: 5
Substitution2: "'case' Case-Sensitive Forms lookup 47 subtable" braceright.case
Substitution2: "'aalt' Access All Alternates lookup 0 subtable" braceright.case
EndChar

StartChar: asciitilde
Encoding: 126 126 99
Width: 575
GlyphClass: 1
Flags: W
LayerCount: 2
Fore
SplineSet
389 272 m 0,0,1
 353 272 353 272 326.5 287.5 c 128,-1,2
 300 303 300 303 278 323 c 128,-1,3
 256 343 256 343 235 358 c 128,-1,4
 214 373 214 373 188 373 c 0,5,6
 153 373 153 373 132.5 347.5 c 128,-1,7
 112 322 112 322 110 278 c 1,8,-1
 62 278 l 1,9,10
 64 353 64 353 98.5 391 c 128,-1,11
 133 429 133 429 186 429 c 0,12,13
 222 429 222 429 248.5 413.5 c 128,-1,14
 275 398 275 398 296.5 378 c 128,-1,15
 318 358 318 358 339.5 342.5 c 128,-1,16
 361 327 361 327 387 327 c 0,17,18
 422 327 422 327 443 353.5 c 128,-1,19
 464 380 464 380 465 423 c 1,20,-1
 513 423 l 1,21,22
 511 348 511 348 477 310 c 128,-1,23
 443 272 443 272 389 272 c 0,0,1
EndSplineSet
Validated: 1
EndChar

StartChar: exclamdown
Encoding: 161 161 101
Width: 260
GlyphClass: 1
Flags: W
LayerCount: 2
Fore
SplineSet
88 -154 m 1,0,-1
 102 315 l 1,1,-1
 157 315 l 1,2,-1
 172 -154 l 1,3,-1
 88 -154 l 1,0,-1
130 427 m 0,4,5
 108 427 108 427 92.5 442 c 128,-1,6
 77 457 77 457 77 478 c 0,7,8
 77 500 77 500 92.5 515 c 128,-1,9
 108 530 108 530 130 530 c 0,10,11
 153 530 153 530 167.5 515 c 128,-1,12
 182 500 182 500 182 478 c 0,13,14
 182 457 182 457 167.5 442 c 128,-1,15
 153 427 153 427 130 427 c 0,4,5
EndSplineSet
Validated: 1
Substitution2: "'case' Case-Sensitive Forms lookup 47 subtable" exclamdown.case
Substitution2: "'smcp' Lowercase to Small Capitals lookup 46 subtable" exclamdown.sc
Substitution2: "'c2sc' Capitals to Small Capitals lookup 45 subtable" exclamdown.sc
AlternateSubs2: "'aalt' Access All Alternates lookup 1 subtable" exclamdown.sc exclamdown.case
EndChar

StartChar: cent
Encoding: 162 162 102
Width: 563
GlyphClass: 1
Flags: W
LayerCount: 2
Fore
SplineSet
317 -5 m 0,0,1
 239 -5 239 -5 177.5 29.5 c 128,-1,2
 116 64 116 64 81 124.5 c 128,-1,3
 46 185 46 185 46 263 c 0,4,5
 46 342 46 342 81 402 c 128,-1,6
 116 462 116 462 177.5 496 c 128,-1,7
 239 530 239 530 317 530 c 0,8,9
 384 530 384 530 438 504 c 128,-1,10
 492 478 492 478 523 426 c 1,11,-1
 470 390 l 1,12,13
 443 430 443 430 403 449 c 128,-1,14
 363 468 363 468 316 468 c 0,15,16
 260 468 260 468 215 442.5 c 128,-1,17
 170 417 170 417 144 371 c 128,-1,18
 118 325 118 325 118 263 c 256,19,20
 118 201 118 201 144 155 c 128,-1,21
 170 109 170 109 215 83.5 c 128,-1,22
 260 58 260 58 316 58 c 0,23,24
 363 58 363 58 403 77 c 128,-1,25
 443 96 443 96 470 135 c 1,26,-1
 523 99 l 1,27,28
 492 48 492 48 438 21.5 c 128,-1,29
 384 -5 384 -5 317 -5 c 0,0,1
286 -120 m 1,30,-1
 286 645 l 1,31,-1
 335 645 l 1,32,-1
 335 -120 l 1,33,-1
 286 -120 l 1,30,-1
EndSplineSet
Validated: 5
EndChar

StartChar: sterling
Encoding: 163 163 103
Width: 637
GlyphClass: 1
Flags: W
LayerCount: 2
Fore
SplineSet
143 13 m 1,0,-1
 143 459 l 2,1,2
 143 534 143 534 174.5 589.5 c 128,-1,3
 206 645 206 645 268.5 675.5 c 128,-1,4
 331 706 331 706 421 706 c 0,5,6
 482 706 482 706 531.5 693.5 c 128,-1,7
 581 681 581 681 621 653 c 1,8,-1
 594 592 l 1,9,10
 558 618 558 618 512.5 629 c 128,-1,11
 467 640 467 640 415 640 c 0,12,13
 315 640 315 640 265.5 593 c 128,-1,14
 216 546 216 546 216 459 c 2,15,-1
 216 13 l 1,16,-1
 143 13 l 1,0,-1
30 0 m 1,17,-1
 30 64 l 1,18,-1
 608 64 l 1,19,-1
 608 0 l 1,20,-1
 30 0 l 1,17,-1
30 325 m 1,21,-1
 30 375 l 1,22,-1
 493 375 l 1,23,-1
 493 325 l 1,24,-1
 30 325 l 1,21,-1
EndSplineSet
Validated: 5
EndChar

StartChar: currency
Encoding: 164 164 104
Width: 700
GlyphClass: 1
Flags: W
LayerCount: 2
Fore
SplineSet
350 52 m 0,0,1
 294 52 294 52 244 73 c 128,-1,2
 194 94 194 94 156.5 130.5 c 128,-1,3
 119 167 119 167 97.5 215 c 128,-1,4
 76 263 76 263 76 318 c 256,5,6
 76 373 76 373 97.5 421.5 c 128,-1,7
 119 470 119 470 156.5 507 c 128,-1,8
 194 544 194 544 244 565 c 128,-1,9
 294 586 294 586 350 586 c 0,10,11
 407 586 407 586 457 565 c 128,-1,12
 507 544 507 544 545 507 c 128,-1,13
 583 470 583 470 604.5 421.5 c 128,-1,14
 626 373 626 373 626 318 c 256,15,16
 626 263 626 263 604.5 215 c 128,-1,17
 583 167 583 167 545 130.5 c 128,-1,18
 507 94 507 94 457 73 c 128,-1,19
 407 52 407 52 350 52 c 0,0,1
75 0 m 1,20,-1
 34 45 l 1,21,-1
 151 162 l 1,22,-1
 193 117 l 1,23,-1
 75 0 l 1,20,-1
151 473 m 1,24,-1
 34 590 l 1,25,-1
 75 635 l 1,26,-1
 193 518 l 1,27,-1
 151 473 l 1,24,-1
624 0 m 1,28,-1
 507 117 l 1,29,-1
 549 162 l 1,30,-1
 666 45 l 1,31,-1
 624 0 l 1,28,-1
350 112 m 0,32,33
 410 112 410 112 459 140 c 128,-1,34
 508 168 508 168 537.5 214.5 c 128,-1,35
 567 261 567 261 567 318 c 256,36,37
 567 375 567 375 537.5 422 c 128,-1,38
 508 469 508 469 459 497.5 c 128,-1,39
 410 526 410 526 350 526 c 0,40,41
 291 526 291 526 242 497.5 c 128,-1,42
 193 469 193 469 164 422 c 128,-1,43
 135 375 135 375 135 318 c 256,44,45
 135 261 135 261 164 214.5 c 128,-1,46
 193 168 193 168 242 140 c 128,-1,47
 291 112 291 112 350 112 c 0,32,33
549 473 m 1,48,-1
 507 518 l 1,49,-1
 624 635 l 1,50,-1
 666 590 l 1,51,-1
 549 473 l 1,48,-1
EndSplineSet
Validated: 5
EndChar

StartChar: yen
Encoding: 165 165 105
Width: 695
GlyphClass: 1
Flags: W
LayerCount: 2
Fore
SplineSet
311 0 m 1,0,-1
 311 304 l 1,1,-1
 328 255 l 1,2,-1
 1 700 l 1,3,-1
 79 700 l 1,4,-1
 370 306 l 1,5,-1
 327 306 l 1,6,-1
 618 700 l 1,7,-1
 694 700 l 1,8,-1
 367 255 l 1,9,-1
 384 304 l 1,10,-1
 384 0 l 1,11,-1
 311 0 l 1,0,-1
91 130 m 1,12,-1
 91 174 l 1,13,-1
 604 174 l 1,14,-1
 604 130 l 1,15,-1
 91 130 l 1,12,-1
91 268 m 1,16,-1
 91 312 l 1,17,-1
 604 312 l 1,18,-1
 604 268 l 1,19,-1
 91 268 l 1,16,-1
EndSplineSet
Validated: 5
EndChar

StartChar: brokenbar
Encoding: 166 166 106
Width: 294
GlyphClass: 1
Flags: W
LayerCount: 2
Fore
SplineSet
114 392 m 1,0,-1
 114 742 l 1,1,-1
 180 742 l 1,2,-1
 180 392 l 1,3,-1
 114 392 l 1,0,-1
114 -194 m 1,4,-1
 114 156 l 1,5,-1
 180 156 l 1,6,-1
 180 -194 l 1,7,-1
 114 -194 l 1,4,-1
EndSplineSet
Validated: 1
EndChar

StartChar: section
Encoding: 167 167 107
Width: 490
GlyphClass: 1
Flags: W
LayerCount: 2
Fore
SplineSet
230 -105 m 0,0,1
 192 -105 192 -105 153 -96.5 c 128,-1,2
 114 -88 114 -88 81.5 -73 c 128,-1,3
 49 -58 49 -58 28 -39 c 1,4,-1
 52 16 l 1,5,6
 83 -10 83 -10 131.5 -28.5 c 128,-1,7
 180 -47 180 -47 232 -47 c 0,8,9
 295 -47 295 -47 331 -22.5 c 128,-1,10
 367 2 367 2 367 49 c 0,11,12
 367 81 367 81 349 99.5 c 128,-1,13
 331 118 331 118 302.5 129.5 c 128,-1,14
 274 141 274 141 239 149.5 c 128,-1,15
 204 158 204 158 168.5 167.5 c 128,-1,16
 133 177 133 177 104 193.5 c 128,-1,17
 75 210 75 210 57 238 c 128,-1,18
 39 266 39 266 39 310 c 0,19,20
 39 364 39 364 71.5 400.5 c 128,-1,21
 104 437 104 437 152 452 c 1,22,-1
 202 415 l 1,23,24
 160 408 160 408 131 382 c 128,-1,25
 102 356 102 356 102 313 c 0,26,27
 102 280 102 280 120 260.5 c 128,-1,28
 138 241 138 241 167 229 c 128,-1,29
 196 217 196 217 231.5 209 c 128,-1,30
 267 201 267 201 302 191 c 128,-1,31
 337 181 337 181 366.5 164.5 c 128,-1,32
 396 148 396 148 413.5 120.5 c 128,-1,33
 431 93 431 93 431 50 c 0,34,35
 431 3 431 3 406 -32 c 128,-1,36
 381 -67 381 -67 336 -86 c 128,-1,37
 291 -105 291 -105 230 -105 c 0,0,1
340 147 m 1,38,-1
 288 185 l 1,39,40
 332 192 332 192 361.5 218 c 128,-1,41
 391 244 391 244 391 288 c 0,42,43
 391 320 391 320 373 340 c 128,-1,44
 355 360 355 360 326 371.5 c 128,-1,45
 297 383 297 383 261.5 391.5 c 128,-1,46
 226 400 226 400 191.5 410 c 128,-1,47
 157 420 157 420 127.5 436 c 128,-1,48
 98 452 98 452 80 479 c 128,-1,49
 62 506 62 506 62 549 c 0,50,51
 62 597 62 597 88 632 c 128,-1,52
 114 667 114 667 162.5 686 c 128,-1,53
 211 705 211 705 279 705 c 0,54,55
 310 705 310 705 344 699 c 128,-1,56
 378 693 378 693 408.5 681.5 c 128,-1,57
 439 670 439 670 459 654 c 1,58,-1
 435 600 l 1,59,60
 401 624 401 624 359.5 635.5 c 128,-1,61
 318 647 318 647 274 647 c 0,62,63
 202 647 202 647 164 623 c 128,-1,64
 126 599 126 599 126 551 c 0,65,66
 126 520 126 520 144 501.5 c 128,-1,67
 162 483 162 483 191 472 c 128,-1,68
 220 461 220 461 255 452 c 128,-1,69
 290 443 290 443 325 433 c 128,-1,70
 360 423 360 423 389 406 c 128,-1,71
 418 389 418 389 436 361 c 128,-1,72
 454 333 454 333 454 288 c 0,73,74
 454 237 454 237 421.5 199.5 c 128,-1,75
 389 162 389 162 340 147 c 1,38,-1
EndSplineSet
Validated: 5
EndChar

StartChar: copyright
Encoding: 169 169 109
Width: 809
GlyphClass: 1
Flags: W
LayerCount: 2
Fore
SplineSet
404 -3 m 256,0,1
 329 -3 329 -3 265 24 c 128,-1,2
 201 51 201 51 153 99.5 c 128,-1,3
 105 148 105 148 78.5 212 c 128,-1,4
 52 276 52 276 52 350 c 256,5,6
 52 424 52 424 79 488 c 128,-1,7
 106 552 106 552 154 600.5 c 128,-1,8
 202 649 202 649 266.5 676 c 128,-1,9
 331 703 331 703 406 703 c 256,10,11
 481 703 481 703 545.5 676.5 c 128,-1,12
 610 650 610 650 657.5 602 c 128,-1,13
 705 554 705 554 731.5 490.5 c 128,-1,14
 758 427 758 427 758 352 c 256,15,16
 758 277 758 277 731 212.5 c 128,-1,17
 704 148 704 148 655.5 99.5 c 128,-1,18
 607 51 607 51 543 24 c 128,-1,19
 479 -3 479 -3 404 -3 c 256,0,1
403 34 m 0,20,21
 471 34 471 34 528 58.5 c 128,-1,22
 585 83 585 83 628.5 126 c 128,-1,23
 672 169 672 169 696 227.5 c 128,-1,24
 720 286 720 286 720 352 c 0,25,26
 720 419 720 419 696.5 476 c 128,-1,27
 673 533 673 533 630.5 576 c 128,-1,28
 588 619 588 619 530.5 642.5 c 128,-1,29
 473 666 473 666 406 666 c 0,30,31
 338 666 338 666 280 642 c 128,-1,32
 222 618 222 618 179.5 574.5 c 128,-1,33
 137 531 137 531 113 474 c 128,-1,34
 89 417 89 417 89 350 c 0,35,36
 89 284 89 284 113 226.5 c 128,-1,37
 137 169 137 169 179.5 125.5 c 128,-1,38
 222 82 222 82 279.5 58 c 128,-1,39
 337 34 337 34 403 34 c 0,20,21
413 142 m 0,40,41
 353 142 353 142 306 168.5 c 128,-1,42
 259 195 259 195 232 242 c 128,-1,43
 205 289 205 289 205 350 c 256,44,45
 205 411 205 411 232 458 c 128,-1,46
 259 505 259 505 306 531.5 c 128,-1,47
 353 558 353 558 413 558 c 0,48,49
 464 558 464 558 505.5 537.5 c 128,-1,50
 547 517 547 517 572 481 c 1,51,-1
 529 449 l 1,52,53
 508 478 508 478 478 492 c 128,-1,54
 448 506 448 506 412 506 c 0,55,56
 369 506 369 506 335.5 486.5 c 128,-1,57
 302 467 302 467 282 432 c 128,-1,58
 262 397 262 397 262 350 c 256,59,60
 262 303 262 303 282 268 c 128,-1,61
 302 233 302 233 335.5 213.5 c 128,-1,62
 369 194 369 194 412 194 c 0,63,64
 448 194 448 194 478 208 c 128,-1,65
 508 222 508 222 529 251 c 1,66,-1
 572 220 l 1,67,68
 547 183 547 183 505.5 162.5 c 128,-1,69
 464 142 464 142 413 142 c 0,40,41
EndSplineSet
Validated: 1
EndChar

StartChar: ordfeminine
Encoding: 170 170 110
Width: 401
GlyphClass: 1
Flags: W
LayerCount: 2
Fore
SplineSet
281 430 m 1,0,-1
 281 498 l 1,1,-1
 277 509 l 1,2,-1
 277 624 l 2,3,4
 277 665 277 665 254 684.5 c 128,-1,5
 231 704 231 704 185 704 c 0,6,7
 152 704 152 704 122.5 694.5 c 128,-1,8
 93 685 93 685 72 667 c 1,9,-1
 51 702 l 1,10,11
 76 722 76 722 113.5 734 c 128,-1,12
 151 746 151 746 190 746 c 0,13,14
 258 746 258 746 294 715.5 c 128,-1,15
 330 685 330 685 330 622 c 2,16,-1
 330 430 l 1,17,-1
 281 430 l 1,0,-1
164 427 m 0,18,19
 104 427 104 427 72.5 453 c 128,-1,20
 41 479 41 479 41 518 c 0,21,22
 41 556 41 556 71 582 c 128,-1,23
 101 608 101 608 172 608 c 2,24,-1
 287 608 l 1,25,-1
 287 573 l 1,26,-1
 178 573 l 2,27,28
 131 573 131 573 111 558.5 c 128,-1,29
 91 544 91 544 91 521 c 0,30,31
 91 494 91 494 113 479 c 128,-1,32
 135 464 135 464 175 464 c 0,33,34
 214 464 214 464 239 479 c 128,-1,35
 264 494 264 494 277 522 c 1,36,-1
 287 490 l 1,37,38
 276 462 276 462 244.5 444.5 c 128,-1,39
 213 427 213 427 164 427 c 0,18,19
EndSplineSet
Validated: 5
EndChar

StartChar: logicalnot
Encoding: 172 172 112
Width: 575
GlyphClass: 1
Flags: W
LayerCount: 2
Fore
SplineSet
442 141 m 1,0,-1
 442 321 l 1,1,-1
 70 321 l 1,2,-1
 70 380 l 1,3,-1
 505 380 l 1,4,-1
 505 141 l 1,5,-1
 442 141 l 1,0,-1
EndSplineSet
Validated: 1
EndChar

StartChar: registered
Encoding: 174 174 113
Width: 809
GlyphClass: 1
Flags: W
LayerCount: 2
Fore
SplineSet
404 -3 m 256,0,1
 329 -3 329 -3 265 24 c 128,-1,2
 201 51 201 51 153 99.5 c 128,-1,3
 105 148 105 148 78.5 212 c 128,-1,4
 52 276 52 276 52 350 c 256,5,6
 52 424 52 424 79 488 c 128,-1,7
 106 552 106 552 154 600.5 c 128,-1,8
 202 649 202 649 266.5 676 c 128,-1,9
 331 703 331 703 406 703 c 256,10,11
 481 703 481 703 545.5 676.5 c 128,-1,12
 610 650 610 650 657.5 602 c 128,-1,13
 705 554 705 554 731.5 490.5 c 128,-1,14
 758 427 758 427 758 352 c 256,15,16
 758 277 758 277 731 212.5 c 128,-1,17
 704 148 704 148 655.5 99.5 c 128,-1,18
 607 51 607 51 543 24 c 128,-1,19
 479 -3 479 -3 404 -3 c 256,0,1
533 148 m 1,20,-1
 432 304 l 1,21,-1
 486 304 l 1,22,-1
 587 148 l 1,23,-1
 533 148 l 1,20,-1
403 34 m 0,24,25
 471 34 471 34 528 58.5 c 128,-1,26
 585 83 585 83 628.5 126 c 128,-1,27
 672 169 672 169 696 227.5 c 128,-1,28
 720 286 720 286 720 352 c 0,29,30
 720 419 720 419 696.5 476 c 128,-1,31
 673 533 673 533 630.5 576 c 128,-1,32
 588 619 588 619 530.5 642.5 c 128,-1,33
 473 666 473 666 406 666 c 0,34,35
 338 666 338 666 280 642 c 128,-1,36
 222 618 222 618 179.5 574.5 c 128,-1,37
 137 531 137 531 113 474 c 128,-1,38
 89 417 89 417 89 350 c 0,39,40
 89 284 89 284 113 226.5 c 128,-1,41
 137 169 137 169 179.5 125.5 c 128,-1,42
 222 82 222 82 279.5 58 c 128,-1,43
 337 34 337 34 403 34 c 0,24,25
267 148 m 1,44,-1
 267 552 l 1,45,-1
 423 552 l 2,46,47
 498 552 498 552 540.5 515.5 c 128,-1,48
 583 479 583 479 583 418 c 0,49,50
 583 354 583 354 540.5 318 c 128,-1,51
 498 282 498 282 423 282 c 2,52,-1
 319 282 l 1,53,-1
 319 148 l 1,54,-1
 267 148 l 1,44,-1
318 326 m 1,55,-1
 420 326 l 2,56,57
 473 326 473 326 502.5 350 c 128,-1,58
 532 374 532 374 532 418 c 0,59,60
 532 461 532 461 502.5 484.5 c 128,-1,61
 473 508 473 508 420 508 c 2,62,-1
 318 508 l 1,63,-1
 318 326 l 1,55,-1
EndSplineSet
Validated: 5
EndChar

StartChar: degree
Encoding: 176 176 115
Width: 419
GlyphClass: 1
Flags: W
LayerCount: 2
Fore
SplineSet
209 388 m 0,0,1
 165 388 165 388 128.5 409.5 c 128,-1,2
 92 431 92 431 71 466.5 c 128,-1,3
 50 502 50 502 50 547 c 0,4,5
 50 591 50 591 71 627 c 128,-1,6
 92 663 92 663 128.5 684 c 128,-1,7
 165 705 165 705 209 705 c 0,8,9
 254 705 254 705 290.5 684 c 128,-1,10
 327 663 327 663 348 627 c 128,-1,11
 369 591 369 591 369 547 c 256,12,13
 369 503 369 503 348 467 c 128,-1,14
 327 431 327 431 290.5 409.5 c 128,-1,15
 254 388 254 388 209 388 c 0,0,1
210 430 m 0,16,17
 242 430 242 430 268.5 446 c 128,-1,18
 295 462 295 462 310 488 c 128,-1,19
 325 514 325 514 325 547 c 256,20,21
 325 580 325 580 310 606.5 c 128,-1,22
 295 633 295 633 268.5 648 c 128,-1,23
 242 663 242 663 210 663 c 0,24,25
 177 663 177 663 150.5 648 c 128,-1,26
 124 633 124 633 109 606.5 c 128,-1,27
 94 580 94 580 94 547 c 256,28,29
 94 514 94 514 109 487.5 c 128,-1,30
 124 461 124 461 150.5 445.5 c 128,-1,31
 177 430 177 430 210 430 c 0,16,17
EndSplineSet
Validated: 1
EndChar

StartChar: plusminus
Encoding: 177 177 116
Width: 575
GlyphClass: 1
Flags: W
LayerCount: 2
Fore
SplineSet
256 173 m 1,0,-1
 256 591 l 1,1,-1
 319 591 l 1,2,-1
 319 173 l 1,3,-1
 256 173 l 1,0,-1
70 0 m 1,4,-1
 70 59 l 1,5,-1
 505 59 l 1,6,-1
 505 0 l 1,7,-1
 70 0 l 1,4,-1
70 352 m 1,8,-1
 70 412 l 1,9,-1
 505 412 l 1,10,-1
 505 352 l 1,11,-1
 70 352 l 1,8,-1
EndSplineSet
Validated: 5
EndChar

StartChar: paragraph
Encoding: 182 182 121
Width: 632
GlyphClass: 1
Flags: W
LayerCount: 2
Fore
SplineSet
226 -100 m 1,0,-1
 226 395 l 1,1,2
 166 396 166 396 119.5 417.5 c 128,-1,3
 73 439 73 439 47 478 c 128,-1,4
 21 517 21 517 21 569 c 0,5,6
 21 623 21 623 47.5 661.5 c 128,-1,7
 74 700 74 700 122.5 721 c 128,-1,8
 171 742 171 742 236 742 c 2,9,-1
 518 742 l 1,10,-1
 518 -100 l 1,11,-1
 458 -100 l 1,12,-1
 458 686 l 1,13,-1
 286 686 l 1,14,-1
 286 -100 l 1,15,-1
 226 -100 l 1,0,-1
EndSplineSet
Validated: 1
EndChar

StartChar: periodcentered
Encoding: 183 183 122
Width: 252
GlyphClass: 1
Flags: W
LayerCount: 2
Fore
SplineSet
126 216 m 0,0,1
 104 216 104 216 88.5 232 c 128,-1,2
 73 248 73 248 73 271 c 0,3,4
 73 295 73 295 88.5 310.5 c 128,-1,5
 104 326 104 326 126 326 c 0,6,7
 149 326 149 326 164 310.5 c 128,-1,8
 179 295 179 295 179 271 c 0,9,10
 179 248 179 248 164 232 c 128,-1,11
 149 216 149 216 126 216 c 0,0,1
EndSplineSet
Validated: 1
Substitution2: "'case' Case-Sensitive Forms lookup 47 subtable" periodcentered.case
Substitution2: "Single Substitution lookup 23 subtable" periodcentered.loclCAT.case
Substitution2: "Single Substitution lookup 22 subtable" periodcentered.loclCAT
AlternateSubs2: "'aalt' Access All Alternates lookup 1 subtable" periodcentered.loclCAT periodcentered.loclCAT.case periodcentered.case
EndChar

StartChar: ordmasculine
Encoding: 186 186 125
Width: 414
GlyphClass: 1
Flags: W
LayerCount: 2
Fore
SplineSet
207 427 m 256,0,1
 157 427 157 427 118 447.5 c 128,-1,2
 79 468 79 468 56.5 504.5 c 128,-1,3
 34 541 34 541 34 587 c 0,4,5
 34 634 34 634 56.5 669.5 c 128,-1,6
 79 705 79 705 118 725.5 c 128,-1,7
 157 746 157 746 207 746 c 256,8,9
 257 746 257 746 296 725.5 c 128,-1,10
 335 705 335 705 357.5 669.5 c 128,-1,11
 380 634 380 634 380 587 c 0,12,13
 380 541 380 541 357.5 504.5 c 128,-1,14
 335 468 335 468 296 447.5 c 128,-1,15
 257 427 257 427 207 427 c 256,0,1
207 472 m 256,16,17
 260 472 260 472 294 504 c 128,-1,18
 328 536 328 536 328 587 c 0,19,20
 328 639 328 639 294 670.5 c 128,-1,21
 260 702 260 702 207 702 c 256,22,23
 154 702 154 702 120 670 c 128,-1,24
 86 638 86 638 86 587 c 256,25,26
 86 536 86 536 120 504 c 128,-1,27
 154 472 154 472 207 472 c 256,16,17
EndSplineSet
Validated: 1
EndChar

StartChar: questiondown
Encoding: 191 191 130
Width: 567
GlyphClass: 1
Flags: W
LayerCount: 2
Fore
SplineSet
305 -160 m 0,0,1
 235 -160 235 -160 183.5 -139 c 128,-1,2
 132 -118 132 -118 103.5 -80 c 128,-1,3
 75 -42 75 -42 75 8 c 0,4,5
 75 49 75 49 88.5 78.5 c 128,-1,6
 102 108 102 108 123 130 c 128,-1,7
 144 152 144 152 166.5 171.5 c 128,-1,8
 189 191 189 191 210.5 211 c 128,-1,9
 232 231 232 231 245 256 c 128,-1,10
 258 281 258 281 258 315 c 1,11,-1
 332 315 l 1,12,13
 332 276 332 276 318.5 247.5 c 128,-1,14
 305 219 305 219 284.5 196.5 c 128,-1,15
 264 174 264 174 240.5 154.5 c 128,-1,16
 217 135 217 135 196.5 115 c 128,-1,17
 176 95 176 95 162.5 71 c 128,-1,18
 149 47 149 47 149 16 c 0,19,20
 149 -31 149 -31 191 -64 c 128,-1,21
 233 -97 233 -97 310 -97 c 0,22,23
 374 -97 374 -97 421 -76.5 c 128,-1,24
 468 -56 468 -56 501 -16 c 1,25,-1
 554 -56 l 1,26,27
 514 -105 514 -105 451.5 -132.5 c 128,-1,28
 389 -160 389 -160 305 -160 c 0,0,1
295 427 m 256,29,30
 273 427 273 427 258 442 c 128,-1,31
 243 457 243 457 243 478 c 0,32,33
 243 500 243 500 258 515 c 128,-1,34
 273 530 273 530 295 530 c 256,35,36
 317 530 317 530 332 515 c 128,-1,37
 347 500 347 500 347 478 c 0,38,39
 347 457 347 457 332 442 c 128,-1,40
 317 427 317 427 295 427 c 256,29,30
EndSplineSet
Validated: 1
Substitution2: "'case' Case-Sensitive Forms lookup 47 subtable" questiondown.case
Substitution2: "'smcp' Lowercase to Small Capitals lookup 46 subtable" questiondown.sc
Substitution2: "'c2sc' Capitals to Small Capitals lookup 45 subtable" questiondown.sc
AlternateSubs2: "'aalt' Access All Alternates lookup 1 subtable" questiondown.sc questiondown.case
EndChar

StartChar: AE
Encoding: 198 198 137
Width: 1033
GlyphClass: 2
Flags: W
AnchorPoint: "Anchor-3" 616 700 basechar 0
AnchorPoint: "Anchor-2" 973 0 basechar 0
AnchorPoint: "Anchor-0" 515 0 basechar 0
LayerCount: 2
Fore
SplineSet
2 0 m 1,0,-1
 429 700 l 1,1,-1
 502 700 l 1,2,-1
 502 636 l 1,3,-1
 436 636 l 1,4,-1
 482 666 l 1,5,-1
 79 0 l 1,6,-1
 2 0 l 1,0,-1
169 187 m 1,7,-1
 177 247 l 1,8,-1
 502 247 l 1,9,-1
 502 187 l 1,10,-1
 169 187 l 1,7,-1
478 0 m 1,11,-1
 478 700 l 1,12,-1
 958 700 l 1,13,-1
 958 636 l 1,14,-1
 552 636 l 1,15,-1
 552 64 l 1,16,-1
 973 64 l 1,17,-1
 973 0 l 1,18,-1
 478 0 l 1,11,-1
544 324 m 1,19,-1
 544 387 l 1,20,-1
 915 387 l 1,21,-1
 915 324 l 1,22,-1
 544 324 l 1,19,-1
EndSplineSet
Validated: 5
Substitution2: "'ss01' Style Set 1 lookup 50 subtable" AE.ss01
Substitution2: "'c2sc' Capitals to Small Capitals lookup 45 subtable" ae.sc
AlternateSubs2: "'aalt' Access All Alternates lookup 1 subtable" ae.sc AE.ss01
EndChar

StartChar: multiply
Encoding: 215 215 154
Width: 575
GlyphClass: 1
Flags: W
LayerCount: 2
Fore
SplineSet
421 174 m 1,0,-1
 461 217 l 1,1,-1
 154 526 l 1,2,-1
 114 483 l 1,3,-1
 421 174 l 1,0,-1
154 174 m 1,4,-1
 461 483 l 1,5,-1
 421 526 l 1,6,-1
 114 217 l 1,7,-1
 154 174 l 1,4,-1
EndSplineSet
Validated: 5
EndChar

StartChar: Thorn
Encoding: 222 222 161
Width: 718
GlyphClass: 1
Flags: W
LayerCount: 2
Fore
SplineSet
169 129 m 1,0,-1
 169 194 l 1,1,-1
 374 194 l 2,2,3
 479 194 479 194 533.5 240 c 128,-1,4
 588 286 588 286 588 370 c 0,5,6
 588 453 588 453 533.5 499 c 128,-1,7
 479 545 479 545 374 545 c 2,8,-1
 169 545 l 1,9,-1
 169 609 l 1,10,-1
 376 609 l 2,11,12
 465 609 465 609 529 580 c 128,-1,13
 593 551 593 551 627.5 498 c 128,-1,14
 662 445 662 445 662 370 c 256,15,16
 662 295 662 295 627.5 241 c 128,-1,17
 593 187 593 187 529 158 c 128,-1,18
 465 129 465 129 376 129 c 2,19,-1
 169 129 l 1,0,-1
114 0 m 1,20,-1
 114 700 l 1,21,-1
 188 700 l 1,22,-1
 188 0 l 1,23,-1
 114 0 l 1,20,-1
EndSplineSet
Validated: 5
Substitution2: "'c2sc' Capitals to Small Capitals lookup 45 subtable" thorn.sc
Substitution2: "'aalt' Access All Alternates lookup 0 subtable" thorn.sc
EndChar

StartChar: germandbls
Encoding: 223 223 162
Width: 668
GlyphClass: 1
Flags: W
LayerCount: 2
Fore
SplineSet
385 -5 m 0,0,1
 356 -5 356 -5 326 -1 c 128,-1,2
 296 3 296 3 272 11 c 1,3,-1
 285 71 l 1,4,5
 306 64 306 64 329 60.5 c 128,-1,6
 352 57 352 57 382 57 c 0,7,8
 432 57 432 57 469.5 74 c 128,-1,9
 507 91 507 91 528.5 123.5 c 128,-1,10
 550 156 550 156 550 201 c 0,11,12
 550 269 550 269 501.5 306 c 128,-1,13
 453 343 453 343 375 343 c 2,14,-1
 317 343 l 1,15,-1
 317 404 l 1,16,17
 400 405 400 405 447 445 c 128,-1,18
 494 485 494 485 494 553 c 0,19,20
 494 612 494 612 453.5 648.5 c 128,-1,21
 413 685 413 685 340 685 c 0,22,23
 262 685 262 685 216 639.5 c 128,-1,24
 170 594 170 594 170 504 c 2,25,-1
 170 0 l 1,26,-1
 99 0 l 1,27,-1
 99 498 l 2,28,29
 99 581 99 581 130 636 c 128,-1,30
 161 691 161 691 215.5 719 c 128,-1,31
 270 747 270 747 340 747 c 0,32,33
 409 747 409 747 459 722 c 128,-1,34
 509 697 509 697 536 654 c 128,-1,35
 563 611 563 611 563 556 c 0,36,37
 563 511 563 511 546 475.5 c 128,-1,38
 529 440 529 440 501 415.5 c 128,-1,39
 473 391 473 391 438.5 378 c 128,-1,40
 404 365 404 365 370 365 c 1,41,-1
 398 395 l 1,42,43
 462 395 462 395 512.5 372 c 128,-1,44
 563 349 563 349 592.5 305.5 c 128,-1,45
 622 262 622 262 622 199 c 0,46,47
 622 135 622 135 591 89.5 c 128,-1,48
 560 44 560 44 506.5 19.5 c 128,-1,49
 453 -5 453 -5 385 -5 c 0,0,1
EndSplineSet
Validated: 5
Substitution2: "'smcp' Lowercase to Small Capitals lookup 46 subtable" germandbls.sc
Substitution2: "'aalt' Access All Alternates lookup 0 subtable" germandbls.sc
EndChar

StartChar: ae
Encoding: 230 230 169
Width: 986
GlyphClass: 2
Flags: W
AnchorPoint: "Anchor-3" 461 526 basechar 0
AnchorPoint: "Anchor-2" 745 0 basechar 0
AnchorPoint: "Anchor-0" 473 0 basechar 0
LayerCount: 2
Fore
SplineSet
254 -5 m 0,0,1
 160 -5 160 -5 107.5 38 c 128,-1,2
 55 81 55 81 55 150 c 0,3,4
 55 189 55 189 74.5 222 c 128,-1,5
 94 255 94 255 138.5 275.5 c 128,-1,6
 183 296 183 296 258 296 c 2,7,-1
 437 296 l 1,8,-1
 437 243 l 1,9,-1
 260 243 l 2,10,11
 184 243 184 243 154.5 216.5 c 128,-1,12
 125 190 125 190 125 151 c 0,13,14
 125 105 125 105 160.5 78 c 128,-1,15
 196 51 196 51 259 51 c 0,16,17
 335 51 335 51 380 91 c 128,-1,18
 425 131 425 131 425 201 c 2,19,-1
 425 329 l 2,20,21
 425 396 425 396 387.5 432 c 128,-1,22
 350 468 350 468 276 468 c 0,23,24
 225 468 225 468 179 451 c 128,-1,25
 133 434 133 434 101 406 c 1,26,-1
 69 459 l 1,27,28
 109 493 109 493 165 511.5 c 128,-1,29
 221 530 221 530 282 530 c 0,30,31
 372 530 372 530 423.5 492 c 128,-1,32
 475 454 475 454 487 378 c 1,33,-1
 455 384 l 1,34,35
 485 451 485 451 545 490.5 c 128,-1,36
 605 530 605 530 684 530 c 0,37,38
 739 530 739 530 785.5 510.5 c 128,-1,39
 832 491 832 491 866.5 456 c 128,-1,40
 901 421 901 421 920.5 373 c 128,-1,41
 940 325 940 325 940 267 c 0,42,43
 940 260 940 260 939.5 254.5 c 128,-1,44
 939 249 939 249 938 243 c 1,45,-1
 482 243 l 1,46,-1
 482 296 l 1,47,-1
 900 296 l 1,48,-1
 871 273 l 1,49,50
 871 334 871 334 845.5 377.5 c 128,-1,51
 820 421 820 421 777 445 c 128,-1,52
 734 469 734 469 683 469 c 0,53,54
 633 469 633 469 590 445 c 128,-1,55
 547 421 547 421 521.5 377 c 128,-1,56
 496 333 496 333 496 271 c 2,57,-1
 496 260 l 2,58,59
 496 200 496 200 522.5 154.5 c 128,-1,60
 549 109 549 109 595.5 83.5 c 128,-1,61
 642 58 642 58 704 58 c 0,62,63
 753 58 753 58 793.5 75 c 128,-1,64
 834 92 834 92 865 127 c 1,65,-1
 905 81 l 1,66,67
 870 38 870 38 817.5 16.5 c 128,-1,68
 765 -5 765 -5 702 -5 c 0,69,70
 642 -5 642 -5 589.5 15 c 128,-1,71
 537 35 537 35 498 76 c 128,-1,72
 459 117 459 117 438 179 c 1,73,-1
 484 178 l 1,74,75
 474 110 474 110 439.5 70 c 128,-1,76
 405 30 405 30 356 12.5 c 128,-1,77
 307 -5 307 -5 254 -5 c 0,0,1
EndSplineSet
Validated: 5
Substitution2: "'ss01' Style Set 1 lookup 50 subtable" ae.ss01
Substitution2: "'smcp' Lowercase to Small Capitals lookup 46 subtable" ae.sc
AlternateSubs2: "'aalt' Access All Alternates lookup 1 subtable" ae.sc ae.ss01
EndChar

StartChar: eth
Encoding: 240 240 179
Width: 590
GlyphClass: 1
Flags: W
LayerCount: 2
Fore
SplineSet
282 -3 m 0,0,1
 211 -3 211 -3 158 25 c 128,-1,2
 105 53 105 53 75.5 104 c 128,-1,3
 46 155 46 155 46 223 c 0,4,5
 46 290 46 290 74 338.5 c 128,-1,6
 102 387 102 387 153 414 c 128,-1,7
 204 441 204 441 273 441 c 0,8,9
 336 441 336 441 388 413.5 c 128,-1,10
 440 386 440 386 464 339 c 1,11,12
 448 412 448 412 401.5 481 c 128,-1,13
 355 550 355 550 286.5 609 c 128,-1,14
 218 668 218 668 137 708 c 1,15,-1
 186 745 l 1,16,17
 293 690 293 690 372.5 610 c 128,-1,18
 452 530 452 530 495.5 436.5 c 128,-1,19
 539 343 539 343 539 247 c 0,20,21
 539 171 539 171 507 115 c 128,-1,22
 475 59 475 59 417.5 28 c 128,-1,23
 360 -3 360 -3 282 -3 c 0,0,1
288 57 m 0,24,25
 367 57 367 57 414 101 c 128,-1,26
 461 145 461 145 461 218 c 0,27,28
 461 293 461 293 414 338.5 c 128,-1,29
 367 384 367 384 288 384 c 0,30,31
 211 384 211 384 164 341 c 128,-1,32
 117 298 117 298 117 224 c 0,33,34
 117 148 117 148 164 102.5 c 128,-1,35
 211 57 211 57 288 57 c 0,24,25
140 504 m 1,36,-1
 121 546 l 1,37,-1
 471 707 l 1,38,-1
 491 666 l 1,39,-1
 140 504 l 1,36,-1
EndSplineSet
Validated: 5
Substitution2: "'smcp' Lowercase to Small Capitals lookup 46 subtable" eth.sc
Substitution2: "'aalt' Access All Alternates lookup 0 subtable" eth.sc
EndChar

StartChar: divide
Encoding: 247 247 186
Width: 575
GlyphClass: 1
Flags: W
LayerCount: 2
Fore
SplineSet
70 320 m 1,0,-1
 70 379 l 1,1,-1
 505 379 l 1,2,-1
 505 320 l 1,3,-1
 70 320 l 1,0,-1
287 110 m 0,4,5
 268 110 268 110 254 124 c 128,-1,6
 240 138 240 138 240 159 c 256,7,8
 240 180 240 180 254 193.5 c 128,-1,9
 268 207 268 207 287 207 c 0,10,11
 307 207 307 207 321 193.5 c 128,-1,12
 335 180 335 180 335 159 c 256,13,14
 335 138 335 138 321 124 c 128,-1,15
 307 110 307 110 287 110 c 0,4,5
287 493 m 0,16,17
 268 493 268 493 254 507 c 128,-1,18
 240 521 240 521 240 541 c 0,19,20
 240 563 240 563 254 576.5 c 128,-1,21
 268 590 268 590 287 590 c 0,22,23
 307 590 307 590 321 576.5 c 128,-1,24
 335 563 335 563 335 541 c 0,25,26
 335 521 335 521 321 507 c 128,-1,27
 307 493 307 493 287 493 c 0,16,17
EndSplineSet
Validated: 1
EndChar

StartChar: thorn
Encoding: 254 254 193
Width: 678
GlyphClass: 2
Flags: W
AnchorPoint: "Anchor-3" 377 526 basechar 0
AnchorPoint: "Anchor-0" 377 0 basechar 0
LayerCount: 2
Fore
SplineSet
370 -5 m 0,0,1
 302 -5 302 -5 247 26.5 c 128,-1,2
 192 58 192 58 159.5 117.5 c 128,-1,3
 127 177 127 177 127 263 c 256,4,5
 127 349 127 349 159 408.5 c 128,-1,6
 191 468 191 468 246 499 c 128,-1,7
 301 530 301 530 370 530 c 0,8,9
 445 530 445 530 504.5 496.5 c 128,-1,10
 564 463 564 463 598 402.5 c 128,-1,11
 632 342 632 342 632 263 c 0,12,13
 632 183 632 183 598 123 c 128,-1,14
 564 63 564 63 504.5 29 c 128,-1,15
 445 -5 445 -5 370 -5 c 0,0,1
99 -194 m 1,16,-1
 99 742 l 1,17,-1
 170 742 l 1,18,-1
 170 367 l 1,19,-1
 160 262 l 1,20,-1
 170 156 l 1,21,-1
 170 -194 l 1,22,-1
 99 -194 l 1,16,-1
365 58 m 256,23,24
 421 58 421 58 465 83.5 c 128,-1,25
 509 109 509 109 535 155.5 c 128,-1,26
 561 202 561 202 561 263 c 256,27,28
 561 324 561 324 535 370 c 128,-1,29
 509 416 509 416 465 442 c 128,-1,30
 421 468 421 468 365 468 c 256,31,32
 309 468 309 468 264.5 442 c 128,-1,33
 220 416 220 416 194.5 370 c 128,-1,34
 169 324 169 324 169 263 c 256,35,36
 169 202 169 202 194.5 155.5 c 128,-1,37
 220 109 220 109 264.5 83.5 c 128,-1,38
 309 58 309 58 365 58 c 256,23,24
EndSplineSet
Validated: 5
Substitution2: "'smcp' Lowercase to Small Capitals lookup 46 subtable" thorn.sc
Substitution2: "'aalt' Access All Alternates lookup 0 subtable" thorn.sc
EndChar

StartChar: eogonek
Encoding: 281 281 220
Width: 604
GlyphClass: 2
Flags: W
AnchorPoint: "Anchor-3" 310 526 basechar 0
AnchorPoint: "Anchor-0" 310 0 basechar 0
LayerCount: 2
Fore
SplineSet
430 -220 m 0,0,1
 381 -220 381 -220 350.5 -193.5 c 128,-1,2
 320 -167 320 -167 320 -122 c 0,3,4
 320 -90 320 -90 338.5 -51.5 c 128,-1,5
 357 -13 357 -13 405 25 c 1,6,-1
 428 14 l 1,7,8
 404 5 404 5 377.5 0 c 128,-1,9
 351 -5 351 -5 322 -5 c 0,10,11
 240 -5 240 -5 178 29.5 c 128,-1,12
 116 64 116 64 81 124.5 c 128,-1,13
 46 185 46 185 46 263 c 256,14,15
 46 341 46 341 79.5 401 c 128,-1,16
 113 461 113 461 171.5 495.5 c 128,-1,17
 230 530 230 530 303 530 c 0,18,19
 377 530 377 530 434.5 496.5 c 0,20,21
 557 426 557 426 557 279 c 1,22,-1
 100 194.5 l 1,23,-1
 100 257.5 l 5,24,-1
 519 332 l 1,25,-1
 491 273 l 1,26,27
 491 330 491 330 466.5 374.5 c 128,-1,28
 442 419 442 419 400 444 c 128,-1,29
 358 469 358 469 303 469 c 0,30,31
 249 469 249 469 206 444 c 128,-1,32
 163 419 163 419 139 374 c 128,-1,33
 115 329 115 329 115 271 c 2,34,-1
 115 260 l 2,35,36
 115 200 115 200 141.5 154.5 c 128,-1,37
 168 109 168 109 215.5 83.5 c 128,-1,38
 263 58 263 58 324 58 c 0,39,40
 372 58 372 58 413.5 75 c 128,-1,41
 455 92 455 92 485 127 c 1,42,-1
 525 81 l 1,43,44
 517 71 517 71 507.5 63 c 128,-1,45
 498 55 498 55 487 45 c 0,46,47
 440 5 440 5 415.5 -24.5 c 128,-1,48
 391 -54 391 -54 381.5 -76 c 128,-1,49
 372 -98 372 -98 372 -118 c 0,50,51
 372 -148 372 -148 390.5 -162 c 128,-1,52
 409 -176 409 -176 438 -176 c 0,53,54
 454 -176 454 -176 470.5 -171 c 128,-1,55
 487 -166 487 -166 499 -157 c 1,56,-1
 515 -196 l 1,57,58
 497 -207 497 -207 475.5 -213.5 c 128,-1,59
 454 -220 454 -220 430 -220 c 0,0,1
EndSplineSet
Validated: 5
Substitution2: "'ss01' Style Set 1 lookup 50 subtable" eogonek.ss01
Substitution2: "'smcp' Lowercase to Small Capitals lookup 46 subtable" eogonek.sc
Substitution2: "'locl' Localized Forms in Latin lookup 15 subtable" eogonek.loclNAV
AlternateSubs2: "'aalt' Access All Alternates lookup 1 subtable" eogonek.loclNAV eogonek.sc eogonek.ss01
EndChar

StartChar: Hbar
Encoding: 294 294 233
Width: 823
GlyphClass: 2
Flags: W
AnchorPoint: "Anchor-3" 411 700 basechar 0
AnchorPoint: "Anchor-1" 412 543 basechar 0
AnchorPoint: "Anchor-0" 411 0 basechar 0
LayerCount: 2
Fore
SplineSet
631 0 m 1,0,-1
 631 700 l 1,1,-1
 704 700 l 1,2,-1
 704 0 l 1,3,-1
 631 0 l 1,0,-1
119 0 m 1,4,-1
 119 700 l 1,5,-1
 193 700 l 1,6,-1
 193 0 l 1,7,-1
 119 0 l 1,4,-1
185 323 m 1,8,-1
 185 388 l 1,9,-1
 638 388 l 1,10,-1
 638 323 l 1,11,-1
 185 323 l 1,8,-1
11 513 m 1,12,-1
 11 572 l 1,13,-1
 813 572 l 1,14,-1
 813 513 l 1,15,-1
 11 513 l 1,12,-1
EndSplineSet
Validated: 5
Substitution2: "'c2sc' Capitals to Small Capitals lookup 45 subtable" hbar.sc
Substitution2: "'aalt' Access All Alternates lookup 0 subtable" hbar.sc
EndChar

StartChar: hbar
Encoding: 295 295 234
Width: 686
GlyphClass: 2
Flags: W
AnchorPoint: "Anchor-4" 258 526 basechar 0
AnchorPoint: "Anchor-3" 144 725 basechar 0
AnchorPoint: "Anchor-1" 205 633 basechar 0
AnchorPoint: "Anchor-0" 350 0 basechar 0
LayerCount: 2
Fore
SplineSet
109 0 m 1,0,-1
 109 742 l 1,1,-1
 180 742 l 1,2,-1
 180 381 l 1,3,-1
 166 408 l 1,4,5
 191 465 191 465 245.5 497.5 c 128,-1,6
 300 530 300 530 376 530 c 0,7,8
 441 530 441 530 489 505.5 c 128,-1,9
 537 481 537 481 564.5 431 c 128,-1,10
 592 381 592 381 592 305 c 2,11,-1
 592 0 l 1,12,-1
 521 0 l 1,13,-1
 521 298 l 2,14,15
 521 381 521 381 480 423.5 c 128,-1,16
 439 466 439 466 364 466 c 0,17,18
 308 466 308 466 266 443.5 c 128,-1,19
 224 421 224 421 202 378.5 c 128,-1,20
 180 336 180 336 180 276 c 2,21,-1
 180 0 l 1,22,-1
 109 0 l 1,0,-1
12 607 m 1,23,-1
 12 659 l 1,24,-1
 352 659 l 1,25,-1
 352 607 l 1,26,-1
 12 607 l 1,23,-1
EndSplineSet
Validated: 5
Substitution2: "'smcp' Lowercase to Small Capitals lookup 46 subtable" hbar.sc
Substitution2: "'aalt' Access All Alternates lookup 0 subtable" hbar.sc
EndChar

StartChar: dotlessi
Encoding: 305 305 244
Width: 269
GlyphClass: 2
Flags: W
AnchorPoint: "Anchor-3" 135 526 basechar 0
AnchorPoint: "Anchor-2" 170 0 basechar 0
AnchorPoint: "Anchor-1" 135 274 basechar 0
AnchorPoint: "Anchor-0" 135 0 basechar 0
LayerCount: 2
Fore
SplineSet
99 0 m 1,0,-1
 99 525 l 1,1,-1
 170 525 l 1,2,-1
 170 0 l 1,3,-1
 99 0 l 1,0,-1
EndSplineSet
Validated: 1
Substitution2: "'smcp' Lowercase to Small Capitals lookup 46 subtable" dotlessi.sc
Substitution2: "'aalt' Access All Alternates lookup 0 subtable" dotlessi.sc
EndChar

StartChar: IJ
Encoding: 306 306 245
Width: 718
GlyphClass: 2
Flags: W
AnchorPoint: "Anchor-3" 158 700 basechar 0
LayerCount: 2
Fore
SplineSet
327 -6 m 0,0,1
 260 -6 260 -6 201 13 c 128,-1,2
 142 32 142 32 98 63 c 1,3,-1
 128 122 l 1,4,5
 170 92 170 92 221.5 76 c 128,-1,6
 273 60 273 60 329 60 c 0,7,8
 427 60 427 60 481.5 119 c 128,-1,9
 536 178 536 178 536 299 c 2,10,-1
 536 700 l 1,11,-1
 610 700 l 1,12,-1
 610 302 l 2,13,14
 610 200 610 200 574.5 131.5 c 128,-1,15
 539 63 539 63 476 28.5 c 128,-1,16
 413 -6 413 -6 327 -6 c 0,0,1
108 302 m 1,17,-1
 108 700 l 1,18,-1
 182 700 l 1,19,-1
 182 302 l 1,20,-1
 108 302 l 1,17,-1
EndSplineSet
Validated: 1
Substitution2: "'ss01' Style Set 1 lookup 50 subtable" IJ.ss01
Substitution2: "'c2sc' Capitals to Small Capitals lookup 45 subtable" ij.sc
AlternateSubs2: "'aalt' Access All Alternates lookup 1 subtable" ij.sc IJ.ss01
EndChar

StartChar: kgreenlandic
Encoding: 312 312 251
Width: 598
GlyphClass: 2
Flags: W
AnchorPoint: "Anchor-3" 282 526 basechar 0
AnchorPoint: "Anchor-0" 282 0 basechar 0
LayerCount: 2
Fore
SplineSet
155 136 m 1,0,-1
 157 227 l 1,1,-1
 484 525 l 1,2,-1
 571 525 l 1,3,-1
 340 304 l 1,4,-1
 300 270 l 1,5,-1
 155 136 l 1,0,-1
99 0 m 1,6,-1
 99 525 l 1,7,-1
 170 525 l 1,8,-1
 170 0 l 1,9,-1
 99 0 l 1,6,-1
506 0 m 1,10,-1
 287 273 l 1,11,-1
 333 328 l 1,12,-1
 593 0 l 1,13,-1
 506 0 l 1,10,-1
EndSplineSet
Validated: 5
Substitution2: "'smcp' Lowercase to Small Capitals lookup 46 subtable" kgreenlandic.sc
Substitution2: "'aalt' Access All Alternates lookup 0 subtable" kgreenlandic.sc
EndChar

StartChar: Eng
Encoding: 330 330 269
Width: 813
GlyphClass: 2
Flags: W
AnchorPoint: "Anchor-3" 407 700 basechar 0
AnchorPoint: "Anchor-0" 407 -195 basechar 0
LayerCount: 2
Fore
SplineSet
114 0 m 1,0,-1
 114 700 l 1,1,-1
 175 700 l 1,2,-1
 658 92 l 1,3,-1
 638 0 l 1,4,-1
 156 608 l 1,5,-1
 188 608 l 1,6,-1
 188 0 l 1,7,-1
 114 0 l 1,0,-1
497 -199 m 0,8,9
 444 -199 444 -199 397 -176.5 c 128,-1,10
 350 -154 350 -154 319 -113 c 1,11,-1
 356 -61 l 1,12,13
 382 -96 382 -96 418 -115.5 c 128,-1,14
 454 -135 454 -135 497 -135 c 0,15,16
 562 -135 562 -135 594 -96.5 c 128,-1,17
 626 -58 626 -58 626 20 c 2,18,-1
 626 700 l 1,19,-1
 699 700 l 1,20,-1
 699 28 l 2,21,22
 699 -29 699 -29 686 -72 c 128,-1,23
 673 -115 673 -115 648 -143 c 128,-1,24
 623 -171 623 -171 585 -185 c 128,-1,25
 547 -199 547 -199 497 -199 c 0,8,9
EndSplineSet
Validated: 5
Substitution2: "'ss01' Style Set 1 lookup 50 subtable" Eng.ss01
Substitution2: "'c2sc' Capitals to Small Capitals lookup 45 subtable" eng.sc
Substitution2: "'locl' Localized Forms in Latin lookup 17 subtable" Eng.loclNSM
AlternateSubs2: "'aalt' Access All Alternates lookup 1 subtable" Eng.loclNSM eng.sc Eng.ss01
EndChar

StartChar: eng
Encoding: 331 331 270
Width: 676
GlyphClass: 2
Flags: W
AnchorPoint: "Anchor-3" 344 526 basechar 0
AnchorPoint: "Anchor-0" 339 -195 basechar 0
LayerCount: 2
Fore
SplineSet
429 -199 m 0,0,1
 397 -199 397 -199 367 -190.5 c 128,-1,2
 337 -182 337 -182 318 -165 c 1,3,-1
 343 -111 l 1,4,5
 374 -138 374 -138 425 -138 c 0,6,7
 467 -138 467 -138 489.5 -113 c 128,-1,8
 512 -88 512 -88 512 -39 c 2,9,-1
 512 298 l 2,10,11
 512 381 512 381 470.5 423.5 c 128,-1,12
 429 466 429 466 354 466 c 0,13,14
 298 466 298 466 256.5 443.5 c 128,-1,15
 215 421 215 421 192.5 378.5 c 128,-1,16
 170 336 170 336 170 276 c 2,17,-1
 170 0 l 1,18,-1
 99 0 l 1,19,-1
 99 525 l 1,20,-1
 167 525 l 1,21,-1
 167 381 l 1,22,-1
 156 408 l 1,23,24
 181 465 181 465 236 497.5 c 128,-1,25
 291 530 291 530 367 530 c 0,26,27
 431 530 431 530 479.5 505.5 c 128,-1,28
 528 481 528 481 555.5 431 c 128,-1,29
 583 381 583 381 583 305 c 2,30,-1
 583 -39 l 2,31,32
 583 -112 583 -112 543 -155.5 c 128,-1,33
 503 -199 503 -199 429 -199 c 0,0,1
EndSplineSet
Validated: 5
Substitution2: "'smcp' Lowercase to Small Capitals lookup 46 subtable" eng.sc
Substitution2: "'aalt' Access All Alternates lookup 0 subtable" eng.sc
EndChar

StartChar: OE
Encoding: 338 338 277
Width: 1121
GlyphClass: 2
Flags: W
AnchorPoint: "Anchor-3" 602 700 basechar 0
AnchorPoint: "Anchor-0" 602 0 basechar 0
LayerCount: 2
Fore
SplineSet
427 0 m 2,0,1
 315 0 315 0 230.5 44.5 c 128,-1,2
 146 89 146 89 99 167.5 c 128,-1,3
 52 246 52 246 52 349 c 256,4,5
 52 452 52 452 99 531.5 c 128,-1,6
 146 611 146 611 230.5 655.5 c 128,-1,7
 315 700 315 700 427 700 c 2,8,-1
 585 700 l 1,9,-1
 585 636 l 1,10,-1
 430 636 l 2,11,12
 338 636 338 636 269.5 599.5 c 128,-1,13
 201 563 201 563 163 498.5 c 128,-1,14
 125 434 125 434 125 349 c 0,15,16
 125 265 125 265 163 201 c 128,-1,17
 201 137 201 137 269.5 100.5 c 128,-1,18
 338 64 338 64 430 64 c 2,19,-1
 585 64 l 1,20,-1
 585 0 l 1,21,-1
 427 0 l 2,0,1
566 0 m 1,22,-1
 566 700 l 1,23,-1
 1046 700 l 1,24,-1
 1046 636 l 1,25,-1
 639 636 l 1,26,-1
 639 64 l 1,27,-1
 1061 64 l 1,28,-1
 1061 0 l 1,29,-1
 566 0 l 1,22,-1
632 324 m 1,30,-1
 632 387 l 1,31,-1
 1002 387 l 1,32,-1
 1002 324 l 1,33,-1
 632 324 l 1,30,-1
EndSplineSet
Validated: 5
Substitution2: "'c2sc' Capitals to Small Capitals lookup 45 subtable" oe.sc
Substitution2: "'aalt' Access All Alternates lookup 0 subtable" oe.sc
EndChar

StartChar: oe
Encoding: 339 339 278
Width: 1068
GlyphClass: 2
Flags: W
AnchorPoint: "Anchor-3" 544 526 basechar 0
AnchorPoint: "Anchor-0" 544 0 basechar 0
LayerCount: 2
Fore
SplineSet
313 -5 m 0,0,1
 236 -5 236 -5 176 29.5 c 128,-1,2
 116 64 116 64 81 124.5 c 128,-1,3
 46 185 46 185 46 263 c 0,4,5
 46 342 46 342 81 401.5 c 128,-1,6
 116 461 116 461 176 495.5 c 128,-1,7
 236 530 236 530 313 530 c 0,8,9
 391 530 391 530 449.5 495.5 c 128,-1,10
 508 461 508 461 541 401.5 c 128,-1,11
 574 342 574 342 574 263 c 0,12,13
 574 185 574 185 541 124.5 c 128,-1,14
 508 64 508 64 449.5 29.5 c 128,-1,15
 391 -5 391 -5 313 -5 c 0,0,1
313 58 m 0,16,17
 370 58 370 58 414 83.5 c 128,-1,18
 458 109 458 109 483.5 155.5 c 128,-1,19
 509 202 509 202 509 263 c 0,20,21
 509 325 509 325 483.5 371 c 128,-1,22
 458 417 458 417 414 442.5 c 128,-1,23
 370 468 370 468 313 468 c 0,24,25
 258 468 258 468 214 442.5 c 128,-1,26
 170 417 170 417 144 371 c 128,-1,27
 118 325 118 325 118 263 c 0,28,29
 118 202 118 202 144 155.5 c 128,-1,30
 170 109 170 109 214 83.5 c 128,-1,31
 258 58 258 58 313 58 c 0,16,17
786 -5 m 0,32,33
 705 -5 705 -5 643.5 29.5 c 128,-1,34
 582 64 582 64 548 124.5 c 128,-1,35
 514 185 514 185 514 263 c 256,36,37
 514 341 514 341 546.5 401 c 128,-1,38
 579 461 579 461 636 495.5 c 128,-1,39
 693 530 693 530 767 530 c 256,40,41
 841 530 841 530 898.5 496.5 c 128,-1,42
 956 463 956 463 989 402.5 c 128,-1,43
 1022 342 1022 342 1022 263 c 0,44,45
 1022 258 1022 258 1021.5 252.5 c 128,-1,46
 1021 247 1021 247 1021 241 c 1,47,-1
 564 241 l 1,48,-1
 564 294 l 1,49,-1
 983 294 l 1,50,-1
 955 273 l 1,51,52
 955 330 955 330 930.5 374.5 c 128,-1,53
 906 419 906 419 864 444 c 128,-1,54
 822 469 822 469 767 469 c 256,55,56
 712 469 712 469 670 444 c 128,-1,57
 628 419 628 419 603.5 374 c 128,-1,58
 579 329 579 329 579 271 c 2,59,-1
 579 260 l 2,60,61
 579 200 579 200 605.5 154.5 c 128,-1,62
 632 109 632 109 679.5 83.5 c 128,-1,63
 727 58 727 58 788 58 c 0,64,65
 836 58 836 58 877.5 75 c 128,-1,66
 919 92 919 92 948 127 c 1,67,-1
 988 81 l 1,68,69
 953 39 953 39 901 17 c 128,-1,70
 849 -5 849 -5 786 -5 c 0,32,33
EndSplineSet
Validated: 5
Substitution2: "'ss01' Style Set 1 lookup 50 subtable" oe.ss01
Substitution2: "'smcp' Lowercase to Small Capitals lookup 46 subtable" oe.sc
AlternateSubs2: "'aalt' Access All Alternates lookup 1 subtable" oe.sc oe.ss01
EndChar

StartChar: Tbar
Encoding: 358 358 297
Width: 574
GlyphClass: 2
Flags: W
AnchorPoint: "Anchor-3" 287 700 basechar 0
AnchorPoint: "Anchor-1" 287 357 basechar 0
AnchorPoint: "Anchor-0" 287 0 basechar 0
LayerCount: 2
Fore
SplineSet
250 0 m 1,0,-1
 250 636 l 1,1,-1
 4 636 l 1,2,-1
 4 700 l 1,3,-1
 570 700 l 1,4,-1
 570 636 l 1,5,-1
 324 636 l 1,6,-1
 324 0 l 1,7,-1
 250 0 l 1,0,-1
92 327 m 1,8,-1
 92 387 l 1,9,-1
 482 387 l 1,10,-1
 482 327 l 1,11,-1
 92 327 l 1,8,-1
EndSplineSet
Validated: 5
Substitution2: "'ss01' Style Set 1 lookup 50 subtable" Tbar.ss01
Substitution2: "'c2sc' Capitals to Small Capitals lookup 45 subtable" tbar.sc
AlternateSubs2: "'aalt' Access All Alternates lookup 1 subtable" tbar.sc Tbar.ss01
EndChar

StartChar: tbar
Encoding: 359 359 298
Width: 407
GlyphClass: 2
Flags: W
AnchorPoint: "Anchor-4" 274 742 basechar 0
AnchorPoint: "Anchor-3" 148 641 basechar 0
AnchorPoint: "Anchor-1" 175 270 basechar 0
AnchorPoint: "Anchor-0" 250 0 basechar 0
LayerCount: 2
Fore
SplineSet
266 -5 m 0,0,1
 192 -5 192 -5 152 35 c 128,-1,2
 112 75 112 75 112 148 c 2,3,-1
 112 641 l 1,4,-1
 183 641 l 1,5,-1
 183 152 l 2,6,7
 183 106 183 106 206.5 81 c 128,-1,8
 230 56 230 56 274 56 c 0,9,10
 321 56 321 56 352 83 c 1,11,-1
 377 32 l 1,12,13
 356 13 356 13 326.5 4 c 128,-1,14
 297 -5 297 -5 266 -5 c 0,0,1
18 466 m 1,15,-1
 18 525 l 1,16,-1
 343 525 l 1,17,-1
 343 466 l 1,18,-1
 18 466 l 1,15,-1
18 244 m 1,19,-1
 18 296 l 1,20,-1
 293 296 l 1,21,-1
 293 244 l 1,22,-1
 18 244 l 1,19,-1
EndSplineSet
Validated: 5
Substitution2: "'ss01' Style Set 1 lookup 50 subtable" tbar.ss01
Substitution2: "'smcp' Lowercase to Small Capitals lookup 46 subtable" tbar.sc
AlternateSubs2: "'aalt' Access All Alternates lookup 1 subtable" tbar.sc tbar.ss01
EndChar

StartChar: Uogonek
Encoding: 370 370 309
Width: 792
GlyphClass: 2
Flags: W
AnchorPoint: "Anchor-4" 664 700 basechar 0
AnchorPoint: "Anchor-3" 396 700 basechar 0
AnchorPoint: "Anchor-1" 396 357 basechar 0
AnchorPoint: "Anchor-0" 396 -220 basechar 0
LayerCount: 2
Fore
SplineSet
413 -220 m 0,0,1
 363 -220 363 -220 333 -194 c 128,-1,2
 303 -168 303 -168 303 -125 c 0,3,4
 303 -101 303 -101 315.5 -74.5 c 128,-1,5
 328 -48 328 -48 358.5 -22 c 128,-1,6
 389 4 389 4 444 26 c 1,7,-1
 437 -4 l 1,8,9
 427 -5 427 -5 416.5 -5.5 c 128,-1,10
 406 -6 406 -6 396 -6 c 0,11,12
 262 -6 262 -6 185 71 c 128,-1,13
 108 148 108 148 108 299 c 2,14,-1
 108 700 l 1,15,-1
 182 700 l 1,16,-1
 182 302 l 2,17,18
 182 178 182 178 238 119 c 128,-1,19
 294 60 294 60 396 60 c 0,20,21
 499 60 499 60 555 119 c 128,-1,22
 611 178 611 178 611 302 c 2,23,-1
 611 700 l 1,24,-1
 683 700 l 1,25,-1
 683 299 l 2,26,27
 683 177 683 177 635 107 c 128,-1,28
 587 37 587 37 504 8 c 0,29,30
 442 -13 442 -13 410 -36 c 128,-1,31
 378 -59 378 -59 367 -80.5 c 128,-1,32
 356 -102 356 -102 356 -120 c 0,33,34
 356 -148 356 -148 374.5 -162 c 128,-1,35
 393 -176 393 -176 421 -176 c 0,36,37
 437 -176 437 -176 453.5 -171 c 128,-1,38
 470 -166 470 -166 482 -157 c 1,39,-1
 498 -196 l 1,40,41
 481 -207 481 -207 459 -213.5 c 128,-1,42
 437 -220 437 -220 413 -220 c 0,0,1
EndSplineSet
Validated: 5
Substitution2: "'ss01' Style Set 1 lookup 50 subtable" Uogonek.ss01
Substitution2: "'c2sc' Capitals to Small Capitals lookup 45 subtable" uogonek.sc
Substitution2: "'locl' Localized Forms in Latin lookup 15 subtable" Uogonek.loclNAV
AlternateSubs2: "'aalt' Access All Alternates lookup 1 subtable" Uogonek.loclNAV uogonek.sc Uogonek.ss01
EndChar

StartChar: longs
Encoding: 383 383 322
Width: 301
GlyphClass: 2
Flags: W
AnchorPoint: "Anchor-3" 245 725 basechar 0
AnchorPoint: "Anchor-0" 147 0 basechar 0
LayerCount: 2
Fore
SplineSet
122 0 m 1,0,-1
 122 591 l 2,1,2
 122 661 122 661 163 704 c 128,-1,3
 204 747 204 747 280 747 c 0,4,5
 310 747 310 747 338 739 c 128,-1,6
 366 731 366 731 385 714 c 1,7,-1
 361 661 l 1,8,9
 346 674 346 674 326 680.5 c 128,-1,10
 306 687 306 687 284 687 c 0,11,12
 239 687 239 687 216 662 c 128,-1,13
 193 637 193 637 193 588 c 2,14,-1
 193 0 l 1,15,-1
 122 0 l 1,0,-1
28 466 m 1,16,-1
 28 525 l 1,17,-1
 159 525 l 1,18,-1
 159 466 l 1,19,-1
 28 466 l 1,16,-1
EndSplineSet
Validated: 5
Substitution2: "'ss01' Style Set 1 lookup 50 subtable" longs.ss01
Substitution2: "'smcp' Lowercase to Small Capitals lookup 46 subtable" longs.sc
AlternateSubs2: "'aalt' Access All Alternates lookup 1 subtable" longs.sc longs.ss01
EndChar

StartChar: uni0180
Encoding: 384 384 323
Width: 688
GlyphClass: 1
Flags: W
LayerCount: 2
Fore
SplineSet
379 -5 m 0,0,1
 311 -5 311 -5 255.5 26.5 c 128,-1,2
 200 58 200 58 168.5 118 c 128,-1,3
 137 178 137 178 137 263 c 0,4,5
 137 349 137 349 169.5 408.5 c 128,-1,6
 202 468 202 468 257 499 c 128,-1,7
 312 530 312 530 379 530 c 0,8,9
 455 530 455 530 514.5 496.5 c 128,-1,10
 574 463 574 463 608 403 c 128,-1,11
 642 343 642 343 642 263 c 0,12,13
 642 184 642 184 608 123.5 c 128,-1,14
 574 63 574 63 514.5 29 c 128,-1,15
 455 -5 455 -5 379 -5 c 0,0,1
109 0 m 1,16,-1
 109 742 l 1,17,-1
 180 742 l 1,18,-1
 180 370 l 1,19,-1
 170 264 l 1,20,-1
 177 158 l 1,21,-1
 177 0 l 1,22,-1
 109 0 l 1,16,-1
374 58 m 0,23,24
 430 58 430 58 474.5 83.5 c 128,-1,25
 519 109 519 109 544.5 155.5 c 128,-1,26
 570 202 570 202 570 263 c 0,27,28
 570 325 570 325 544.5 371 c 128,-1,29
 519 417 519 417 474.5 442.5 c 128,-1,30
 430 468 430 468 374 468 c 0,31,32
 319 468 319 468 274.5 442.5 c 128,-1,33
 230 417 230 417 204.5 371 c 128,-1,34
 179 325 179 325 179 263 c 0,35,36
 179 202 179 202 204.5 155.5 c 128,-1,37
 230 109 230 109 274.5 83.5 c 128,-1,38
 319 58 319 58 374 58 c 0,23,24
12 607 m 1,39,-1
 12 659 l 1,40,-1
 352 659 l 1,41,-1
 352 607 l 1,42,-1
 12 607 l 1,39,-1
EndSplineSet
Validated: 5
Substitution2: "'smcp' Lowercase to Small Capitals lookup 46 subtable" uni0180.sc
Substitution2: "'aalt' Access All Alternates lookup 0 subtable" uni0180.sc
EndChar

StartChar: uni0181
Encoding: 385 385 324
Width: 911
GlyphClass: 2
Flags: W
AnchorPoint: "Anchor-3" 535 700 basechar 0
AnchorPoint: "Anchor-0" 535 0 basechar 0
LayerCount: 2
Fore
SplineSet
96 403 m 1,0,1
 64 436 64 436 48.5 475.5 c 128,-1,2
 33 515 33 515 34.5 554.5 c 128,-1,3
 36 594 36 594 55 627 c 128,-1,4
 74 660 74 660 113 680 c 128,-1,5
 152 700 152 700 211 700 c 2,6,-1
 278 700 l 1,7,-1
 278 636 l 1,8,-1
 211 636 l 2,9,10
 168 636 168 636 143 618 c 128,-1,11
 118 600 118 600 110 571 c 128,-1,12
 102 542 102 542 111 509 c 128,-1,13
 120 476 120 476 146 444 c 1,14,-1
 96 403 l 1,0,1
271 0 m 1,15,-1
 271 700 l 1,16,-1
 573 700 l 2,17,18
 689 700 689 700 754 653 c 128,-1,19
 819 606 819 606 819 520 c 0,20,21
 819 463 819 463 792.5 424 c 128,-1,22
 766 385 766 385 720.5 365 c 128,-1,23
 675 345 675 345 620 345 c 1,24,-1
 638 369 l 1,25,26
 705 369 705 369 753.5 348.5 c 128,-1,27
 802 328 802 328 829 287.5 c 128,-1,28
 856 247 856 247 856 187 c 0,29,30
 856 98 856 98 790 49 c 128,-1,31
 724 0 724 0 593 0 c 2,32,-1
 271 0 l 1,15,-1
344 61 m 1,33,-1
 591 61 l 2,34,35
 684 61 684 61 733 92.5 c 128,-1,36
 782 124 782 124 782 193 c 0,37,38
 782 261 782 261 733 292.5 c 128,-1,39
 684 324 684 324 591 324 c 2,40,-1
 337 324 l 1,41,-1
 337 385 l 1,42,-1
 568 385 l 2,43,44
 652 385 652 385 698.5 417 c 128,-1,45
 745 449 745 449 745 512 c 0,46,47
 745 576 745 576 698.5 607.5 c 128,-1,48
 652 639 652 639 568 639 c 2,49,-1
 344 639 l 1,50,-1
 344 61 l 1,33,-1
EndSplineSet
Validated: 37
Substitution2: "'c2sc' Capitals to Small Capitals lookup 45 subtable" uni0253.sc
Substitution2: "'locl' Localized Forms in Latin lookup 19 subtable" uni0181.loclXPE
AlternateSubs2: "'aalt' Access All Alternates lookup 1 subtable" uni0181.loclXPE uni0253.sc
EndChar

StartChar: uni0182
Encoding: 386 386 325
Width: 754
GlyphClass: 2
Flags: W
AnchorPoint: "Anchor-3" 378 700 basechar 0
AnchorPoint: "Anchor-0" 378 0 basechar 0
LayerCount: 2
Fore
SplineSet
114 0 m 1,0,-1
 114 700 l 1,1,-1
 639 700 l 1,2,-1
 639 639 l 1,3,-1
 188 639 l 1,4,-1
 188 61 l 1,5,-1
 435 61 l 2,6,7
 527 61 527 61 576 93.5 c 128,-1,8
 625 126 625 126 625 200 c 0,9,10
 625 272 625 272 576.5 304 c 128,-1,11
 528 336 528 336 435 336 c 2,12,-1
 180 336 l 1,13,-1
 180 397 l 1,14,-1
 446 397 l 2,15,16
 570 397 570 397 634.5 349 c 128,-1,17
 699 301 699 301 699 202 c 0,18,19
 699 100 699 100 632.5 50 c 128,-1,20
 566 0 566 0 436 0 c 2,21,-1
 114 0 l 1,0,-1
EndSplineSet
Validated: 5
Substitution2: "'c2sc' Capitals to Small Capitals lookup 45 subtable" uni0183.sc
Substitution2: "'aalt' Access All Alternates lookup 0 subtable" uni0183.sc
EndChar

StartChar: uni0183
Encoding: 387 387 326
Width: 678
GlyphClass: 1
Flags: W
LayerCount: 2
Fore
SplineSet
370 -5 m 0,0,1
 301 -5 301 -5 246 26.5 c 128,-1,2
 191 58 191 58 159 118 c 128,-1,3
 127 178 127 178 127 263 c 0,4,5
 127 349 127 349 159.5 408.5 c 128,-1,6
 192 468 192 468 247 499 c 128,-1,7
 302 530 302 530 370 530 c 0,8,9
 445 530 445 530 504.5 496.5 c 128,-1,10
 564 463 564 463 598 403 c 128,-1,11
 632 343 632 343 632 263 c 0,12,13
 632 184 632 184 598 123.5 c 128,-1,14
 564 63 564 63 504.5 29 c 128,-1,15
 445 -5 445 -5 370 -5 c 0,0,1
99 0 m 1,16,-1
 99 742 l 1,17,-1
 170 742 l 1,18,-1
 170 370 l 1,19,-1
 160 264 l 1,20,-1
 167 158 l 1,21,-1
 167 0 l 1,22,-1
 99 0 l 1,16,-1
365 58 m 256,23,24
 421 58 421 58 465 83.5 c 128,-1,25
 509 109 509 109 535 155.5 c 128,-1,26
 561 202 561 202 561 263 c 0,27,28
 561 325 561 325 535 371 c 128,-1,29
 509 417 509 417 465 442.5 c 128,-1,30
 421 468 421 468 365 468 c 256,31,32
 309 468 309 468 264.5 442.5 c 128,-1,33
 220 417 220 417 194.5 371 c 128,-1,34
 169 325 169 325 169 263 c 0,35,36
 169 202 169 202 194.5 155.5 c 128,-1,37
 220 109 220 109 264.5 83.5 c 128,-1,38
 309 58 309 58 365 58 c 256,23,24
170 683 m 1,39,-1
 99 742 l 1,40,-1
 510 742 l 1,41,-1
 510 683 l 1,42,-1
 170 683 l 1,39,-1
EndSplineSet
Validated: 5
Substitution2: "'smcp' Lowercase to Small Capitals lookup 46 subtable" uni0183.sc
Substitution2: "'aalt' Access All Alternates lookup 0 subtable" uni0183.sc
EndChar

StartChar: uni0186
Encoding: 390 390 327
Width: 709
GlyphClass: 2
Flags: W
AnchorPoint: "Anchor-3" 297 700 basechar 0
AnchorPoint: "Anchor-2" 343 0 basechar 0
AnchorPoint: "Anchor-1" 563 344 basechar 0
AnchorPoint: "Anchor-0" 297 0 basechar 0
LayerCount: 2
Fore
SplineSet
291 706 m 0,0,1
 370 706 370 706 436.5 679.5 c 128,-1,2
 503 653 503 653 552.5 605 c 128,-1,3
 602 557 602 557 629.5 492 c 128,-1,4
 657 427 657 427 657 350 c 256,5,6
 657 273 657 273 629.5 208 c 128,-1,7
 602 143 602 143 552.5 95 c 128,-1,8
 503 47 503 47 436 20.5 c 128,-1,9
 369 -6 369 -6 290 -6 c 0,10,11
 213 -6 213 -6 146.5 20 c 128,-1,12
 80 46 80 46 34 96 c 1,13,-1
 81 143 l 1,14,15
 124 99 124 99 176 79.5 c 128,-1,16
 228 60 228 60 288 60 c 0,17,18
 351 60 351 60 405 81.5 c 128,-1,19
 459 103 459 103 499 142.5 c 128,-1,20
 539 182 539 182 561 234.5 c 128,-1,21
 583 287 583 287 583 350 c 256,22,23
 583 413 583 413 561 465.5 c 128,-1,24
 539 518 539 518 499 557.5 c 128,-1,25
 459 597 459 597 405 618.5 c 128,-1,26
 351 640 351 640 288 640 c 0,27,28
 228 640 228 640 176 620 c 128,-1,29
 124 600 124 600 81 556 c 1,30,-1
 34 603 l 1,31,32
 80 654 80 654 146.5 680 c 128,-1,33
 213 706 213 706 291 706 c 0,0,1
EndSplineSet
Validated: 1
Substitution2: "'c2sc' Capitals to Small Capitals lookup 45 subtable" uni0254.sc
Substitution2: "'aalt' Access All Alternates lookup 0 subtable" uni0254.sc
EndChar

StartChar: uni0187
Encoding: 391 391 328
Width: 741
GlyphClass: 2
Flags: W
AnchorPoint: "Anchor-3" 424 700 basechar 0
AnchorPoint: "Anchor-0" 424 0 basechar 0
LayerCount: 2
Fore
SplineSet
690 604 m 1,0,-1
 622 605 l 1,1,-1
 622 676 l 2,2,3
 622 725 622 725 640.5 759 c 128,-1,4
 659 793 659 793 689 811 c 128,-1,5
 719 829 719 829 756.5 830 c 128,-1,6
 794 831 794 831 832 816 c 1,7,-1
 811 758 l 1,8,9
 781 771 781 771 753 764.5 c 128,-1,10
 725 758 725 758 707.5 736 c 128,-1,11
 690 714 690 714 690 676 c 2,12,-1
 690 604 l 1,0,-1
432 -6 m 256,13,14
 354 -6 354 -6 287 20.5 c 128,-1,15
 220 47 220 47 170.5 95 c 128,-1,16
 121 143 121 143 93.5 208 c 128,-1,17
 66 273 66 273 66 350 c 256,18,19
 66 427 66 427 93.5 492 c 128,-1,20
 121 557 121 557 170.5 605 c 128,-1,21
 220 653 220 653 287 679.5 c 128,-1,22
 354 706 354 706 433 706 c 0,23,24
 510 706 510 706 576.5 680.5 c 128,-1,25
 643 655 643 655 690 604 c 1,26,-1
 642 557 l 1,27,28
 600 601 600 601 547.5 620.5 c 128,-1,29
 495 640 495 640 436 640 c 0,30,31
 372 640 372 640 318 618.5 c 128,-1,32
 264 597 264 597 224 557.5 c 128,-1,33
 184 518 184 518 162 465.5 c 128,-1,34
 140 413 140 413 140 350 c 256,35,36
 140 287 140 287 162 234.5 c 128,-1,37
 184 182 184 182 224 142.5 c 128,-1,38
 264 103 264 103 318 81.5 c 128,-1,39
 372 60 372 60 436 60 c 0,40,41
 495 60 495 60 547.5 80 c 128,-1,42
 600 100 600 100 642 144 c 1,43,-1
 690 97 l 1,44,45
 643 46 643 46 576.5 20 c 128,-1,46
 510 -6 510 -6 432 -6 c 256,13,14
EndSplineSet
Validated: 37
Substitution2: "'c2sc' Capitals to Small Capitals lookup 45 subtable" uni0188.sc
Substitution2: "'aalt' Access All Alternates lookup 0 subtable" uni0188.sc
EndChar

StartChar: uni0188
Encoding: 392 392 329
Width: 572
GlyphClass: 1
Flags: W
LayerCount: 2
Fore
SplineSet
523 426 m 1,0,-1
 456 428 l 1,1,-1
 456 601 l 2,2,3
 456 650 456 650 474 682 c 128,-1,4
 492 714 492 714 521.5 730.5 c 128,-1,5
 551 747 551 747 586 747.5 c 128,-1,6
 621 748 621 748 654 734 c 1,7,-1
 638 680 l 1,8,9
 610 693 610 693 583.5 688 c 128,-1,10
 557 683 557 683 540 661.5 c 128,-1,11
 523 640 523 640 523 601 c 2,12,-1
 523 426 l 1,0,-1
317 -5 m 0,13,14
 239 -5 239 -5 177.5 29.5 c 128,-1,15
 116 64 116 64 81 124.5 c 128,-1,16
 46 185 46 185 46 263 c 0,17,18
 46 342 46 342 81 402 c 128,-1,19
 116 462 116 462 177.5 496 c 128,-1,20
 239 530 239 530 317 530 c 0,21,22
 384 530 384 530 438 504 c 128,-1,23
 492 478 492 478 523 426 c 1,24,-1
 470 390 l 1,25,26
 443 430 443 430 403 449 c 128,-1,27
 363 468 363 468 316 468 c 0,28,29
 260 468 260 468 215 442.5 c 128,-1,30
 170 417 170 417 144 371 c 128,-1,31
 118 325 118 325 118 263 c 256,32,33
 118 201 118 201 144 155 c 128,-1,34
 170 109 170 109 215 83.5 c 128,-1,35
 260 58 260 58 316 58 c 0,36,37
 363 58 363 58 403 77 c 128,-1,38
 443 96 443 96 470 135 c 1,39,-1
 523 99 l 1,40,41
 492 48 492 48 438 21.5 c 128,-1,42
 384 -5 384 -5 317 -5 c 0,13,14
EndSplineSet
Validated: 37
Substitution2: "'smcp' Lowercase to Small Capitals lookup 46 subtable" uni0188.sc
Substitution2: "'aalt' Access All Alternates lookup 0 subtable" uni0188.sc
EndChar

StartChar: uni018A
Encoding: 394 394 331
Width: 983
GlyphClass: 2
Flags: W
AnchorPoint: "Anchor-3" 540 700 basechar 0
AnchorPoint: "Anchor-1" 358 358 basechar 0
AnchorPoint: "Anchor-0" 544 0 basechar 0
LayerCount: 2
Fore
SplineSet
96 403 m 1,0,1
 64 436 64 436 48.5 475.5 c 128,-1,2
 33 515 33 515 34.5 554.5 c 128,-1,3
 36 594 36 594 55 627 c 128,-1,4
 74 660 74 660 113 680 c 128,-1,5
 152 700 152 700 211 700 c 2,6,-1
 278 700 l 1,7,-1
 278 636 l 1,8,-1
 211 636 l 2,9,10
 168 636 168 636 143 618 c 128,-1,11
 118 600 118 600 110 571 c 128,-1,12
 102 542 102 542 111 509 c 128,-1,13
 120 476 120 476 146 444 c 1,14,-1
 96 403 l 1,0,1
271 0 m 1,15,-1
 271 700 l 1,16,-1
 556 700 l 2,17,18
 668 700 668 700 752.5 655.5 c 128,-1,19
 837 611 837 611 884 532 c 128,-1,20
 931 453 931 453 931 350 c 256,21,22
 931 247 931 247 884 168 c 128,-1,23
 837 89 837 89 752.5 44.5 c 128,-1,24
 668 0 668 0 556 0 c 2,25,-1
 271 0 l 1,15,-1
344 64 m 1,26,-1
 552 64 l 2,27,28
 645 64 645 64 713.5 100.5 c 128,-1,29
 782 137 782 137 819.5 201.5 c 128,-1,30
 857 266 857 266 857 350 c 0,31,32
 857 435 857 435 819.5 499 c 128,-1,33
 782 563 782 563 713.5 599.5 c 128,-1,34
 645 636 645 636 552 636 c 2,35,-1
 344 636 l 1,36,-1
 344 64 l 1,26,-1
EndSplineSet
Validated: 37
Substitution2: "'c2sc' Capitals to Small Capitals lookup 45 subtable" uni0257.sc
Substitution2: "'aalt' Access All Alternates lookup 0 subtable" uni0257.sc
EndChar

StartChar: uni018B
Encoding: 395 395 332
Width: 741
GlyphClass: 1
Flags: W
LayerCount: 2
Fore
SplineSet
304 0 m 2,0,1
 178 0 178 0 110 55.5 c 128,-1,2
 42 111 42 111 42 208 c 0,3,4
 42 302 42 302 107 354 c 128,-1,5
 172 406 172 406 299 406 c 2,6,-1
 554 406 l 1,7,-1
 554 636 l 1,8,-1
 117 636 l 1,9,-1
 117 700 l 1,10,-1
 627 700 l 1,11,-1
 627 0 l 1,12,-1
 304 0 l 2,0,1
309 61 m 2,13,-1
 554 61 l 1,14,-1
 554 345 l 1,15,-1
 309 345 l 2,16,17
 211 345 211 345 163.5 308.5 c 128,-1,18
 116 272 116 272 116 207 c 0,19,20
 116 141 116 141 164 101 c 128,-1,21
 212 61 212 61 309 61 c 2,13,-1
EndSplineSet
Validated: 1
Substitution2: "'c2sc' Capitals to Small Capitals lookup 45 subtable" uni018C.sc
Substitution2: "'aalt' Access All Alternates lookup 0 subtable" uni018C.sc
EndChar

StartChar: uni018C
Encoding: 396 396 333
Width: 678
GlyphClass: 2
Flags: W
AnchorPoint: "Anchor-4" 672 742 basechar 0
AnchorPoint: "Anchor-1" 483 633 basechar 0
AnchorPoint: "Anchor-0" 340 0 basechar 0
LayerCount: 2
Fore
SplineSet
308 -5 m 0,0,1
 233 -5 233 -5 173.5 29 c 128,-1,2
 114 63 114 63 80 123.5 c 128,-1,3
 46 184 46 184 46 263 c 0,4,5
 46 343 46 343 80 403 c 128,-1,6
 114 463 114 463 173.5 496.5 c 128,-1,7
 233 530 233 530 308 530 c 0,8,9
 377 530 377 530 431.5 499 c 128,-1,10
 486 468 486 468 518.5 408.5 c 128,-1,11
 551 349 551 349 551 263 c 0,12,13
 551 178 551 178 519 118 c 128,-1,14
 487 58 487 58 432.5 26.5 c 128,-1,15
 378 -5 378 -5 308 -5 c 0,0,1
313 58 m 0,16,17
 369 58 369 58 413.5 83.5 c 128,-1,18
 458 109 458 109 483.5 155.5 c 128,-1,19
 509 202 509 202 509 263 c 0,20,21
 509 325 509 325 483.5 371 c 128,-1,22
 458 417 458 417 413.5 442.5 c 128,-1,23
 369 468 369 468 313 468 c 0,24,25
 258 468 258 468 214 442.5 c 128,-1,26
 170 417 170 417 144 371 c 128,-1,27
 118 325 118 325 118 263 c 0,28,29
 118 202 118 202 144 155.5 c 128,-1,30
 170 109 170 109 214 83.5 c 128,-1,31
 258 58 258 58 313 58 c 0,16,17
511 0 m 1,32,-1
 511 158 l 1,33,-1
 518 264 l 1,34,-1
 508 370 l 1,35,-1
 508 742 l 1,36,-1
 579 742 l 1,37,-1
 579 0 l 1,38,-1
 511 0 l 1,32,-1
169 683 m 1,39,-1
 169 742 l 1,40,-1
 579 742 l 1,41,-1
 508 683 l 1,42,-1
 169 683 l 1,39,-1
EndSplineSet
Validated: 5
Substitution2: "'smcp' Lowercase to Small Capitals lookup 46 subtable" uni018C.sc
Substitution2: "'aalt' Access All Alternates lookup 0 subtable" uni018C.sc
EndChar

StartChar: uni018E
Encoding: 398 398 334
Width: 669
GlyphClass: 2
Flags: W
AnchorPoint: "Anchor-3" 315 700 basechar 0
AnchorPoint: "Anchor-0" 315 0 basechar 0
LayerCount: 2
Fore
SplineSet
555 0 m 1,0,-1
 61 0 l 1,1,-1
 61 64 l 1,2,-1
 482 64 l 1,3,-1
 482 636 l 1,4,-1
 75 636 l 1,5,-1
 75 700 l 1,6,-1
 555 700 l 1,7,-1
 555 0 l 1,0,-1
489 323 m 1,8,-1
 119 323 l 1,9,-1
 119 387 l 1,10,-1
 489 387 l 1,11,-1
 489 323 l 1,8,-1
EndSplineSet
Validated: 5
Substitution2: "'ss01' Style Set 1 lookup 50 subtable" uni018E.ss01
Substitution2: "'c2sc' Capitals to Small Capitals lookup 45 subtable" uni0258.sc
AlternateSubs2: "'aalt' Access All Alternates lookup 1 subtable" uni0258.sc uni018E.ss01
EndChar

StartChar: uni018F
Encoding: 399 399 335
Width: 817
GlyphClass: 2
Flags: W
AnchorPoint: "Anchor-3" 409 700 basechar 0
AnchorPoint: "Anchor-2" 450 0 basechar 0
AnchorPoint: "Anchor-0" 409 0 basechar 0
LayerCount: 2
Fore
SplineSet
409 -6 m 0,0,1
 332 -6 332 -6 266.5 20.5 c 128,-1,2
 201 47 201 47 153 95.5 c 128,-1,3
 105 144 105 144 78.5 209.5 c 128,-1,4
 52 275 52 275 52 353 c 2,5,-1
 52 375 l 1,6,-1
 701 375 l 1,7,-1
 701 312 l 1,8,-1
 100 312 l 1,9,-1
 125 350 l 1,10,11
 125 286 125 286 146 232.5 c 128,-1,12
 167 179 167 179 204.5 140 c 128,-1,13
 242 101 242 101 294 79.5 c 128,-1,14
 346 58 346 58 409 58 c 0,15,16
 469 58 469 58 520.5 79 c 128,-1,17
 572 100 572 100 610.5 139 c 128,-1,18
 649 178 649 178 670 231 c 128,-1,19
 691 284 691 284 691 346 c 2,20,-1
 691 353 l 2,21,22
 691 415 691 415 669 467 c 128,-1,23
 647 519 647 519 607.5 558 c 128,-1,24
 568 597 568 597 515 618.5 c 128,-1,25
 462 640 462 640 401 640 c 0,26,27
 359 640 359 640 319 631.5 c 128,-1,28
 279 623 279 623 243.5 605 c 128,-1,29
 208 587 208 587 177 559 c 1,30,-1
 133 610 l 1,31,32
 166 641 166 641 207.5 662.5 c 128,-1,33
 249 684 249 684 298.5 695 c 128,-1,34
 348 706 348 706 401 706 c 0,35,36
 480 706 480 706 546.5 679.5 c 128,-1,37
 613 653 613 653 662 605 c 128,-1,38
 711 557 711 557 738 492 c 128,-1,39
 765 427 765 427 765 351 c 256,40,41
 765 275 765 275 738 210 c 128,-1,42
 711 145 711 145 662.5 96.5 c 128,-1,43
 614 48 614 48 549 21 c 128,-1,44
 484 -6 484 -6 409 -6 c 0,0,1
EndSplineSet
Validated: 5
Substitution2: "'ss01' Style Set 1 lookup 50 subtable" uni018F.ss01
Substitution2: "'c2sc' Capitals to Small Capitals lookup 45 subtable" uni0259.sc
AlternateSubs2: "'aalt' Access All Alternates lookup 1 subtable" uni0259.sc uni018F.ss01
EndChar

StartChar: uni0190
Encoding: 400 400 336
Width: 621
GlyphClass: 2
Flags: W
AnchorPoint: "Anchor-3" 335 700 basechar 0
AnchorPoint: "Anchor-2" 407 0 basechar 0
AnchorPoint: "Anchor-0" 335 0 basechar 0
LayerCount: 2
Fore
SplineSet
345 -6 m 0,0,1
 251 -6 251 -6 187.5 19.5 c 128,-1,2
 124 45 124 45 91 90.5 c 128,-1,3
 58 136 58 136 58 194 c 256,4,5
 58 252 58 252 87 292 c 128,-1,6
 116 332 116 332 164 353 c 128,-1,7
 212 374 212 374 270 374 c 1,8,-1
 274 351 l 1,9,10
 218 351 218 351 176 373 c 128,-1,11
 134 395 134 395 111 433 c 128,-1,12
 88 471 88 471 88 520 c 0,13,14
 88 567 88 567 109 602 c 128,-1,15
 130 637 130 637 166 660 c 128,-1,16
 202 683 202 683 248 694 c 128,-1,17
 294 705 294 705 345 705 c 0,18,19
 407 705 407 705 469 689 c 128,-1,20
 531 673 531 673 583 642 c 1,21,-1
 560 583 l 1,22,23
 531 601 531 601 495 614 c 128,-1,24
 459 627 459 627 420.5 634 c 128,-1,25
 382 641 382 641 345 641 c 0,26,27
 296 641 296 641 254.5 627.5 c 128,-1,28
 213 614 213 614 187.5 585 c 128,-1,29
 162 556 162 556 162 511 c 0,30,31
 162 453 162 453 204 423 c 128,-1,32
 246 393 246 393 321 393 c 2,33,-1
 477 393 l 1,34,-1
 477 333 l 1,35,-1
 318 333 l 2,36,37
 263 333 263 333 221 318.5 c 128,-1,38
 179 304 179 304 155.5 274 c 128,-1,39
 132 244 132 244 132 199 c 0,40,41
 132 134 132 134 184.5 95.5 c 128,-1,42
 237 57 237 57 344 57 c 0,43,44
 422 57 422 57 485.5 78 c 128,-1,45
 549 99 549 99 589 136 c 1,46,-1
 617 80 l 1,47,48
 574 39 574 39 503 16.5 c 128,-1,49
 432 -6 432 -6 345 -6 c 0,0,1
EndSplineSet
Validated: 5
Substitution2: "'c2sc' Capitals to Small Capitals lookup 45 subtable" uni025B.sc
Substitution2: "'aalt' Access All Alternates lookup 0 subtable" uni025B.sc
EndChar

StartChar: uni0191
Encoding: 401 401 337
Width: 646
GlyphClass: 1
Flags: W
LayerCount: 2
Fore
SplineSet
-27 -183 m 1,0,-1
 -5 -124 l 1,1,2
 26 -138 26 -138 56.5 -134 c 128,-1,3
 87 -130 87 -130 107.5 -107 c 128,-1,4
 128 -84 128 -84 128 -41 c 2,5,-1
 128 700 l 1,6,-1
 608 700 l 1,7,-1
 608 636 l 1,8,-1
 202 636 l 1,9,-1
 202 -41 l 2,10,11
 202 -94 202 -94 180.5 -129.5 c 128,-1,12
 159 -165 159 -165 125 -182.5 c 128,-1,13
 91 -200 91 -200 51 -199.5 c 128,-1,14
 11 -199 11 -199 -27 -183 c 1,0,-1
194 297 m 1,15,-1
 194 361 l 1,16,-1
 564 361 l 1,17,-1
 564 297 l 1,18,-1
 194 297 l 1,15,-1
EndSplineSet
Validated: 37
Substitution2: "'ss01' Style Set 1 lookup 50 subtable" uni0191.ss01
Substitution2: "'c2sc' Capitals to Small Capitals lookup 45 subtable" florin.sc
AlternateSubs2: "'aalt' Access All Alternates lookup 1 subtable" florin.sc uni0191.ss01
EndChar

StartChar: uni0193
Encoding: 403 403 339
Width: 780
GlyphClass: 2
Flags: W
AnchorPoint: "Anchor-3" 406 700 basechar 0
AnchorPoint: "Anchor-0" 406 0 basechar 0
LayerCount: 2
Fore
SplineSet
421 -6 m 0,0,1
 341 -6 341 -6 273.5 20.5 c 128,-1,2
 206 47 206 47 156.5 95 c 128,-1,3
 107 143 107 143 79.5 208 c 128,-1,4
 52 273 52 273 52 350 c 256,5,6
 52 427 52 427 79.5 492 c 128,-1,7
 107 557 107 557 157 605 c 128,-1,8
 207 653 207 653 274.5 679.5 c 128,-1,9
 342 706 342 706 422 706 c 256,10,11
 502 706 502 706 568.5 681 c 128,-1,12
 635 656 635 656 682 605 c 1,13,-1
 636 558 l 1,14,15
 592 602 592 602 539 621 c 128,-1,16
 486 640 486 640 425 640 c 0,17,18
 360 640 360 640 305.5 618.5 c 128,-1,19
 251 597 251 597 210.5 557.5 c 128,-1,20
 170 518 170 518 147.5 465.5 c 128,-1,21
 125 413 125 413 125 350 c 0,22,23
 125 288 125 288 147.5 235 c 128,-1,24
 170 182 170 182 210.5 142.5 c 128,-1,25
 251 103 251 103 305.5 81.5 c 128,-1,26
 360 60 360 60 424 60 c 0,27,28
 484 60 484 60 537.5 78 c 128,-1,29
 591 96 591 96 636 139 c 1,30,-1
 678 83 l 1,31,32
 628 39 628 39 561 16.5 c 128,-1,33
 494 -6 494 -6 421 -6 c 0,0,1
678 83 m 1,34,-1
 607 92 l 1,35,-1
 607 350 l 1,36,-1
 678 350 l 1,37,-1
 678 83 l 1,34,-1
615 605 m 1,38,-1
 615 676 l 2,39,40
 615 725 615 725 633.5 759 c 128,-1,41
 652 793 652 793 682 811 c 128,-1,42
 712 829 712 829 749.5 830 c 128,-1,43
 787 831 787 831 824 816 c 1,44,-1
 804 758 l 1,45,46
 774 771 774 771 746 764.5 c 128,-1,47
 718 758 718 758 700 736 c 128,-1,48
 682 714 682 714 682 676 c 2,49,-1
 682 605 l 1,50,-1
 615 605 l 1,38,-1
EndSplineSet
Validated: 37
Substitution2: "'ss01' Style Set 1 lookup 50 subtable" uni0193.ss01
Substitution2: "'c2sc' Capitals to Small Capitals lookup 45 subtable" uni0260.sc
AlternateSubs2: "'aalt' Access All Alternates lookup 1 subtable" uni0260.sc uni0193.ss01
EndChar

StartChar: uni0194
Encoding: 404 404 340
Width: 635
GlyphClass: 2
Flags: W
AnchorPoint: "Anchor-3" 317 700 basechar 0
AnchorPoint: "Anchor-1" 316 246 basechar 0
AnchorPoint: "Anchor-0" 317 0 basechar 0
LayerCount: 2
Fore
SplineSet
315 -201 m 256,0,1
 283 -201 283 -201 256.5 -186.5 c 128,-1,2
 230 -172 230 -172 214 -146.5 c 128,-1,3
 198 -121 198 -121 198 -88 c 0,4,5
 198 -59 198 -59 210.5 -25.5 c 128,-1,6
 223 8 223 8 241 41.5 c 128,-1,7
 259 75 259 75 276.5 105 c 128,-1,8
 294 135 294 135 305 157 c 2,9,-1
 567 700 l 1,10,-1
 641 700 l 1,11,-1
 357 111 l 2,12,13
 347 90 347 90 330.5 64.5 c 128,-1,14
 314 39 314 39 297.5 11.5 c 128,-1,15
 281 -16 281 -16 269.5 -41.5 c 128,-1,16
 258 -67 258 -67 258 -88 c 0,17,18
 258 -113 258 -113 275 -128.5 c 128,-1,19
 292 -144 292 -144 315 -144 c 256,20,21
 338 -144 338 -144 355.5 -129 c 128,-1,22
 373 -114 373 -114 373 -88 c 0,23,24
 373 -69 373 -69 363.5 -44 c 128,-1,25
 354 -19 354 -19 339.5 8.5 c 128,-1,26
 325 36 325 36 309.5 62.5 c 128,-1,27
 294 89 294 89 284 112 c 2,28,-1
 -3 700 l 1,29,-1
 77 700 l 1,30,-1
 338 157 l 2,31,32
 348 135 348 135 364 105.5 c 128,-1,33
 380 76 380 76 395.5 42.5 c 128,-1,34
 411 9 411 9 421.5 -24.5 c 128,-1,35
 432 -58 432 -58 432 -86 c 0,36,37
 432 -120 432 -120 416.5 -145.5 c 128,-1,38
 401 -171 401 -171 374 -186 c 128,-1,39
 347 -201 347 -201 315 -201 c 256,0,1
EndSplineSet
Validated: 5
Substitution2: "'c2sc' Capitals to Small Capitals lookup 45 subtable" uni0263.sc
Substitution2: "'aalt' Access All Alternates lookup 0 subtable" uni0263.sc
EndChar

StartChar: uni0196
Encoding: 406 406 341
Width: 370
GlyphClass: 2
Flags: W
AnchorPoint: "Anchor-3" 144 700 basechar 0
AnchorPoint: "Anchor-2" 303 0 basechar 0
AnchorPoint: "Anchor-0" 232 0 basechar 0
LayerCount: 2
Fore
SplineSet
262 -6 m 1,0,-1
 262 -6 l 1,1,2
 222 -6 222 -6 186.5 10.5 c 128,-1,3
 151 27 151 27 129 62 c 128,-1,4
 107 97 107 97 107 150 c 2,5,-1
 107 700 l 1,6,-1
 181 700 l 1,7,-1
 181 151 l 2,8,9
 181 104 181 104 207.5 81 c 128,-1,10
 234 58 234 58 270 58 c 0,11,12
 291 58 291 58 312 64.5 c 128,-1,13
 333 71 333 71 352 84 c 1,14,-1
 377 30 l 1,15,16
 352 12 352 12 322 3 c 128,-1,17
 292 -6 292 -6 262 -6 c 1,0,-1
EndSplineSet
Validated: 1
Substitution2: "'c2sc' Capitals to Small Capitals lookup 45 subtable" uni0269.sc
Substitution2: "'aalt' Access All Alternates lookup 0 subtable" uni0269.sc
EndChar

StartChar: uni0197
Encoding: 407 407 342
Width: 334
GlyphClass: 2
Flags: W
AnchorPoint: "Anchor-3" 167 700 basechar 0
AnchorPoint: "Anchor-2" 204 0 basechar 0
AnchorPoint: "Anchor-0" 167 0 basechar 0
LayerCount: 2
Fore
SplineSet
130 0 m 1,0,-1
 130 700 l 1,1,-1
 204 700 l 1,2,-1
 204 0 l 1,3,-1
 130 0 l 1,0,-1
22 327 m 1,4,-1
 22 387 l 1,5,-1
 312 387 l 1,6,-1
 312 327 l 1,7,-1
 22 327 l 1,4,-1
EndSplineSet
Validated: 5
Substitution2: "'ss01' Style Set 1 lookup 50 subtable" uni0197.ss01
Substitution2: "'c2sc' Capitals to Small Capitals lookup 45 subtable" uni0268.sc
AlternateSubs2: "'aalt' Access All Alternates lookup 1 subtable" uni0268.sc uni0197.ss01
EndChar

StartChar: uni0198
Encoding: 408 408 343
Width: 699
GlyphClass: 2
Flags: W
AnchorPoint: "Anchor-3" 373 700 basechar 0
AnchorPoint: "Anchor-0" 373 0 basechar 0
LayerCount: 2
Fore
SplineSet
178 185 m 1,0,-1
 175 277 l 1,1,-1
 512 683 l 2,2,3
 546 724 546 724 583 738 c 128,-1,4
 620 752 620 752 655.5 744.5 c 128,-1,5
 691 737 691 737 720 713 c 1,6,-1
 684 663 l 1,7,8
 658 686 658 686 623.5 683.5 c 128,-1,9
 589 681 589 681 556 642 c 2,10,-1
 178 185 l 1,0,-1
114 0 m 1,11,-1
 114 700 l 1,12,-1
 188 700 l 1,13,-1
 188 0 l 1,14,-1
 114 0 l 1,11,-1
617 0 m 1,15,-1
 308 356 l 1,16,-1
 358 410 l 1,17,-1
 705 0 l 1,18,-1
 617 0 l 1,15,-1
EndSplineSet
Validated: 37
Substitution2: "'c2sc' Capitals to Small Capitals lookup 45 subtable" uni0199.sc
Substitution2: "'aalt' Access All Alternates lookup 0 subtable" uni0199.sc
EndChar

StartChar: uni0199
Encoding: 409 409 344
Width: 596
GlyphClass: 2
Flags: W
AnchorPoint: "Anchor-0" 308 0 basechar 0
LayerCount: 2
Fore
SplineSet
152 136 m 1,0,-1
 153 227 l 1,1,-1
 480 525 l 1,2,-1
 568 525 l 1,3,-1
 337 304 l 1,4,-1
 296 270 l 1,5,-1
 152 136 l 1,0,-1
503 0 m 1,6,-1
 283 273 l 1,7,-1
 330 328 l 1,8,-1
 590 0 l 1,9,-1
 503 0 l 1,6,-1
167 0 m 1,10,-1
 96 0 l 1,11,-1
 96 589 l 2,12,13
 96 630 96 630 110 660 c 128,-1,14
 124 690 124 690 147.5 709 c 128,-1,15
 171 728 171 728 200.5 737 c 128,-1,16
 230 746 230 746 261 746 c 0,17,18
 300 746 300 746 336 733 c 128,-1,19
 372 720 372 720 398 696 c 1,20,-1
 362 646 l 1,21,22
 343 666 343 666 316.5 676 c 128,-1,23
 290 686 290 686 263 686 c 0,24,25
 224 686 224 686 195.5 662.5 c 128,-1,26
 167 639 167 639 167 588 c 2,27,-1
 167 0 l 1,10,-1
EndSplineSet
Validated: 5
Substitution2: "'smcp' Lowercase to Small Capitals lookup 46 subtable" uni0199.sc
Substitution2: "'aalt' Access All Alternates lookup 0 subtable" uni0199.sc
EndChar

StartChar: uni019A
Encoding: 410 410 345
Width: 312
GlyphClass: 2
Flags: W
AnchorPoint: "Anchor-4" 283 742 basechar 0
AnchorPoint: "Anchor-3" 156 725 basechar 0
AnchorPoint: "Anchor-1" 156 346 basechar 0
AnchorPoint: "Anchor-0" 156 0 basechar 0
LayerCount: 2
Fore
SplineSet
120 0 m 1,0,-1
 120 742 l 1,1,-1
 191 742 l 1,2,-1
 191 0 l 1,3,-1
 120 0 l 1,0,-1
23 320 m 1,4,-1
 23 372 l 1,5,-1
 289 372 l 1,6,-1
 289 320 l 1,7,-1
 23 320 l 1,4,-1
EndSplineSet
Validated: 5
Substitution2: "'ss01' Style Set 1 lookup 50 subtable" uni019A.ss01
Substitution2: "'smcp' Lowercase to Small Capitals lookup 46 subtable" uni019A.sc
AlternateSubs2: "'aalt' Access All Alternates lookup 1 subtable" uni019A.sc uni019A.ss01
EndChar

StartChar: uni019B
Encoding: 411 411 346
Width: 542
GlyphClass: 2
Flags: W
AnchorPoint: "Anchor-3" 271 742 basechar 0
AnchorPoint: "Anchor-0" 271 0 basechar 0
LayerCount: 2
Fore
SplineSet
104 747 m 0,0,1
 142 747 142 747 173 734 c 128,-1,2
 204 721 204 721 230.5 692 c 128,-1,3
 257 663 257 663 279 611 c 2,4,-1
 552 0 l 1,5,-1
 478 0 l 1,6,-1
 262 488 l 1,7,-1
 259 499 l 1,8,-1
 214 598 l 2,9,10
 191 648 191 648 165.5 667 c 128,-1,11
 140 686 140 686 105 686 c 0,12,13
 49 686 49 686 9 645 c 1,14,-1
 -24 699 l 1,15,16
 0 722 0 722 33.5 734.5 c 128,-1,17
 67 747 67 747 104 747 c 0,0,1
254 540 m 1,18,-1
 296 482 l 1,19,-1
 83 0 l 1,20,-1
 12 0 l 1,21,-1
 254 540 l 1,18,-1
64 533 m 1,22,-1
 46 582 l 1,23,-1
 405 714 l 1,24,-1
 423 665 l 1,25,-1
 64 533 l 1,22,-1
EndSplineSet
Validated: 5
Substitution2: "'ss01' Style Set 1 lookup 50 subtable" uni019B.ss01
Substitution2: "'smcp' Lowercase to Small Capitals lookup 46 subtable" uni019B.sc
AlternateSubs2: "'aalt' Access All Alternates lookup 1 subtable" uni019B.sc uni019B.ss01
EndChar

StartChar: uni019C
Encoding: 412 412 347
Width: 1226
GlyphClass: 2
Flags: W
AnchorPoint: "Anchor-3" 610 700 basechar 0
AnchorPoint: "Anchor-0" 610 0 basechar 0
LayerCount: 2
Fore
SplineSet
1111 700 m 1,0,-1
 1111 0 l 1,1,-1
 1040 0 l 1,2,-1
 1040 146 l 1,3,-1
 1049 136 l 1,4,5
 1023 66 1023 66 963 30 c 128,-1,6
 903 -6 903 -6 820 -6 c 0,7,8
 728 -6 728 -6 667 36 c 128,-1,9
 606 78 606 78 586 153 c 1,10,-1
 605 152 l 1,11,12
 579 74 579 74 514.5 34 c 128,-1,13
 450 -6 450 -6 362 -6 c 0,14,15
 245 -6 245 -6 176.5 61.5 c 128,-1,16
 108 129 108 129 108 263 c 2,17,-1
 108 700 l 1,18,-1
 182 700 l 1,19,-1
 182 265 l 2,20,21
 182 161 182 161 234.5 110.5 c 128,-1,22
 287 60 287 60 373 60 c 0,23,24
 465 60 465 60 519.5 112.5 c 128,-1,25
 574 165 574 165 574 281 c 2,26,-1
 574 700 l 1,27,-1
 647 700 l 1,28,-1
 647 265 l 2,29,30
 647 161 647 161 698 110.5 c 128,-1,31
 749 60 749 60 836 60 c 0,32,33
 897 60 897 60 942 83 c 128,-1,34
 987 106 987 106 1012.5 155 c 128,-1,35
 1038 204 1038 204 1038 281 c 2,36,-1
 1038 700 l 1,37,-1
 1111 700 l 1,0,-1
EndSplineSet
Validated: 5
Substitution2: "'c2sc' Capitals to Small Capitals lookup 45 subtable" uni026F.sc
Substitution2: "'aalt' Access All Alternates lookup 0 subtable" uni026F.sc
EndChar

StartChar: uni019D
Encoding: 413 413 348
Width: 813
GlyphClass: 2
Flags: W
AnchorPoint: "Anchor-3" 417 700 basechar 0
AnchorPoint: "Anchor-0" 415 0 basechar 0
LayerCount: 2
Fore
SplineSet
-27 -183 m 1,0,-1
 -5 -124 l 1,1,2
 26 -138 26 -138 56.5 -134 c 128,-1,3
 87 -130 87 -130 107.5 -107 c 128,-1,4
 128 -84 128 -84 128 -41 c 2,5,-1
 128 700 l 1,6,-1
 199 700 l 1,7,-1
 199 527 l 1,8,-1
 180 539 l 1,9,10
 210 626 210 626 276.5 666 c 128,-1,11
 343 706 343 706 436 706 c 0,12,13
 561 706 561 706 633 632 c 128,-1,14
 705 558 705 558 705 417 c 2,15,-1
 705 0 l 1,16,-1
 631 0 l 1,17,-1
 631 415 l 2,18,19
 631 527 631 527 575.5 583.5 c 128,-1,20
 520 640 520 640 422 640 c 0,21,22
 321 640 321 640 261.5 581 c 128,-1,23
 202 522 202 522 202 398 c 2,24,-1
 202 -41 l 2,25,26
 202 -94 202 -94 180.5 -129.5 c 128,-1,27
 159 -165 159 -165 125 -182.5 c 128,-1,28
 91 -200 91 -200 51 -199.5 c 128,-1,29
 11 -199 11 -199 -27 -183 c 1,0,-1
EndSplineSet
Validated: 37
Substitution2: "'c2sc' Capitals to Small Capitals lookup 45 subtable" uni0272.sc
Substitution2: "'aalt' Access All Alternates lookup 0 subtable" uni0272.sc
EndChar

StartChar: uni019E
Encoding: 414 414 349
Width: 676
GlyphClass: 2
Flags: W
AnchorPoint: "Anchor-3" 340 526 basechar 0
AnchorPoint: "Anchor-0" 340 0 basechar 0
LayerCount: 2
Fore
SplineSet
512 -194 m 1,0,-1
 512 298 l 2,1,2
 512 381 512 381 470.5 423.5 c 128,-1,3
 429 466 429 466 354 466 c 0,4,5
 298 466 298 466 256.5 443.5 c 128,-1,6
 215 421 215 421 192.5 378.5 c 128,-1,7
 170 336 170 336 170 276 c 2,8,-1
 170 0 l 1,9,-1
 99 0 l 1,10,-1
 99 525 l 1,11,-1
 167 525 l 1,12,-1
 167 381 l 1,13,-1
 156 408 l 1,14,15
 181 465 181 465 236 497.5 c 128,-1,16
 291 530 291 530 367 530 c 0,17,18
 431 530 431 530 479.5 505.5 c 128,-1,19
 528 481 528 481 555.5 431 c 128,-1,20
 583 381 583 381 583 305 c 2,21,-1
 583 -194 l 1,22,-1
 512 -194 l 1,0,-1
EndSplineSet
Validated: 5
Substitution2: "'smcp' Lowercase to Small Capitals lookup 46 subtable" uni019E.sc
Substitution2: "'aalt' Access All Alternates lookup 0 subtable" uni019E.sc
EndChar

StartChar: Ohorn
Encoding: 416 416 351
Width: 839
GlyphClass: 2
Flags: W
AnchorPoint: "Anchor-3" 420 700 basechar 0
AnchorPoint: "Anchor-0" 420 0 basechar 0
LayerCount: 2
Fore
SplineSet
420 -6 m 0,0,1
 340 -6 340 -6 273 20.5 c 128,-1,2
 206 47 206 47 156.5 95.5 c 128,-1,3
 107 144 107 144 79.5 208.5 c 128,-1,4
 52 273 52 273 52 350 c 256,5,6
 52 427 52 427 79.5 492 c 128,-1,7
 107 557 107 557 157 605 c 128,-1,8
 207 653 207 653 274.5 679.5 c 128,-1,9
 342 706 342 706 422 706 c 0,10,11
 484 706 484 706 529.5 699 c 128,-1,12
 575 692 575 692 620 692 c 0,13,14
 669 692 669 692 694 711 c 128,-1,15
 719 730 719 730 719 768 c 0,16,17
 719 787 719 787 713 802.5 c 128,-1,18
 707 818 707 818 699 832 c 1,19,-1
 746 850 l 1,20,21
 758 833 758 833 765 811 c 128,-1,22
 772 789 772 789 772 766 c 0,23,24
 772 707 772 707 732 675.5 c 128,-1,25
 692 644 692 644 617 644 c 0,26,27
 592 644 592 644 561.5 647 c 128,-1,28
 531 650 531 650 504 654 c 1,29,-1
 592 665 l 1,30,31
 651 638 651 638 695 591 c 128,-1,32
 739 544 739 544 763 482.5 c 128,-1,33
 787 421 787 421 787 350 c 0,34,35
 787 273 787 273 759.5 208 c 128,-1,36
 732 143 732 143 682.5 95 c 128,-1,37
 633 47 633 47 566 20.5 c 128,-1,38
 499 -6 499 -6 420 -6 c 0,0,1
420 60 m 256,39,40
 483 60 483 60 536.5 82 c 128,-1,41
 590 104 590 104 629.5 143 c 128,-1,42
 669 182 669 182 691 235 c 128,-1,43
 713 288 713 288 713 350 c 256,44,45
 713 412 713 412 691 465 c 128,-1,46
 669 518 669 518 629.5 557 c 128,-1,47
 590 596 590 596 536.5 618 c 128,-1,48
 483 640 483 640 420 640 c 256,49,50
 357 640 357 640 303 618.5 c 128,-1,51
 249 597 249 597 209.5 557.5 c 128,-1,52
 170 518 170 518 147.5 465.5 c 128,-1,53
 125 413 125 413 125 350 c 0,54,55
 125 288 125 288 147.5 235 c 128,-1,56
 170 182 170 182 209.5 142.5 c 128,-1,57
 249 103 249 103 303 81.5 c 128,-1,58
 357 60 357 60 420 60 c 256,39,40
EndSplineSet
Validated: 5
Substitution2: "'c2sc' Capitals to Small Capitals lookup 45 subtable" ohorn.sc
Substitution2: "'aalt' Access All Alternates lookup 0 subtable" ohorn.sc
EndChar

StartChar: ohorn
Encoding: 417 417 352
Width: 627
GlyphClass: 2
Flags: W
AnchorPoint: "Anchor-3" 314 526 basechar 0
AnchorPoint: "Anchor-0" 314 0 basechar 0
LayerCount: 2
Fore
SplineSet
313 -5 m 0,0,1
 236 -5 236 -5 176 29.5 c 128,-1,2
 116 64 116 64 81 124.5 c 128,-1,3
 46 185 46 185 46 263 c 0,4,5
 46 342 46 342 81 401.5 c 128,-1,6
 116 461 116 461 176.5 495.5 c 128,-1,7
 237 530 237 530 314 530 c 0,8,9
 341 530 341 530 359.5 529 c 128,-1,10
 378 528 378 528 396.5 526 c 128,-1,11
 415 524 415 524 438 524 c 0,12,13
 480 524 480 524 499.5 545 c 128,-1,14
 519 566 519 566 519 594 c 0,15,16
 519 613 519 613 513 628.5 c 128,-1,17
 507 644 507 644 499 658 c 1,18,-1
 545 676 l 1,19,20
 557 659 557 659 564 637 c 128,-1,21
 571 615 571 615 571 592 c 0,22,23
 571 558 571 558 555.5 531.5 c 128,-1,24
 540 505 540 505 509.5 490 c 128,-1,25
 479 475 479 475 434 475 c 0,26,27
 421 475 421 475 407.5 476.5 c 128,-1,28
 394 478 394 478 377 480 c 1,29,-1
 412 513 l 1,30,31
 488 486 488 486 534.5 419.5 c 128,-1,32
 581 353 581 353 581 263 c 0,33,34
 581 185 581 185 546.5 124.5 c 128,-1,35
 512 64 512 64 451.5 29.5 c 128,-1,36
 391 -5 391 -5 313 -5 c 0,0,1
313 58 m 0,37,38
 369 58 369 58 413.5 83.5 c 128,-1,39
 458 109 458 109 483.5 155.5 c 128,-1,40
 509 202 509 202 509 263 c 0,41,42
 509 325 509 325 483.5 371 c 128,-1,43
 458 417 458 417 414 442.5 c 128,-1,44
 370 468 370 468 313 468 c 0,45,46
 258 468 258 468 214 442.5 c 128,-1,47
 170 417 170 417 144 371 c 128,-1,48
 118 325 118 325 118 263 c 0,49,50
 118 202 118 202 144 155.5 c 128,-1,51
 170 109 170 109 214 83.5 c 128,-1,52
 258 58 258 58 313 58 c 0,37,38
EndSplineSet
Validated: 5
Substitution2: "'smcp' Lowercase to Small Capitals lookup 46 subtable" ohorn.sc
Substitution2: "'aalt' Access All Alternates lookup 0 subtable" ohorn.sc
EndChar

StartChar: uni01A4
Encoding: 420 420 353
Width: 875
GlyphClass: 2
Flags: W
AnchorPoint: "Anchor-3" 516 700 basechar 0
AnchorPoint: "Anchor-0" 516 0 basechar 0
LayerCount: 2
Fore
SplineSet
96 403 m 1,0,1
 64 436 64 436 48.5 475.5 c 128,-1,2
 33 515 33 515 34.5 554.5 c 128,-1,3
 36 594 36 594 55 627 c 128,-1,4
 74 660 74 660 113 680 c 128,-1,5
 152 700 152 700 211 700 c 2,6,-1
 278 700 l 1,7,-1
 278 636 l 1,8,-1
 211 636 l 2,9,10
 168 636 168 636 143 618 c 128,-1,11
 118 600 118 600 110 571 c 128,-1,12
 102 542 102 542 111 509 c 128,-1,13
 120 476 120 476 146 444 c 1,14,-1
 96 403 l 1,0,1
271 0 m 1,15,-1
 271 700 l 1,16,-1
 532 700 l 2,17,18
 622 700 622 700 686 671.5 c 128,-1,19
 750 643 750 643 784.5 589.5 c 128,-1,20
 819 536 819 536 819 460 c 0,21,22
 819 386 819 386 784.5 332.5 c 128,-1,23
 750 279 750 279 686 250 c 128,-1,24
 622 221 622 221 532 221 c 2,25,-1
 311 221 l 1,26,-1
 344 256 l 1,27,-1
 344 0 l 1,28,-1
 271 0 l 1,15,-1
344 250 m 1,29,-1
 311 286 l 1,30,-1
 531 286 l 2,31,32
 636 286 636 286 690.5 331.5 c 128,-1,33
 745 377 745 377 745 460 c 0,34,35
 745 544 745 544 690.5 590 c 128,-1,36
 636 636 636 636 531 636 c 2,37,-1
 311 636 l 1,38,-1
 344 671 l 1,39,-1
 344 250 l 1,29,-1
EndSplineSet
Validated: 37
Substitution2: "'c2sc' Capitals to Small Capitals lookup 45 subtable" uni01A5.sc
Substitution2: "'aalt' Access All Alternates lookup 0 subtable" uni01A5.sc
EndChar

StartChar: uni01A5
Encoding: 421 421 354
Width: 678
GlyphClass: 2
Flags: W
AnchorPoint: "Anchor-3" 365 742 basechar 0
AnchorPoint: "Anchor-0" 378 0 basechar 0
LayerCount: 2
Fore
SplineSet
370 -5 m 0,0,1
 302 -5 302 -5 247 26.5 c 128,-1,2
 192 58 192 58 159.5 117.5 c 128,-1,3
 127 177 127 177 127 263 c 256,4,5
 127 349 127 349 159 408.5 c 128,-1,6
 191 468 191 468 246 499 c 128,-1,7
 301 530 301 530 370 530 c 0,8,9
 445 530 445 530 504.5 496.5 c 128,-1,10
 564 463 564 463 598 402.5 c 128,-1,11
 632 342 632 342 632 263 c 0,12,13
 632 183 632 183 598 123 c 128,-1,14
 564 63 564 63 504.5 29 c 128,-1,15
 445 -5 445 -5 370 -5 c 0,0,1
365 58 m 256,16,17
 421 58 421 58 465 83.5 c 128,-1,18
 509 109 509 109 535 155.5 c 128,-1,19
 561 202 561 202 561 263 c 256,20,21
 561 324 561 324 535 370 c 128,-1,22
 509 416 509 416 465 442 c 128,-1,23
 421 468 421 468 365 468 c 256,24,25
 309 468 309 468 264.5 442 c 128,-1,26
 220 416 220 416 194.5 370 c 128,-1,27
 169 324 169 324 169 263 c 256,28,29
 169 202 169 202 194.5 155.5 c 128,-1,30
 220 109 220 109 264.5 83.5 c 128,-1,31
 309 58 309 58 365 58 c 256,16,17
170 367 m 1,32,-1
 160 262 l 1,33,-1
 170 156 l 1,34,-1
 170 -194 l 1,35,-1
 99 -194 l 1,36,-1
 99 589 l 2,37,38
 99 630 99 630 113 660 c 128,-1,39
 127 690 127 690 150.5 709 c 128,-1,40
 174 728 174 728 203.5 737 c 128,-1,41
 233 746 233 746 265 746 c 0,42,43
 303 746 303 746 339.5 733 c 128,-1,44
 376 720 376 720 401 696 c 1,45,-1
 365 646 l 1,46,47
 346 666 346 666 319.5 676 c 128,-1,48
 293 686 293 686 267 686 c 0,49,50
 227 686 227 686 198.5 662.5 c 128,-1,51
 170 639 170 639 170 588 c 2,52,-1
 170 367 l 1,32,-1
EndSplineSet
Validated: 5
Substitution2: "'smcp' Lowercase to Small Capitals lookup 46 subtable" uni01A5.sc
Substitution2: "'aalt' Access All Alternates lookup 0 subtable" uni01A5.sc
EndChar

StartChar: uni01A6
Encoding: 422 422 355
Width: 723
GlyphClass: 2
Flags: W
AnchorPoint: "Anchor-3" 367 700 basechar 0
AnchorPoint: "Anchor-0" 367 0 basechar 0
LayerCount: 2
Fore
SplineSet
155 148 m 1,0,-1
 155 211 l 1,1,-1
 374 211 l 2,2,3
 479 211 479 211 533.5 257 c 128,-1,4
 588 303 588 303 588 386 c 0,5,6
 588 470 588 470 533.5 515.5 c 128,-1,7
 479 561 479 561 374 561 c 2,8,-1
 155 561 l 1,9,-1
 155 626 l 1,10,-1
 376 626 l 2,11,12
 509 626 509 626 585.5 562.5 c 128,-1,13
 662 499 662 499 662 386 c 0,14,15
 662 312 662 312 627.5 258.5 c 128,-1,16
 593 205 593 205 529 176.5 c 128,-1,17
 465 148 465 148 376 148 c 2,18,-1
 155 148 l 1,0,-1
114 0 m 1,19,-1
 114 700 l 1,20,-1
 188 700 l 1,21,-1
 188 0 l 1,22,-1
 114 0 l 1,19,-1
592 -100 m 1,23,-1
 402 169 l 1,24,-1
 483 169 l 1,25,-1
 673 -100 l 1,26,-1
 592 -100 l 1,23,-1
EndSplineSet
Validated: 5
Substitution2: "'c2sc' Capitals to Small Capitals lookup 45 subtable" uni0280.sc
Substitution2: "'aalt' Access All Alternates lookup 0 subtable" uni0280.sc
EndChar

StartChar: uni01A9
Encoding: 425 425 356
Width: 465
GlyphClass: 1
Flags: W
LayerCount: 2
Fore
SplineSet
102 -6 m 0,0,1
 66 -6 66 -6 31.5 6 c 128,-1,2
 -3 18 -3 18 -29 43 c 1,3,-1
 -5 97 l 1,4,5
 17 78 17 78 41.5 68 c 128,-1,6
 66 58 66 58 93 58 c 0,7,8
 136 58 136 58 166.5 83.5 c 128,-1,9
 197 109 197 109 196 166 c 2,10,-1
 191 531 l 2,11,12
 190 592 190 592 212 630.5 c 128,-1,13
 234 669 234 669 272 687.5 c 128,-1,14
 310 706 310 706 359 706 c 0,15,16
 396 706 396 706 430 694 c 128,-1,17
 464 682 464 682 489 657 c 1,18,-1
 465 603 l 1,19,20
 443 622 443 622 418 632 c 128,-1,21
 393 642 393 642 369 642 c 0,22,23
 343 642 343 642 319 632 c 128,-1,24
 295 622 295 622 280 598.5 c 128,-1,25
 265 575 265 575 265 534 c 2,26,-1
 270 169 l 2,27,28
 270 117 270 117 255 83 c 128,-1,29
 240 49 240 49 215 29 c 128,-1,30
 190 9 190 9 160 1.5 c 128,-1,31
 130 -6 130 -6 102 -6 c 0,0,1
EndSplineSet
Validated: 33
Substitution2: "'c2sc' Capitals to Small Capitals lookup 45 subtable" uni0283.sc
Substitution2: "'aalt' Access All Alternates lookup 0 subtable" uni0283.sc
EndChar

StartChar: uni01AC
Encoding: 428 428 357
Width: 638
GlyphClass: 1
Flags: W
LayerCount: 2
Fore
SplineSet
314 0 m 1,0,-1
 314 651 l 1,1,-1
 331 636 l 1,2,-1
 206 636 l 2,3,4
 161 636 161 636 135.5 617 c 128,-1,5
 110 598 110 598 102.5 568 c 128,-1,6
 95 538 95 538 105.5 504 c 128,-1,7
 116 470 116 470 143 439 c 1,8,-1
 95 404 l 1,9,10
 64 437 64 437 48.5 476.5 c 128,-1,11
 33 516 33 516 34.5 555.5 c 128,-1,12
 36 595 36 595 55 627.5 c 128,-1,13
 74 660 74 660 111.5 680 c 128,-1,14
 149 700 149 700 206 700 c 2,15,-1
 634 700 l 1,16,-1
 634 636 l 1,17,-1
 372 636 l 1,18,-1
 387 651 l 1,19,-1
 387 0 l 1,20,-1
 314 0 l 1,0,-1
EndSplineSet
Validated: 37
Substitution2: "'ss01' Style Set 1 lookup 50 subtable" uni01AC.ss01
Substitution2: "'c2sc' Capitals to Small Capitals lookup 45 subtable" uni01AD.sc
AlternateSubs2: "'aalt' Access All Alternates lookup 1 subtable" uni01AD.sc uni01AC.ss01
EndChar

StartChar: uni01AD
Encoding: 429 429 358
Width: 409
GlyphClass: 2
Flags: W
AnchorPoint: "Anchor-3" 262 742 basechar 0
AnchorPoint: "Anchor-0" 262 0 basechar 0
LayerCount: 2
Fore
SplineSet
263 -5 m 0,0,1
 191 -5 191 -5 151 35 c 128,-1,2
 111 75 111 75 111 148 c 2,3,-1
 111 590 l 2,4,5
 111 631 111 631 124 661 c 128,-1,6
 137 691 137 691 159.5 710 c 128,-1,7
 182 729 182 729 209.5 738 c 128,-1,8
 237 747 237 747 267 747 c 0,9,10
 298 747 298 747 327.5 737 c 128,-1,11
 357 727 357 727 379 709 c 1,12,-1
 354 658 l 1,13,14
 338 672 338 672 316 679.5 c 128,-1,15
 294 687 294 687 271 687 c 0,16,17
 237 687 237 687 209.5 665 c 128,-1,18
 182 643 182 643 182 589 c 2,19,-1
 182 152 l 2,20,21
 182 106 182 106 205.5 81 c 128,-1,22
 229 56 229 56 273 56 c 0,23,24
 320 56 320 56 351 83 c 1,25,-1
 376 32 l 1,26,27
 355 13 355 13 325.5 4 c 128,-1,28
 296 -5 296 -5 263 -5 c 0,0,1
17 466 m 1,29,-1
 17 525 l 1,30,-1
 342 525 l 1,31,-1
 342 466 l 1,32,-1
 17 466 l 1,29,-1
EndSplineSet
Validated: 5
Substitution2: "'ss01' Style Set 1 lookup 50 subtable" uni01AD.ss01
Substitution2: "'smcp' Lowercase to Small Capitals lookup 46 subtable" uni01AD.sc
AlternateSubs2: "'aalt' Access All Alternates lookup 1 subtable" uni01AD.sc uni01AD.ss01
EndChar

StartChar: uni01AE
Encoding: 430 430 359
Width: 574
GlyphClass: 2
Flags: W
AnchorPoint: "Anchor-3" 287 700 basechar 0
AnchorPoint: "Anchor-1" 287 345 basechar 0
AnchorPoint: "Anchor-0" 287 0 basechar 0
LayerCount: 2
Fore
SplineSet
513 -163 m 1,0,1
 475 -189 475 -189 430 -196.5 c 128,-1,2
 385 -204 385 -204 344 -190 c 128,-1,3
 303 -176 303 -176 276.5 -139.5 c 128,-1,4
 250 -103 250 -103 250 -43 c 2,5,-1
 250 647 l 1,6,-1
 324 647 l 1,7,-1
 324 -40 l 2,8,9
 324 -78 324 -78 339.5 -100.5 c 128,-1,10
 355 -123 355 -123 380 -130.5 c 128,-1,11
 405 -138 405 -138 433 -132.5 c 128,-1,12
 461 -127 461 -127 487 -108 c 1,13,-1
 513 -163 l 1,0,1
4 636 m 1,14,-1
 4 700 l 1,15,-1
 570 700 l 1,16,-1
 570 636 l 1,17,-1
 4 636 l 1,14,-1
EndSplineSet
Validated: 37
Substitution2: "'ss01' Style Set 1 lookup 50 subtable" uni01AE.ss01
Substitution2: "'c2sc' Capitals to Small Capitals lookup 45 subtable" uni0288.sc
AlternateSubs2: "'aalt' Access All Alternates lookup 1 subtable" uni0288.sc uni01AE.ss01
EndChar

StartChar: uni01B1
Encoding: 433 433 362
Width: 853
GlyphClass: 2
Flags: W
AnchorPoint: "Anchor-3" 427 700 basechar 0
AnchorPoint: "Anchor-0" 427 0 basechar 0
LayerCount: 2
Fore
SplineSet
838 700 m 1,0,-1
 838 635 l 1,1,-1
 645 635 l 1,2,3
 717 584 717 584 755.5 508 c 128,-1,4
 794 432 794 432 794 344 c 0,5,6
 794 267 794 267 766 203 c 128,-1,7
 738 139 738 139 688.5 92 c 128,-1,8
 639 45 639 45 572 19.5 c 128,-1,9
 505 -6 505 -6 427 -6 c 256,10,11
 349 -6 349 -6 282 19.5 c 128,-1,12
 215 45 215 45 165 92 c 128,-1,13
 115 139 115 139 87.5 203 c 128,-1,14
 60 267 60 267 60 344 c 0,15,16
 60 432 60 432 98 508 c 128,-1,17
 136 584 136 584 209 635 c 1,18,-1
 15 635 l 1,19,-1
 15 700 l 1,20,-1
 323 700 l 1,21,-1
 323 640 l 1,22,23
 230 592 230 592 182 514.5 c 128,-1,24
 134 437 134 437 134 347 c 0,25,26
 134 284 134 284 155.5 231.5 c 128,-1,27
 177 179 177 179 216.5 140.5 c 128,-1,28
 256 102 256 102 309.5 81 c 128,-1,29
 363 60 363 60 427 60 c 0,30,31
 490 60 490 60 544 81 c 128,-1,32
 598 102 598 102 637 140.5 c 128,-1,33
 676 179 676 179 698 231.5 c 128,-1,34
 720 284 720 284 720 347 c 0,35,36
 720 438 720 438 672 515.5 c 128,-1,37
 624 593 624 593 531 640 c 1,38,-1
 531 700 l 1,39,-1
 838 700 l 1,0,-1
EndSplineSet
Validated: 1
Substitution2: "'c2sc' Capitals to Small Capitals lookup 45 subtable" uni028A.sc
Substitution2: "'aalt' Access All Alternates lookup 0 subtable" uni028A.sc
EndChar

StartChar: uni01B2
Encoding: 434 434 363
Width: 783
GlyphClass: 2
Flags: W
AnchorPoint: "Anchor-4" 662 700 basechar 0
AnchorPoint: "Anchor-3" 394 700 basechar 0
AnchorPoint: "Anchor-2" 590 0 basechar 0
AnchorPoint: "Anchor-0" 394 0 basechar 0
LayerCount: 2
Fore
SplineSet
394 -6 m 256,0,1
 260 -6 260 -6 183 71 c 128,-1,2
 106 148 106 148 106 299 c 2,3,-1
 106 700 l 1,4,-1
 180 700 l 1,5,-1
 180 302 l 2,6,7
 180 178 180 178 236 119 c 128,-1,8
 292 60 292 60 394 60 c 0,9,10
 497 60 497 60 553 119 c 128,-1,11
 609 178 609 178 609 302 c 2,12,-1
 609 553 l 2,13,14
 609 592 609 592 593 615 c 128,-1,15
 577 638 577 638 551 645.5 c 128,-1,16
 525 653 525 653 495.5 646 c 128,-1,17
 466 639 466 639 441 619 c 1,18,-1
 414 674 l 1,19,20
 451 702 451 702 497 710.5 c 128,-1,21
 543 719 543 719 585.5 706 c 128,-1,22
 628 693 628 693 655.5 656 c 128,-1,23
 683 619 683 619 683 555 c 2,24,-1
 683 299 l 2,25,26
 683 148 683 148 605.5 71 c 128,-1,27
 528 -6 528 -6 394 -6 c 256,0,1
EndSplineSet
Validated: 33
Substitution2: "'c2sc' Capitals to Small Capitals lookup 45 subtable" uni028B.sc
Substitution2: "'locl' Localized Forms in Latin lookup 18 subtable" uni01B2.loclTOD0
AlternateSubs2: "'aalt' Access All Alternates lookup 1 subtable" uni01B2.loclTOD0 uni028B.sc
EndChar

StartChar: uni01B3
Encoding: 435 435 364
Width: 683
GlyphClass: 2
Flags: W
AnchorPoint: "Anchor-3" 317 700 basechar 0
AnchorPoint: "Anchor-1" 316 246 basechar 0
AnchorPoint: "Anchor-0" 317 0 basechar 0
LayerCount: 2
Fore
SplineSet
749 717 m 1,0,-1
 713 666 l 1,1,2
 686 687 686 687 651 681.5 c 128,-1,3
 616 676 616 676 588 629 c 2,4,-1
 337 214 l 1,5,-1
 354 260 l 1,6,-1
 354 0 l 1,7,-1
 281 0 l 1,8,-1
 281 260 l 1,9,-1
 298 214 l 1,10,-1
 1 700 l 1,11,-1
 80 700 l 1,12,-1
 341 273 l 1,13,-1
 299 273 l 1,14,-1
 536 663 l 2,15,16
 566 712 566 712 603 731 c 128,-1,17
 640 750 640 750 678.5 745.5 c 128,-1,18
 717 741 717 741 749 717 c 1,0,-1
EndSplineSet
Validated: 37
Substitution2: "'ss01' Style Set 1 lookup 50 subtable" uni01B3.ss01
Substitution2: "'c2sc' Capitals to Small Capitals lookup 45 subtable" uni01B4.sc
AlternateSubs2: "'aalt' Access All Alternates lookup 1 subtable" uni01B4.sc uni01B3.ss01
EndChar

StartChar: uni01B4
Encoding: 436 436 365
Width: 620
GlyphClass: 2
Flags: W
AnchorPoint: "Anchor-3" 257 526 basechar 0
AnchorPoint: "Anchor-0" 388 0 basechar 0
LayerCount: 2
Fore
SplineSet
103 -199 m 1,0,-1
 103 -199 l 1,1,2
 66 -199 66 -199 32.5 -187 c 128,-1,3
 -1 -175 -1 -175 -25 -151 c 1,4,-1
 8 -98 l 1,5,6
 28 -117 28 -117 51.5 -127.5 c 128,-1,7
 75 -138 75 -138 104 -138 c 0,8,9
 139 -138 139 -138 165 -118.5 c 128,-1,10
 191 -99 191 -99 213 -50 c 2,11,-1
 247 27 l 1,12,-1
 255 38 l 1,13,-1
 446 470 l 2,14,15
 468 518 468 518 497.5 545.5 c 128,-1,16
 527 573 527 573 561.5 576.5 c 128,-1,17
 596 580 596 580 635 558 c 1,18,-1
 609 505 l 1,19,20
 584 518 584 518 557 509 c 128,-1,21
 530 500 530 500 507 449 c 2,22,-1
 278 -63 l 2,23,24
 256 -114 256 -114 229.5 -143.5 c 128,-1,25
 203 -173 203 -173 172 -186 c 128,-1,26
 141 -199 141 -199 103 -199 c 1,0,-1
243 -15 m 1,27,-1
 1 525 l 1,28,-1
 75 525 l 1,29,-1
 289 43 l 1,30,-1
 243 -15 l 1,27,-1
EndSplineSet
Validated: 37
Substitution2: "'ss01' Style Set 1 lookup 50 subtable" uni01B4.ss01
Substitution2: "'smcp' Lowercase to Small Capitals lookup 46 subtable" uni01B4.sc
AlternateSubs2: "'aalt' Access All Alternates lookup 1 subtable" uni01B4.sc uni01B4.ss01
EndChar

StartChar: uni01B5
Encoding: 437 437 366
Width: 651
GlyphClass: 2
Flags: W
AnchorPoint: "Anchor-3" 332 700 basechar 0
AnchorPoint: "Anchor-0" 340 0 basechar 0
LayerCount: 2
Fore
SplineSet
45 0 m 1,0,-1
 45 51 l 1,1,-1
 531 664 l 1,2,-1
 539 636 l 1,3,-1
 52 636 l 1,4,-1
 52 700 l 1,5,-1
 607 700 l 1,6,-1
 607 649 l 1,7,-1
 122 36 l 1,8,-1
 113 64 l 1,9,-1
 619 64 l 1,10,-1
 619 0 l 1,11,-1
 45 0 l 1,0,-1
130 327 m 1,12,-1
 130 387 l 1,13,-1
 534 387 l 1,14,-1
 534 327 l 1,15,-1
 130 327 l 1,12,-1
EndSplineSet
Validated: 5
Substitution2: "'c2sc' Capitals to Small Capitals lookup 45 subtable" uni01B6.sc
Substitution2: "'aalt' Access All Alternates lookup 0 subtable" uni01B6.sc
EndChar

StartChar: uni01B6
Encoding: 438 438 367
Width: 511
GlyphClass: 2
Flags: W
AnchorPoint: "Anchor-4" 414 742 basechar 0
AnchorPoint: "Anchor-3" 256 526 basechar 0
AnchorPoint: "Anchor-0" 264 0 basechar 0
LayerCount: 2
Fore
SplineSet
42 0 m 1,0,-1
 42 47 l 1,1,-1
 392 490 l 1,2,-1
 407 466 l 1,3,-1
 48 466 l 1,4,-1
 48 525 l 1,5,-1
 463 525 l 1,6,-1
 463 479 l 1,7,-1
 114 35 l 1,8,-1
 96 59 l 1,9,-1
 470 59 l 1,10,-1
 470 0 l 1,11,-1
 42 0 l 1,0,-1
95 244 m 1,12,-1
 95 296 l 1,13,-1
 422 296 l 1,14,-1
 422 244 l 1,15,-1
 95 244 l 1,12,-1
EndSplineSet
Validated: 5
Substitution2: "'smcp' Lowercase to Small Capitals lookup 46 subtable" uni01B6.sc
Substitution2: "'aalt' Access All Alternates lookup 0 subtable" uni01B6.sc
EndChar

StartChar: uni01B8
Encoding: 440 440 369
Width: 620
GlyphClass: 2
Flags: W
AnchorPoint: "Anchor-3" 313 700 basechar 0
AnchorPoint: "Anchor-0" 313 0 basechar 0
LayerCount: 2
Fore
SplineSet
325 -6 m 0,0,1
 237 -6 237 -6 178 21 c 128,-1,2
 119 48 119 48 89.5 95 c 128,-1,3
 60 142 60 142 60 201 c 256,4,5
 60 260 60 260 89.5 305 c 128,-1,6
 119 350 119 350 177.5 375 c 128,-1,7
 236 400 236 400 325 400 c 2,8,-1
 352 400 l 1,9,-1
 327 378 l 1,10,-1
 91 649 l 1,11,-1
 91 700 l 1,12,-1
 562 700 l 1,13,-1
 562 637 l 1,14,-1
 149 637 l 1,15,-1
 155 669 l 1,16,-1
 392 398 l 1,17,-1
 392 341 l 1,18,-1
 336 341 l 2,19,20
 232 341 232 341 182 303 c 128,-1,21
 132 265 132 265 132 201 c 0,22,23
 132 135 132 135 182.5 96.5 c 128,-1,24
 233 58 233 58 327 58 c 0,25,26
 402 58 402 58 463 81.5 c 128,-1,27
 524 105 524 105 559 140 c 1,28,-1
 588 82 l 1,29,30
 549 43 549 43 478 18.5 c 128,-1,31
 407 -6 407 -6 325 -6 c 0,0,1
EndSplineSet
Validated: 5
Substitution2: "'c2sc' Capitals to Small Capitals lookup 45 subtable" uni01B9.sc
Substitution2: "'aalt' Access All Alternates lookup 0 subtable" uni01B9.sc
EndChar

StartChar: uni01B9
Encoding: 441 441 370
Width: 527
GlyphClass: 1
Flags: W
LayerCount: 2
Fore
SplineSet
296 -199 m 0,0,1
 248 -199 248 -199 202 -187 c 128,-1,2
 156 -175 156 -175 120 -149.5 c 128,-1,3
 84 -124 84 -124 63 -84 c 128,-1,4
 42 -44 42 -44 42 11 c 0,5,6
 42 103 42 103 106 160.5 c 128,-1,7
 170 218 170 218 296 218 c 2,8,-1
 324 218 l 1,9,-1
 297 195 l 1,10,-1
 69 476 l 1,11,-1
 69 527 l 1,12,-1
 519 527 l 1,13,-1
 519 462 l 1,14,-1
 129 462 l 1,15,-1
 142 491 l 1,16,-1
 367 209 l 1,17,-1
 367 157 l 1,18,-1
 305 157 l 2,19,20
 206 157 206 157 159.5 118 c 128,-1,21
 113 79 113 79 113 12 c 0,22,23
 113 -41 113 -41 139 -74 c 128,-1,24
 165 -107 165 -107 206 -122 c 128,-1,25
 247 -137 247 -137 295 -137 c 0,26,27
 334 -137 334 -137 374.5 -127 c 128,-1,28
 415 -117 415 -117 451.5 -99 c 128,-1,29
 488 -81 488 -81 515 -56 c 1,30,-1
 548 -109 l 1,31,32
 521 -136 521 -136 480.5 -157 c 128,-1,33
 440 -178 440 -178 392.5 -188.5 c 128,-1,34
 345 -199 345 -199 296 -199 c 0,0,1
EndSplineSet
Validated: 5
Substitution2: "'smcp' Lowercase to Small Capitals lookup 46 subtable" uni01B9.sc
Substitution2: "'aalt' Access All Alternates lookup 0 subtable" uni01B9.sc
EndChar

StartChar: uni01C2
Encoding: 450 450 373
Width: 615
GlyphClass: 1
Flags: W
LayerCount: 2
Fore
SplineSet
272 -194 m 1,0,-1
 272 144 l 1,1,-1
 30 144 l 1,2,-1
 30 207 l 1,3,-1
 272 207 l 1,4,-1
 272 361 l 1,5,-1
 30 361 l 1,6,-1
 30 424 l 1,7,-1
 272 424 l 1,8,-1
 272 742 l 1,9,-1
 343 742 l 1,10,-1
 343 424 l 1,11,-1
 585 424 l 1,12,-1
 585 361 l 1,13,-1
 343 361 l 1,14,-1
 343 207 l 1,15,-1
 585 207 l 1,16,-1
 585 144 l 1,17,-1
 343 144 l 1,18,-1
 343 -194 l 1,19,-1
 272 -194 l 1,0,-1
EndSplineSet
Validated: 1
EndChar

StartChar: uni01E4
Encoding: 484 484 407
Width: 797
GlyphClass: 2
Flags: W
AnchorPoint: "Anchor-3" 408 700 basechar 0
AnchorPoint: "Anchor-0" 404 0 basechar 0
LayerCount: 2
Fore
SplineSet
421 -6 m 0,0,1
 341 -6 341 -6 273.5 20.5 c 128,-1,2
 206 47 206 47 156.5 95 c 128,-1,3
 107 143 107 143 79.5 208 c 128,-1,4
 52 273 52 273 52 350 c 256,5,6
 52 427 52 427 79.5 492 c 128,-1,7
 107 557 107 557 157 605 c 128,-1,8
 207 653 207 653 274.5 679.5 c 128,-1,9
 342 706 342 706 422 706 c 256,10,11
 502 706 502 706 568.5 681 c 128,-1,12
 635 656 635 656 682 605 c 1,13,-1
 636 558 l 1,14,15
 592 602 592 602 539 621 c 128,-1,16
 486 640 486 640 425 640 c 0,17,18
 360 640 360 640 305.5 618.5 c 128,-1,19
 251 597 251 597 210.5 557.5 c 128,-1,20
 170 518 170 518 147.5 465.5 c 128,-1,21
 125 413 125 413 125 350 c 0,22,23
 125 288 125 288 147.5 235 c 128,-1,24
 170 182 170 182 210.5 142.5 c 128,-1,25
 251 103 251 103 305.5 81.5 c 128,-1,26
 360 60 360 60 424 60 c 0,27,28
 484 60 484 60 537.5 78 c 128,-1,29
 591 96 591 96 636 139 c 1,30,-1
 678 83 l 1,31,32
 628 39 628 39 561 16.5 c 128,-1,33
 494 -6 494 -6 421 -6 c 0,0,1
449 214 m 1,34,-1
 449 273 l 1,35,-1
 787 273 l 1,36,-1
 787 214 l 1,37,-1
 449 214 l 1,34,-1
678 83 m 1,38,-1
 607 92 l 1,39,-1
 607 350 l 1,40,-1
 678 350 l 1,41,-1
 678 83 l 1,38,-1
EndSplineSet
Validated: 5
Substitution2: "'ss01' Style Set 1 lookup 50 subtable" uni01E4.ss01
Substitution2: "'c2sc' Capitals to Small Capitals lookup 45 subtable" uni01E5.sc
AlternateSubs2: "'aalt' Access All Alternates lookup 1 subtable" uni01E5.sc uni01E4.ss01
EndChar

StartChar: uni01E5
Encoding: 485 485 408
Width: 691
GlyphClass: 1
Flags: W
LayerCount: 2
Fore
SplineSet
323 -199 m 0,0,1
 251 -199 251 -199 185 -178 c 128,-1,2
 119 -157 119 -157 78 -118 c 1,3,-1
 114 -64 l 1,4,5
 151 -97 151 -97 205.5 -116.5 c 128,-1,6
 260 -136 260 -136 321 -136 c 0,7,8
 421 -136 421 -136 468 -89.5 c 128,-1,9
 515 -43 515 -43 515 55 c 2,10,-1
 515 186 l 1,11,-1
 525 276 l 1,12,-1
 518 366 l 1,13,-1
 518 525 l 1,14,-1
 586 525 l 1,15,-1
 586 64 l 2,16,17
 586 -72 586 -72 519.5 -135.5 c 128,-1,18
 453 -199 453 -199 323 -199 c 0,0,1
343 -62 m 1,19,-1
 343 -11 l 1,20,-1
 669 -11 l 1,21,-1
 669 -62 l 1,22,-1
 343 -62 l 1,19,-1
310 35 m 0,23,24
 235 35 235 35 175 66.5 c 128,-1,25
 115 98 115 98 80.5 154 c 128,-1,26
 46 210 46 210 46 283 c 0,27,28
 46 357 46 357 80.5 412.5 c 128,-1,29
 115 468 115 468 175 499 c 128,-1,30
 235 530 235 530 310 530 c 0,31,32
 380 530 380 530 436 501.5 c 128,-1,33
 492 473 492 473 525 418 c 128,-1,34
 558 363 558 363 558 283 c 256,35,36
 558 203 558 203 525 147.5 c 128,-1,37
 492 92 492 92 436 63.5 c 128,-1,38
 380 35 380 35 310 35 c 0,23,24
317 95 m 0,39,40
 375 95 375 95 420 119 c 128,-1,41
 465 143 465 143 491 185.5 c 128,-1,42
 517 228 517 228 517 283 c 0,43,44
 517 339 517 339 491 381 c 128,-1,45
 465 423 465 423 420 446.5 c 128,-1,46
 375 470 375 470 317 470 c 0,47,48
 260 470 260 470 214.5 446.5 c 128,-1,49
 169 423 169 423 143.5 381 c 128,-1,50
 118 339 118 339 118 283 c 0,51,52
 118 228 118 228 143.5 185.5 c 128,-1,53
 169 143 169 143 214.5 119 c 128,-1,54
 260 95 260 95 317 95 c 0,39,40
EndSplineSet
Validated: 5
Substitution2: "'smcp' Lowercase to Small Capitals lookup 46 subtable" uni01E5.sc
Substitution2: "'aalt' Access All Alternates lookup 0 subtable" uni01E5.sc
EndChar

StartChar: uni01EA
Encoding: 490 490 413
Width: 839
GlyphClass: 2
Flags: W
AnchorPoint: "Anchor-3" 420 700 basechar 0
LayerCount: 2
Fore
SplineSet
424 -220 m 0,0,1
 373 -220 373 -220 343.5 -194 c 128,-1,2
 314 -168 314 -168 314 -125 c 0,3,4
 314 -101 314 -101 326 -74 c 128,-1,5
 338 -47 338 -47 369.5 -21 c 128,-1,6
 401 5 401 5 454 27 c 1,7,-1
 451 -4 l 1,8,9
 442 -5 442 -5 434.5 -5.5 c 128,-1,10
 427 -6 427 -6 420 -6 c 0,11,12
 340 -6 340 -6 273.5 20.5 c 128,-1,13
 207 47 207 47 157 95 c 128,-1,14
 107 143 107 143 79.5 208 c 128,-1,15
 52 273 52 273 52 350 c 256,16,17
 52 427 52 427 79.5 492 c 128,-1,18
 107 557 107 557 157 605 c 128,-1,19
 207 653 207 653 273.5 679.5 c 128,-1,20
 340 706 340 706 420 706 c 0,21,22
 499 706 499 706 566 679.5 c 128,-1,23
 633 653 633 653 682.5 605 c 128,-1,24
 732 557 732 557 759.5 492 c 128,-1,25
 787 427 787 427 787 350 c 0,26,27
 787 260 787 260 750.5 188.5 c 128,-1,28
 714 117 714 117 652.5 70.5 c 128,-1,29
 591 24 591 24 516 6 c 0,30,31
 473 -4 473 -4 439 -23.5 c 128,-1,32
 405 -43 405 -43 385.5 -67.5 c 128,-1,33
 366 -92 366 -92 366 -120 c 256,34,35
 366 -148 366 -148 384.5 -162 c 128,-1,36
 403 -176 403 -176 431 -176 c 0,37,38
 447 -176 447 -176 463.5 -171 c 128,-1,39
 480 -166 480 -166 492 -157 c 1,40,-1
 509 -196 l 1,41,42
 491 -207 491 -207 469.5 -213.5 c 128,-1,43
 448 -220 448 -220 424 -220 c 0,0,1
420 60 m 256,44,45
 483 60 483 60 536.5 81.5 c 128,-1,46
 590 103 590 103 629.5 142.5 c 128,-1,47
 669 182 669 182 691 235 c 128,-1,48
 713 288 713 288 713 350 c 0,49,50
 713 413 713 413 691 465.5 c 128,-1,51
 669 518 669 518 629.5 557.5 c 128,-1,52
 590 597 590 597 536.5 618.5 c 128,-1,53
 483 640 483 640 420 640 c 256,54,55
 357 640 357 640 303 618.5 c 128,-1,56
 249 597 249 597 209.5 557.5 c 128,-1,57
 170 518 170 518 147.5 465.5 c 128,-1,58
 125 413 125 413 125 350 c 0,59,60
 125 288 125 288 147.5 235 c 128,-1,61
 170 182 170 182 209.5 142.5 c 128,-1,62
 249 103 249 103 303 81.5 c 128,-1,63
 357 60 357 60 420 60 c 256,44,45
EndSplineSet
Validated: 5
Substitution2: "'c2sc' Capitals to Small Capitals lookup 45 subtable" uni01EB.sc
Substitution2: "'locl' Localized Forms in Latin lookup 15 subtable" uni01EA.loclNAV
AlternateSubs2: "'aalt' Access All Alternates lookup 1 subtable" uni01EA.loclNAV uni01EB.sc
EndChar

StartChar: uni01EB
Encoding: 491 491 414
Width: 627
GlyphClass: 2
Flags: W
AnchorPoint: "Anchor-4" 457 526 basechar 0
AnchorPoint: "Anchor-3" 313 526 basechar 0
AnchorPoint: "Anchor-1" 313 263 basechar 0
AnchorPoint: "Anchor-0" 313 0 basechar 0
LayerCount: 2
Fore
SplineSet
342 -220 m 0,0,1
 292 -220 292 -220 262 -194 c 128,-1,2
 232 -168 232 -168 232 -127 c 0,3,4
 232 -101 232 -101 244 -74 c 128,-1,5
 256 -47 256 -47 286 -21 c 128,-1,6
 316 5 316 5 368 27 c 1,7,-1
 369 0 l 1,8,9
 351 -3 351 -3 338.5 -4 c 128,-1,10
 326 -5 326 -5 313 -5 c 0,11,12
 236 -5 236 -5 176 29.5 c 128,-1,13
 116 64 116 64 81 124.5 c 128,-1,14
 46 185 46 185 46 263 c 0,15,16
 46 342 46 342 81 401.5 c 128,-1,17
 116 461 116 461 176 495.5 c 128,-1,18
 236 530 236 530 313 530 c 0,19,20
 391 530 391 530 451.5 495.5 c 128,-1,21
 512 461 512 461 546.5 401.5 c 128,-1,22
 581 342 581 342 581 263 c 0,23,24
 581 177 581 177 539 113 c 128,-1,25
 497 49 497 49 426 17 c 0,26,27
 366 -10 366 -10 336 -34 c 128,-1,28
 306 -58 306 -58 295.5 -79 c 128,-1,29
 285 -100 285 -100 285 -120 c 0,30,31
 285 -148 285 -148 303.5 -162 c 128,-1,32
 322 -176 322 -176 350 -176 c 0,33,34
 366 -176 366 -176 382.5 -171 c 128,-1,35
 399 -166 399 -166 411 -157 c 1,36,-1
 427 -196 l 1,37,38
 410 -207 410 -207 388 -213.5 c 128,-1,39
 366 -220 366 -220 342 -220 c 0,0,1
313 58 m 0,40,41
 370 58 370 58 414 83.5 c 128,-1,42
 458 109 458 109 483.5 155.5 c 128,-1,43
 509 202 509 202 509 263 c 0,44,45
 509 325 509 325 483.5 371 c 128,-1,46
 458 417 458 417 414 442.5 c 128,-1,47
 370 468 370 468 313 468 c 0,48,49
 258 468 258 468 214 442.5 c 128,-1,50
 170 417 170 417 144 371 c 128,-1,51
 118 325 118 325 118 263 c 0,52,53
 118 202 118 202 144 155.5 c 128,-1,54
 170 109 170 109 214 83.5 c 128,-1,55
 258 58 258 58 313 58 c 0,40,41
EndSplineSet
Validated: 9
Substitution2: "'smcp' Lowercase to Small Capitals lookup 46 subtable" uni01EB.sc
Substitution2: "'locl' Localized Forms in Latin lookup 15 subtable" uni01EB.loclNAV
AlternateSubs2: "'aalt' Access All Alternates lookup 1 subtable" uni01EB.loclNAV uni01EB.sc
EndChar

StartChar: uni021C
Encoding: 540 540 461
Width: 594
GlyphClass: 1
Flags: W
LayerCount: 2
Fore
SplineSet
-15 -94 m 1,0,-1
 -20 -31 l 1,1,2
 90 -20 90 -20 179 -0.5 c 128,-1,3
 268 19 268 19 331.5 47.5 c 128,-1,4
 395 76 395 76 429 114.5 c 128,-1,5
 463 153 463 153 463 202 c 0,6,7
 463 248 463 248 435 275 c 128,-1,8
 407 302 407 302 359 311 c 128,-1,9
 311 320 311 320 249 309 c 2,10,-1
 129 286 l 1,11,-1
 124 348 l 1,12,-1
 227 368 l 2,13,14
 283 379 283 379 329.5 397.5 c 128,-1,15
 376 416 376 416 403.5 446 c 128,-1,16
 431 476 431 476 431 518 c 0,17,18
 431 549 431 549 416 576 c 128,-1,19
 401 603 401 603 369 621 c 128,-1,20
 337 639 337 639 285 642 c 0,21,22
 250 644 250 644 206.5 637 c 128,-1,23
 163 630 163 630 114.5 613 c 128,-1,24
 66 596 66 596 15 569 c 1,25,-1
 -11 624 l 1,26,27
 39 654 39 654 91.5 672.5 c 128,-1,28
 144 691 144 691 195 699 c 128,-1,29
 246 707 246 707 291 706 c 0,30,31
 368 702 368 702 415 676.5 c 128,-1,32
 462 651 462 651 484 612 c 128,-1,33
 506 573 506 573 506 531 c 0,34,35
 506 476 506 476 474.5 437 c 128,-1,36
 443 398 443 398 390 374 c 128,-1,37
 337 350 337 350 270 337 c 1,38,-1
 268 354 l 1,39,40
 345 369 345 369 406 353.5 c 128,-1,41
 467 338 467 338 502.5 298.5 c 128,-1,42
 538 259 538 259 538 199 c 0,43,44
 538 137 538 137 497 86.5 c 128,-1,45
 456 36 456 36 382.5 -0.5 c 128,-1,46
 309 -37 309 -37 207.5 -60.5 c 128,-1,47
 106 -84 106 -84 -15 -94 c 1,0,-1
EndSplineSet
Validated: 37
Substitution2: "'c2sc' Capitals to Small Capitals lookup 45 subtable" uni021D.sc
Substitution2: "'aalt' Access All Alternates lookup 0 subtable" uni021D.sc
EndChar

StartChar: uni021D
Encoding: 541 541 462
Width: 509
GlyphClass: 1
Flags: W
LayerCount: 2
Fore
SplineSet
16 -194 m 1,0,-1
 11 -137 l 1,1,2
 127 -116 127 -116 210 -86 c 128,-1,3
 293 -56 293 -56 337.5 -14.5 c 128,-1,4
 382 27 382 27 382 82 c 0,5,6
 382 117 382 117 363 142.5 c 128,-1,7
 344 168 344 168 307 177.5 c 128,-1,8
 270 187 270 187 216 172 c 2,9,-1
 126 148 l 1,10,-1
 118 204 l 1,11,-1
 207 229 l 2,12,13
 257 243 257 243 290.5 264.5 c 128,-1,14
 324 286 324 286 341.5 313 c 128,-1,15
 359 340 359 340 359 372 c 0,16,17
 359 398 359 398 348 420.5 c 128,-1,18
 337 443 337 443 312.5 457.5 c 128,-1,19
 288 472 288 472 248 472 c 0,20,21
 203 472 203 472 149.5 452 c 128,-1,22
 96 432 96 432 39 398 c 1,23,-1
 16 451 l 1,24,25
 58 478 58 478 99 496 c 128,-1,26
 140 514 140 514 178.5 522.5 c 128,-1,27
 217 531 217 531 253 531 c 0,28,29
 310 531 310 531 349.5 512 c 128,-1,30
 389 493 389 493 409.5 459 c 128,-1,31
 430 425 430 425 430 381 c 0,32,33
 430 332 430 332 405.5 298 c 128,-1,34
 381 264 381 264 338 241 c 128,-1,35
 295 218 295 218 240 204 c 1,36,-1
 239 220 l 1,37,38
 294 235 294 235 343.5 222.5 c 128,-1,39
 393 210 393 210 424 174 c 128,-1,40
 455 138 455 138 455 82 c 0,41,42
 455 9 455 9 398 -46 c 128,-1,43
 341 -101 341 -101 242 -138 c 128,-1,44
 143 -175 143 -175 16 -194 c 1,0,-1
EndSplineSet
Validated: 37
Substitution2: "'smcp' Lowercase to Small Capitals lookup 46 subtable" uni021D.sc
Substitution2: "'aalt' Access All Alternates lookup 0 subtable" uni021D.sc
EndChar

StartChar: uni0220
Encoding: 544 544 465
Width: 811
GlyphClass: 2
Flags: W
AnchorPoint: "Anchor-3" 415 700 basechar 0
AnchorPoint: "Anchor-0" 413 0 basechar 0
LayerCount: 2
Fore
SplineSet
630 -194 m 1,0,-1
 630 415 l 2,1,2
 630 527 630 527 574 583.5 c 128,-1,3
 518 640 518 640 420 640 c 0,4,5
 319 640 319 640 259.5 581 c 128,-1,6
 200 522 200 522 200 398 c 2,7,-1
 200 0 l 1,8,-1
 127 0 l 1,9,-1
 127 700 l 1,10,-1
 198 700 l 1,11,-1
 198 527 l 1,12,-1
 178 539 l 1,13,14
 209 626 209 626 275 666 c 128,-1,15
 341 706 341 706 434 706 c 0,16,17
 559 706 559 706 631 632 c 128,-1,18
 703 558 703 558 703 417 c 2,19,-1
 703 -194 l 1,20,-1
 630 -194 l 1,0,-1
EndSplineSet
Validated: 5
EndChar

